<svg width="353" height="118" viewBox="0 0 353 118" fill="none" xmlns="http://www.w3.org/2000/svg">
<g clip-path="url(#clip0_2828_42571)">
<path d="M0.257812 106.936V64.2936C0.257812 62.7041 1.05837 61.9152 2.65359 61.9152H11.3125C18.7706 61.9152 22.5026 65.813 22.5026 73.6495V78.3129C22.5026 86.1143 18.7765 90.0121 11.3125 90.0121H7.75123V106.936C7.75123 108.519 6.95067 109.314 5.38488 109.314H2.65359C1.05248 109.314 0.257812 108.519 0.257812 106.936ZM11.2772 83.2333C12.5075 83.2333 13.4434 82.9002 14.0379 82.2107C14.6324 81.5211 14.9385 80.3582 14.9385 78.7394V73.1177C14.9385 71.499 14.6383 70.3419 14.0379 69.6816C13.4375 69.0212 12.5369 68.6881 11.3066 68.6881H7.74534V83.2684L11.2772 83.2333Z" fill="black"/>
<path d="M26.5642 106.936V64.2936C26.5642 62.7041 27.3648 61.9152 28.96 61.9152H31.6913C33.2865 61.9152 34.0871 62.71 34.0576 64.2936V102.535H44.0116C45.6127 102.535 46.4073 103.33 46.4073 104.914V106.93C46.4073 108.514 45.6068 109.308 44.0116 109.308H28.96C27.3589 109.308 26.5642 108.514 26.5642 106.93V106.936Z" fill="black"/>
<path d="M50.7044 109.314C49.2034 109.314 48.4735 108.654 48.5088 107.298C48.5088 107.164 48.5441 106.965 48.5736 106.667L55.7314 64.0949C55.9669 62.6398 56.7969 61.9152 58.2626 61.9152H64.0548C65.5205 61.9152 66.3505 62.6457 66.5507 64.0949L73.7086 106.667C73.7439 106.93 73.7733 107.129 73.8086 107.298C73.8086 108.654 73.0434 109.314 71.5424 109.314H68.8817C67.3159 109.314 66.4506 108.589 66.2858 107.134L65.2851 99.8939V100.028H56.4614L55.4607 107.134C55.2958 108.589 54.4305 109.314 52.8648 109.314H50.6985H50.7044ZM64.355 93.6119L60.8585 70.1783H60.7231L57.3267 93.6119H64.355Z" fill="black"/>
<path d="M77.6054 106.936V64.2936C77.6054 62.7041 78.4059 61.9152 80.0011 61.9152H84.8928C86.3585 61.9152 87.2591 62.6106 87.5534 63.9664L94.311 90.3101H94.4464V64.2936C94.4464 62.7041 95.247 61.9152 96.8422 61.9152H98.7376C100.333 61.9152 101.133 62.71 101.133 64.2936V106.936C101.133 108.519 100.333 109.314 98.7376 109.314H95.5413C94.0756 109.314 93.1749 108.654 92.8747 107.298L84.416 74.7072H84.2806V106.936C84.2806 108.519 83.48 109.314 81.8848 109.314H79.9894C78.3883 109.314 77.5936 108.519 77.5936 106.936H77.6054Z" fill="black"/>
<path d="M156.024 106.936V64.2936C156.024 62.7041 156.825 61.9152 158.42 61.9152H163.312C164.777 61.9152 165.678 62.6106 165.978 63.9664L172.736 90.3101H172.871V64.2936C172.871 62.7041 173.672 61.9152 175.267 61.9152H177.162C178.758 61.9152 179.558 62.71 179.558 64.2936V106.936C179.558 108.519 178.758 109.314 177.162 109.314H173.966C172.5 109.314 171.6 108.654 171.3 107.298L162.841 74.7072H162.705V106.936C162.705 108.519 161.905 109.314 160.31 109.314H158.414C156.813 109.314 156.018 108.519 156.018 106.936H156.024Z" fill="black"/>
<path d="M185.127 106.936V64.2936C185.127 62.7041 185.927 61.9152 187.522 61.9152H203.204C204.799 61.9152 205.6 62.71 205.57 64.2936V66.3448C205.57 67.9285 204.77 68.7232 203.204 68.694H192.614V81.2231H200.537C202.133 81.2231 202.933 82.0178 202.904 83.6015V85.6176C202.904 87.2012 202.103 87.996 200.537 87.996H192.614V102.541H203.204C204.799 102.541 205.6 103.336 205.57 104.92V106.936C205.57 108.519 204.77 109.314 203.204 109.314H187.522C185.927 109.314 185.127 108.519 185.127 106.936Z" fill="black"/>
<path d="M215.724 106.936V68.6881H210.262C208.667 68.6881 207.866 67.8934 207.895 66.3389V64.2878C207.895 62.6983 208.696 61.9094 210.262 61.9094H228.674C230.276 61.9094 231.07 62.7041 231.07 64.2878V66.3389C231.07 67.9226 230.27 68.7174 228.674 68.6881H223.212V106.936C223.212 108.519 222.411 109.314 220.846 109.314H218.114C216.519 109.314 215.718 108.519 215.718 106.936H215.724Z" fill="black"/>
<path d="M237.734 107.064L233.372 64.9832L233.307 64.0891C233.307 62.634 234.043 61.9094 235.538 61.9094H238.004C239.505 61.9094 240.335 62.6691 240.471 64.1592L243.667 98.3395H243.803L247.234 64.1592C247.37 62.6691 248.164 61.9094 249.665 61.9094H253.362C254.863 61.9094 255.693 62.6691 255.829 64.1592L259.225 98.3395H259.36L262.557 64.1592C262.692 62.6691 263.522 61.9094 265.023 61.9094H266.718C268.214 61.9094 268.985 62.6398 268.985 64.0891L268.92 64.9832L264.558 107.064C264.423 108.554 263.593 109.314 262.092 109.314H257.265C255.699 109.314 254.869 108.554 254.734 107.064L251.537 77.3486H251.402L248.17 107.064C248.035 108.554 247.205 109.314 245.674 109.314H240.212C238.717 109.314 237.881 108.554 237.745 107.064H237.734Z" fill="black"/>
<path d="M283.654 109.974C279.992 109.974 277.196 108.952 275.23 106.866C273.264 104.779 272.299 101.84 272.299 98.0415V73.1177C272.299 69.3193 273.264 66.374 275.23 64.2936C277.196 62.2132 280.028 61.1847 283.689 61.1847C287.35 61.1847 290.182 62.2074 292.148 64.2936C294.114 66.374 295.109 69.3193 295.109 73.1177V98.0415C295.109 101.84 294.143 104.785 292.177 106.866C290.211 108.946 287.38 109.974 283.718 109.974H283.654ZM287.55 98.5382V72.6911C287.55 69.5822 286.25 68.0278 283.654 68.0278C281.058 68.0278 279.757 69.5822 279.757 72.6911V98.5382C279.757 101.676 281.058 103.231 283.654 103.231C286.25 103.231 287.55 101.676 287.55 98.5382Z" fill="black"/>
<path d="M302.531 109.314C300.936 109.314 300.136 108.519 300.136 106.936V64.2936C300.136 62.7041 300.936 61.9152 302.531 61.9152H311.255C315.117 61.9152 317.948 62.8093 319.714 64.5917C321.48 66.374 322.374 69.1206 322.374 72.8197V75.7299C322.374 80.6562 320.744 83.7651 317.448 85.0858V85.2202C320.779 86.2429 322.439 89.5855 322.439 95.2364V103.564C322.439 105.048 322.504 106.112 322.639 106.737C322.739 107.169 322.775 107.462 322.775 107.631C322.775 108.753 322.074 109.314 320.709 109.314H317.712C316.117 109.314 315.246 108.654 315.146 107.298C315.011 106.474 314.946 105.218 314.91 103.5V94.8391C314.91 92.6886 314.575 91.1692 313.88 90.3101C313.18 89.4511 311.985 89.0187 310.248 89.0187H307.653V106.936C307.653 108.519 306.852 109.314 305.286 109.314H302.525H302.531ZM310.39 82.2399C311.891 82.2399 313.021 81.8425 313.751 81.0828C314.481 80.3231 314.852 79.0316 314.852 77.2142V73.5794C314.852 70.3419 313.586 68.7232 311.055 68.6881H307.623V82.2399H310.39Z" fill="black"/>
<path d="M327.637 106.936V64.2936C327.637 62.7041 328.437 61.9152 330.033 61.9152H332.764C334.365 61.9152 335.16 62.71 335.13 64.2936V81.9126L344.089 63.6976C344.69 62.5405 345.62 61.9444 346.886 61.9152H349.181C350.582 61.9152 351.277 62.447 351.312 63.5047C351.312 63.867 351.177 64.2644 350.947 64.6968L343.254 79.3414L351.642 106.416C351.777 106.813 351.842 107.21 351.842 107.573C351.842 108.73 351.141 109.326 349.746 109.326H346.785C345.385 109.326 344.49 108.665 344.089 107.374L338.132 88.2005L335.136 94.2138V106.942C335.136 108.525 334.336 109.32 332.77 109.32H330.039C328.443 109.32 327.643 108.525 327.643 106.942L327.637 106.936Z" fill="black"/>
<path d="M129.27 86.9207H127.269V95.5637H129.841C130.613 95.5637 131.189 95.3475 131.566 94.9326C131.943 94.5177 132.137 93.793 132.137 92.7704V90.316C132.137 89.0362 131.919 88.1538 131.466 87.6629C131.013 87.172 130.277 86.9149 129.27 86.9149V86.9207Z" fill="black"/>
<path d="M131.013 82.2048C131.448 81.7548 131.666 80.9893 131.666 79.9257V78.3538C131.666 76.4312 130.913 75.4669 129.412 75.4436H127.257V82.8885H129.017C129.906 82.8885 130.583 82.6548 131.019 82.199L131.013 82.2048Z" fill="black"/>
<path d="M129.406 52.8281C122.03 52.8281 116.044 58.7654 116.044 66.0935V104.277C116.044 111.599 122.024 117.542 129.406 117.542C136.782 117.542 142.768 111.605 142.768 104.277V66.0935C142.768 58.7713 136.787 52.8281 129.406 52.8281ZM136.576 92.9106C136.576 95.0903 135.999 96.7441 134.857 97.8837C134.139 98.5966 133.214 99.0816 132.084 99.3505V100.35C132.084 101.063 131.496 101.647 130.777 101.647C130.059 101.647 129.465 101.063 129.465 100.35V99.5901H127.257V100.35C127.257 101.063 126.669 101.647 125.951 101.647C125.232 101.647 124.644 101.063 124.644 100.35V99.5901H124.238C123.29 99.5901 122.813 99.1167 122.813 98.1759V72.8314C122.813 71.8905 123.29 71.4172 124.238 71.4172H124.644V70.0147C124.644 69.3017 125.232 68.7174 125.951 68.7174C126.669 68.7174 127.257 69.3017 127.257 70.0147V71.4172H129.465V70.0147C129.465 69.3017 130.053 68.7174 130.777 68.7174C131.501 68.7174 132.084 69.3017 132.084 70.0147V71.5341C132.084 71.5925 132.072 71.6451 132.067 71.6977C133.108 71.9548 133.944 72.3873 134.562 73.0067C135.61 74.0703 136.146 75.7007 136.146 77.8979V79.02C136.146 81.9068 135.175 83.7534 133.256 84.5423V84.6183C135.475 85.3663 136.581 87.3298 136.581 90.4913V92.9106H136.576Z" fill="black"/>
</g>
<path d="M93.9876 22.792H91V1.2936H99.8704C103.751 1.2936 105.969 3.7884 105.969 7.6076C105.969 11.4268 103.751 13.9216 99.8704 13.9216H93.9876V22.792ZM93.9876 3.9424V11.2728H99.7472C101.657 11.2728 102.796 10.2256 102.796 8.3776V6.8376C102.796 4.9896 101.657 3.9424 99.7472 3.9424H93.9876Z" fill="black"/>
<path d="M115.877 23.1616C111.534 23.1616 108.608 19.8968 108.608 14.8148C108.608 9.7328 111.534 6.468 115.877 6.468C120.219 6.468 123.145 9.7328 123.145 14.8148C123.145 19.8968 120.219 23.1616 115.877 23.1616ZM115.877 20.6976C118.371 20.6976 120.096 19.1268 120.096 16.016V13.6136C120.096 10.5028 118.371 8.932 115.877 8.932C113.382 8.932 111.657 10.5028 111.657 13.6136V16.016C111.657 19.1268 113.382 20.6976 115.877 20.6976Z" fill="black"/>
<path d="M130.127 22.792L125.845 6.8376H128.617L131.882 20.2048H131.944L133.761 13.6444L135.732 6.8376H138.289L140.321 13.6444L142.169 20.2048H142.262L143.771 13.6444L145.465 6.8376H148.145L143.894 22.792H140.506L138.35 15.3076L136.995 10.626H136.933L135.609 15.3076L133.453 22.792H130.127Z" fill="black"/>
<path d="M158.104 23.1616C153.669 23.1616 150.866 19.866 150.866 14.8148C150.866 9.7636 153.669 6.468 158.104 6.468C162.57 6.468 165.096 9.856 165.096 14.322V15.5232H153.854V16.17C153.854 18.8188 155.486 20.7284 158.351 20.7284C160.353 20.7284 161.8 19.7736 162.663 18.1412L164.511 19.712C163.402 21.7756 161.092 23.1616 158.104 23.1616ZM158.104 8.778C155.609 8.778 153.854 10.6876 153.854 13.3056V13.5212H162.047V13.2132C162.047 10.5644 160.507 8.778 158.104 8.778Z" fill="black"/>
<path d="M172.48 22.792H169.616V6.8376H172.48V9.8868H172.634C173.158 8.316 174.575 6.8376 177.131 6.8376H178.086V9.702H176.669C174.02 9.702 172.48 10.7492 172.48 12.32V22.792Z" fill="black"/>
<path d="M187.73 23.1616C183.295 23.1616 180.492 19.866 180.492 14.8148C180.492 9.7636 183.295 6.468 187.73 6.468C192.196 6.468 194.722 9.856 194.722 14.322V15.5232H183.48V16.17C183.48 18.8188 185.112 20.7284 187.976 20.7284C189.978 20.7284 191.426 19.7736 192.288 18.1412L194.136 19.712C193.028 21.7756 190.718 23.1616 187.73 23.1616ZM187.73 8.778C185.235 8.778 183.48 10.6876 183.48 13.3056V13.5212H191.672V13.2132C191.672 10.5644 190.132 8.778 187.73 8.778Z" fill="black"/>
<path d="M209.344 22.792V20.174H209.221C208.482 22.1452 206.819 23.1616 204.632 23.1616C200.628 23.1616 198.225 19.9892 198.225 14.8148C198.225 9.6404 200.628 6.468 204.632 6.468C206.819 6.468 208.482 7.4844 209.221 9.4556H209.344V0H212.209V22.792H209.344ZM205.463 20.6668C207.619 20.6668 209.344 19.4348 209.344 17.7408V11.8888C209.344 10.1948 207.619 8.9628 205.463 8.9628C202.907 8.9628 201.275 10.78 201.275 13.4596V16.17C201.275 18.8496 202.907 20.6668 205.463 20.6668Z" fill="black"/>
<path d="M225.769 22.792V0H228.634V9.4556H228.757C229.496 7.4844 231.159 6.468 233.346 6.468C237.35 6.468 239.753 9.6404 239.753 14.8148C239.753 19.9892 237.35 23.1616 233.346 23.1616C231.159 23.1616 229.496 22.1452 228.757 20.174H228.634V22.792H225.769ZM232.515 20.6668C235.071 20.6668 236.703 18.8496 236.703 16.17V13.4596C236.703 10.78 235.071 8.9628 232.515 8.9628C230.359 8.9628 228.634 10.1948 228.634 11.8888V17.7408C228.634 19.4348 230.359 20.6668 232.515 20.6668Z" fill="black"/>
<path d="M250.474 17.0324L254.047 6.8376H256.819L249.889 26.2724C249.15 28.2744 248.38 28.952 245.947 28.952H244.376V26.5188H246.994L248.072 23.4388L242.158 6.8376H245.023L248.565 17.0324L249.396 20.02H249.55L250.474 17.0324Z" fill="black"/>
<defs>
<clipPath id="clip0_2828_42571">
<rect width="352.1" height="65.2297" fill="white" transform="translate(0 52.5703)"/>
</clipPath>
</defs>
</svg>
