<svg width="419" height="62" viewBox="0 0 419 62" fill="none" xmlns="http://www.w3.org/2000/svg">
<g clip-path="url(#clip0_2828_42313)">
<rect x="206.402" y="12.8026" width="14.965" height="36.5635" fill="white"/>
<path d="M94.9961 50.9954V11.7272C94.9961 10.2634 95.7333 9.53693 97.2023 9.53693H105.176C112.044 9.53693 115.481 13.1263 115.481 20.3428V24.6372C115.481 31.8214 112.05 35.4108 105.176 35.4108H101.897V50.9954C101.897 52.4537 101.159 53.1856 99.7175 53.1856H97.2023C95.7279 53.1856 94.9961 52.4537 94.9961 50.9954ZM105.144 29.1683C106.277 29.1683 107.138 28.8616 107.686 28.2266C108.233 27.5916 108.515 26.5207 108.515 25.03V19.8531C108.515 18.3625 108.239 17.2969 107.686 16.6888C107.133 16.0807 106.304 15.774 105.171 15.774H101.891V29.2006L105.144 29.1683Z" fill="black"/>
<path d="M119.221 50.9954V11.7272C119.221 10.2634 119.958 9.53693 121.427 9.53693H123.943C125.412 9.53693 126.149 10.2688 126.122 11.7272V46.9432H135.288C136.762 46.9432 137.494 47.675 137.494 49.1334V50.99C137.494 52.4483 136.757 53.1802 135.288 53.1802H121.427C119.953 53.1802 119.221 52.4483 119.221 50.99V50.9954Z" fill="black"/>
<path d="M141.451 53.1856C140.069 53.1856 139.397 52.5775 139.429 51.329C139.429 51.2052 139.462 51.0223 139.489 50.7478L146.081 11.5442C146.297 10.2042 147.062 9.53693 148.411 9.53693H153.745C155.095 9.53693 155.859 10.2096 156.044 11.5442L162.635 50.7478C162.668 50.99 162.695 51.1729 162.727 51.329C162.727 52.5775 162.023 53.1856 160.641 53.1856H158.19C156.748 53.1856 155.952 52.5183 155.8 51.1783L154.878 44.5108V44.6345H146.753L145.831 51.1783C145.679 52.5183 144.883 53.1856 143.441 53.1856H141.446H141.451ZM154.022 38.7257L150.802 17.1463H150.677L147.55 38.7257H154.022Z" fill="black"/>
<path d="M166.224 50.9954V11.7272C166.224 10.2634 166.961 9.53693 168.43 9.53693H172.935C174.284 9.53693 175.114 10.1773 175.385 11.4258L181.608 35.6852H181.732V11.7272C181.732 10.2634 182.47 9.53693 183.939 9.53693H185.684C187.153 9.53693 187.89 10.2688 187.89 11.7272V50.9954C187.89 52.4537 187.153 53.1856 185.684 53.1856H182.741C181.391 53.1856 180.562 52.5775 180.285 51.329L172.496 21.3169H172.371V50.9954C172.371 52.4537 171.634 53.1856 170.165 53.1856H168.419C166.945 53.1856 166.213 52.4537 166.213 50.9954H166.224Z" fill="black"/>
<path d="M238.438 50.9954V11.7272C238.438 10.2634 239.175 9.53693 240.644 9.53693H245.149C246.499 9.53693 247.328 10.1773 247.605 11.4258L253.827 35.6852H253.952V11.7272C253.952 10.2634 254.689 9.53693 256.158 9.53693H257.904C259.373 9.53693 260.11 10.2688 260.11 11.7272V50.9954C260.11 52.4537 259.373 53.1856 257.904 53.1856H254.96C253.611 53.1856 252.781 52.5775 252.505 51.329L244.715 21.3169H244.591V50.9954C244.591 52.4537 243.853 53.1856 242.384 53.1856H240.639C239.165 53.1856 238.433 52.4537 238.433 50.9954H238.438Z" fill="black"/>
<path d="M265.238 50.9954V11.7272C265.238 10.2634 265.975 9.53693 267.444 9.53693H281.885C283.354 9.53693 284.091 10.2688 284.064 11.7272V13.616C284.064 15.0744 283.327 15.8063 281.885 15.7794H272.133V27.3171H279.429C280.898 27.3171 281.636 28.049 281.608 29.5074V31.364C281.608 32.8223 280.871 33.5542 279.429 33.5542H272.133V46.9485H281.885C283.354 46.9485 284.091 47.6804 284.064 49.1388V50.9954C284.064 52.4537 283.327 53.1856 281.885 53.1856H267.444C265.975 53.1856 265.238 52.4537 265.238 50.9954Z" fill="black"/>
<path d="M293.415 50.9954V15.774H288.384C286.915 15.774 286.178 15.0421 286.205 13.6107V11.7218C286.205 10.258 286.942 9.53155 288.384 9.53155H305.34C306.815 9.53155 307.546 10.2634 307.546 11.7218V13.6107C307.546 15.069 306.809 15.8009 305.34 15.774H300.31V50.9954C300.31 52.4537 299.573 53.1856 298.131 53.1856H295.615C294.146 53.1856 293.409 52.4537 293.409 50.9954H293.415Z" fill="black"/>
<path d="M313.683 51.1138L309.666 12.3622L309.606 11.5388C309.606 10.1988 310.284 9.53155 311.661 9.53155H313.932C315.314 9.53155 316.079 10.2311 316.203 11.6034L319.147 43.0793H319.271L322.432 11.6034C322.556 10.2311 323.288 9.53155 324.67 9.53155H328.075C329.457 9.53155 330.221 10.2311 330.346 11.6034L333.474 43.0793H333.598L336.542 11.6034C336.666 10.2311 337.431 9.53155 338.813 9.53155H340.374C341.751 9.53155 342.461 10.2042 342.461 11.5388L342.401 12.3622L338.385 51.1138C338.26 52.486 337.496 53.1856 336.113 53.1856H331.668C330.227 53.1856 329.462 52.486 329.338 51.1138L326.394 23.7493H326.269L323.293 51.1138C323.169 52.486 322.404 53.1856 320.995 53.1856H315.965C314.588 53.1856 313.818 52.486 313.693 51.1138H313.683Z" fill="black"/>
<path d="M355.969 53.7937C352.598 53.7937 350.023 52.8519 348.212 50.9308C346.402 49.0096 345.513 46.3028 345.513 42.8048V19.8531C345.513 16.3552 346.402 13.643 348.212 11.7272C350.023 9.81139 352.63 8.86426 356.002 8.86426C359.374 8.86426 361.981 9.80601 363.791 11.7272C365.602 13.643 366.518 16.3552 366.518 19.8531V42.8048C366.518 46.3028 365.629 49.015 363.818 50.9308C362.008 52.8466 359.401 53.7937 356.029 53.7937H355.969ZM359.558 43.2623V19.4603C359.558 16.5974 358.36 15.1659 355.969 15.1659C353.579 15.1659 352.381 16.5974 352.381 19.4603V43.2623C352.381 46.1521 353.579 47.5835 355.969 47.5835C358.36 47.5835 359.558 46.1521 359.558 43.2623Z" fill="black"/>
<path d="M373.353 53.1856C371.884 53.1856 371.147 52.4537 371.147 50.9954V11.7272C371.147 10.2634 371.884 9.53693 373.353 9.53693H381.387C384.943 9.53693 387.55 10.3603 389.176 12.0016C390.803 13.643 391.627 16.1722 391.627 19.5787V22.2586C391.627 26.7951 390.125 29.658 387.089 30.8742V30.998C390.158 31.9398 391.686 35.0179 391.686 40.2218V47.8903C391.686 49.2572 391.746 50.2366 391.87 50.8124C391.963 51.2106 391.995 51.4797 391.995 51.6357C391.995 52.669 391.35 53.1856 390.093 53.1856H387.333C385.864 53.1856 385.062 52.5775 384.97 51.329C384.845 50.5702 384.786 49.4132 384.753 47.8311V39.8558C384.753 37.8755 384.444 36.4763 383.805 35.6852C383.159 34.8942 382.059 34.4959 380.46 34.4959H378.069V50.9954C378.069 52.4537 377.332 53.1856 375.89 53.1856H373.348H373.353ZM380.59 28.2535C381.972 28.2535 383.013 27.8876 383.685 27.188C384.357 26.4884 384.699 25.2991 384.699 23.6255V20.2782C384.699 17.2969 383.533 15.8063 381.203 15.774H378.042V28.2535H380.59Z" fill="black"/>
<path d="M396.473 50.9954V11.7272C396.473 10.2634 397.21 9.53693 398.679 9.53693H401.194C402.669 9.53693 403.4 10.2688 403.373 11.7272V27.9521L411.623 11.1783C412.176 10.1127 413.033 9.56384 414.198 9.53693H416.312C417.603 9.53693 418.242 10.0266 418.275 11.0007C418.275 11.3343 418.15 11.7003 417.939 12.0985L410.854 25.5843L418.578 50.5164C418.703 50.8823 418.763 51.2483 418.763 51.5819C418.763 52.6475 418.117 53.1964 416.833 53.1964H414.106C412.816 53.1964 411.992 52.5883 411.623 51.399L406.138 33.7425L403.379 39.28V51.0007C403.379 52.4591 402.641 53.191 401.2 53.191H398.684C397.215 53.191 396.478 52.4591 396.478 51.0007L396.473 50.9954Z" fill="black"/>
<path d="M213.801 32.564H211.958V40.5231H214.327C215.037 40.5231 215.568 40.324 215.915 39.9419C216.262 39.5598 216.441 38.8925 216.441 37.9508V35.6906C216.441 34.5121 216.24 33.6995 215.823 33.2474C215.406 32.7954 214.728 32.5586 213.801 32.5586V32.564Z" fill="url(#paint0_radial_2828_42313)"/>
<path d="M215.406 28.2212C215.807 27.8068 216.007 27.1019 216.007 26.1224V24.6748C216.007 22.9044 215.313 22.0164 213.931 21.9949H211.947V28.8508H213.568C214.387 28.8508 215.01 28.6356 215.411 28.2158L215.406 28.2212Z" fill="url(#paint1_radial_2828_42313)"/>
<path d="M213.926 1.16882C207.134 1.16882 201.621 6.63634 201.621 13.3846V48.5468C201.621 55.2897 207.128 60.7626 213.926 60.7626C220.718 60.7626 226.231 55.2951 226.231 48.5468V13.3846C226.231 6.64172 220.723 1.16882 213.926 1.16882ZM220.528 38.0799C220.528 40.0872 219.997 41.6102 218.945 42.6595C218.284 43.3161 217.433 43.7627 216.392 44.0103V44.9305C216.392 45.587 215.85 46.1252 215.189 46.1252C214.527 46.1252 213.98 45.587 213.98 44.9305V44.2309H211.947V44.9305C211.947 45.587 211.405 46.1252 210.744 46.1252C210.083 46.1252 209.54 45.587 209.54 44.9305V44.2309H209.166C208.294 44.2309 207.855 43.795 207.855 42.9286V19.5894C207.855 18.723 208.294 18.2871 209.166 18.2871H209.54V16.9956C209.54 16.339 210.083 15.8009 210.744 15.8009C211.405 15.8009 211.947 16.339 211.947 16.9956V18.2871H213.98V16.9956C213.98 16.339 214.522 15.8009 215.189 15.8009C215.856 15.8009 216.392 16.339 216.392 16.9956V18.3947C216.392 18.4485 216.381 18.497 216.376 18.5454C217.335 18.7822 218.105 19.1804 218.674 19.7508C219.639 20.7303 220.132 22.2317 220.132 24.2551V25.2883C220.132 27.9467 219.238 29.6473 217.471 30.3738V30.4437C219.515 31.1325 220.534 32.9407 220.534 35.852V38.0799H220.528Z" fill="url(#paint2_radial_2828_42313)"/>
</g>
<path d="M2.29779 25.5574H0V11.2481H6.10033C8.70313 11.2481 10.2282 12.9496 10.2282 15.5532C10.2282 18.1568 8.70313 19.8583 6.10033 19.8583H2.29779V25.5574ZM2.29779 13.2777V17.8288H5.95798C7.11705 17.8288 7.80842 17.1932 7.80842 16.0452V15.0612C7.80842 13.9132 7.11705 13.2777 5.95798 13.2777H2.29779Z" fill="black"/>
<path d="M16.7438 25.8034C13.7953 25.8034 11.8839 23.6304 11.8839 20.2273C11.8839 16.8242 13.7953 14.6512 16.7438 14.6512C19.6923 14.6512 21.6037 16.8242 21.6037 20.2273C21.6037 23.6304 19.6923 25.8034 16.7438 25.8034ZM16.7438 23.9584C18.2486 23.9584 19.2653 23.0154 19.2653 21.1293V19.3253C19.2653 17.4392 18.2486 16.4962 16.7438 16.4962C15.2391 16.4962 14.2223 17.4392 14.2223 19.3253V21.1293C14.2223 23.0154 15.2391 23.9584 16.7438 23.9584Z" fill="black"/>
<path d="M26.1712 25.5574L23.2837 14.8972H25.4392L26.5169 19.3663L27.4726 23.4049H27.5336L28.6317 19.3663L29.9127 14.8972H31.9055L33.2069 19.3663L34.3253 23.4049H34.3863L35.3217 19.3663L36.4197 14.8972H38.4735L35.6267 25.5574H33.1256L30.8888 17.7058H30.8481L30.0144 20.6988L28.6113 25.5574H26.1712Z" fill="black"/>
<path d="M45.0007 25.8034C41.9912 25.8034 40.1408 23.6304 40.1408 20.2273C40.1408 16.8242 41.9912 14.6512 45.0007 14.6512C48.1119 14.6512 49.698 17.0087 49.698 19.9608V20.8013H42.4386V21.1498C42.4386 22.7899 43.435 23.9584 45.2244 23.9584C46.5258 23.9584 47.4002 23.3434 48.0102 22.3594L49.3116 23.6509C48.5186 24.9424 46.9731 25.8034 45.0007 25.8034ZM45.0007 16.3937C43.4756 16.3937 42.4386 17.5417 42.4386 19.1818V19.3253H47.3595V19.1203C47.3595 17.4802 46.4648 16.3937 45.0007 16.3937Z" fill="black"/>
<path d="M54.7747 25.5574H52.5583V14.8972H54.7747V16.9472H54.8764C55.1814 15.8607 56.0965 14.8972 57.7842 14.8972H58.3739V17.0497H57.4995C55.7508 17.0497 54.7747 17.6443 54.7747 18.7513V25.5574Z" fill="black"/>
<path d="M64.7982 25.8034C61.7887 25.8034 59.9382 23.6304 59.9382 20.2273C59.9382 16.8242 61.7887 14.6512 64.7982 14.6512C67.9093 14.6512 69.4954 17.0087 69.4954 19.9608V20.8013H62.236V21.1498C62.236 22.7899 63.2324 23.9584 65.0218 23.9584C66.3232 23.9584 67.1976 23.3434 67.8077 22.3594L69.1091 23.6509C68.316 24.9424 66.7706 25.8034 64.7982 25.8034ZM64.7982 16.3937C63.2731 16.3937 62.236 17.5417 62.236 19.1818V19.3253H67.157V19.1203C67.157 17.4802 66.2622 16.3937 64.7982 16.3937Z" fill="black"/>
<path d="M79.0051 25.5574V23.7944H78.9034C78.4561 25.0449 77.3377 25.8034 75.9346 25.8034C73.2708 25.8034 71.7254 23.7329 71.7254 20.2273C71.7254 16.7217 73.2708 14.6512 75.9346 14.6512C77.3377 14.6512 78.4561 15.3892 78.9034 16.6602H79.0051V10.3871H81.2215L80.9843 14.6512L81.2215 25.5574H79.0051ZM76.6056 23.8764C77.9477 23.8764 79.0051 23.1384 79.0051 22.0519V18.4028C79.0051 17.3162 77.9477 16.5782 76.6056 16.5782C75.0805 16.5782 74.0638 17.6648 74.0638 19.3048V21.1498C74.0638 22.7899 75.0805 23.8764 76.6056 23.8764Z" fill="black"/>
<path d="M60.061 50.158V34.9876H62.2775V41.2608H62.3791C62.8265 39.9897 63.9449 39.2517 65.348 39.2517C68.0118 39.2517 69.5572 41.3223 69.5572 44.8278C69.5572 48.3334 68.0118 50.404 65.348 50.404C63.9449 50.404 62.8265 49.6455 62.3791 48.3949H62.2775V50.158H60.061ZM64.6769 48.4769C66.202 48.4769 67.2187 47.3904 67.2187 45.7504V43.9053C67.2187 42.2653 66.202 41.1788 64.6769 41.1788C63.3349 41.1788 62.2775 41.9168 62.2775 43.0033V46.6524C62.2775 47.7389 63.3349 48.4769 64.6769 48.4769Z" fill="black"/>
<path d="M76.7344 45.7709L78.8492 39.4977H80.9843L76.5311 52.2695C76.0227 53.7045 75.3924 54.2581 73.7453 54.2581H72.4642V52.4335H74.2536L74.8637 50.6295L71.0205 39.4977H73.2369L75.3517 45.7709L75.9617 48.0874H76.0634L76.7344 45.7709Z" fill="black"/>
<defs>
<radialGradient id="paint0_radial_2828_42313" cx="0" cy="0" r="1" gradientUnits="userSpaceOnUse" gradientTransform="translate(208.54 9.00386) rotate(85.8219) scale(37.4942 15.4835)">
<stop stop-color="#FF9900"/>
<stop offset="1" stop-color="#FF5C00"/>
</radialGradient>
<radialGradient id="paint1_radial_2828_42313" cx="0" cy="0" r="1" gradientUnits="userSpaceOnUse" gradientTransform="translate(208.54 9.00386) rotate(85.8219) scale(37.4942 15.4835)">
<stop stop-color="#FF9900"/>
<stop offset="1" stop-color="#FF5C00"/>
</radialGradient>
<radialGradient id="paint2_radial_2828_42313" cx="0" cy="0" r="1" gradientUnits="userSpaceOnUse" gradientTransform="translate(208.54 9.00386) rotate(85.8219) scale(37.4942 15.4835)">
<stop stop-color="#FF9900"/>
<stop offset="1" stop-color="#FF5C00"/>
</radialGradient>
<clipPath id="clip0_2828_42313">
<rect width="324.242" height="60.0686" fill="white" transform="translate(94.7585 0.931396)"/>
</clipPath>
</defs>
</svg>
