<svg width="419" height="61" viewBox="0 0 419 61" fill="none" xmlns="http://www.w3.org/2000/svg">
<g clip-path="url(#clip0_2828_42310)">
<rect x="206.402" y="11.8984" width="14.965" height="36.4908" fill="white"/>
<path d="M94.9961 50.0152V10.8251C94.9961 9.36428 95.7333 8.63924 97.2023 8.63924H105.176C112.044 8.63924 115.481 12.2215 115.481 19.4236V23.7095C115.481 30.8794 112.05 34.4616 105.176 34.4616H101.897V50.0152C101.897 51.4707 101.159 52.2011 99.7175 52.2011H97.2023C95.7279 52.2011 94.9961 51.4707 94.9961 50.0152ZM105.144 28.2316C106.277 28.2316 107.138 27.9255 107.686 27.2917C108.233 26.658 108.515 25.5892 108.515 24.1015V18.9349C108.515 17.4472 108.239 16.3838 107.686 15.7769C107.133 15.17 106.304 14.8639 105.171 14.8639H101.891V28.2638L105.144 28.2316Z" fill="black"/>
<path d="M119.221 50.0152V10.8251C119.221 9.36428 119.958 8.63924 121.427 8.63924H123.943C125.412 8.63924 126.149 9.36965 126.122 10.8251V45.9711H135.288C136.762 45.9711 137.494 46.7015 137.494 48.157V50.0099C137.494 51.4653 136.757 52.1957 135.288 52.1957H121.427C119.953 52.1957 119.221 51.4653 119.221 50.0099V50.0152Z" fill="black"/>
<path d="M141.451 52.2011C140.069 52.2011 139.397 51.5942 139.429 50.3482C139.429 50.2247 139.462 50.0421 139.489 49.7682L146.081 10.6425C146.297 9.3052 147.062 8.63924 148.411 8.63924H153.745C155.095 8.63924 155.859 9.31057 156.044 10.6425L162.635 49.7682C162.668 50.0099 162.695 50.1925 162.727 50.3482C162.727 51.5942 162.023 52.2011 160.641 52.2011H158.19C156.748 52.2011 155.952 51.5352 155.8 50.1978L154.878 43.5435V43.667H146.753L145.831 50.1978C145.679 51.5352 144.883 52.2011 143.441 52.2011H141.446H141.451ZM154.022 37.77L150.802 16.2334H150.677L147.55 37.77H154.022Z" fill="black"/>
<path d="M166.224 50.0152V10.8251C166.224 9.36428 166.961 8.63924 168.43 8.63924H172.935C174.284 8.63924 175.114 9.27835 175.385 10.5244L181.608 34.7355H181.732V10.8251C181.732 9.36428 182.47 8.63924 183.939 8.63924H185.684C187.153 8.63924 187.89 9.36965 187.89 10.8251V50.0152C187.89 51.4707 187.153 52.2011 185.684 52.2011H182.741C181.391 52.2011 180.562 51.5942 180.285 50.3482L172.496 20.3957H172.371V50.0152C172.371 51.4707 171.634 52.2011 170.165 52.2011H168.419C166.945 52.2011 166.213 51.4707 166.213 50.0152H166.224Z" fill="black"/>
<path d="M238.438 50.0152V10.8251C238.438 9.36428 239.175 8.63924 240.644 8.63924H245.149C246.499 8.63924 247.328 9.27835 247.605 10.5244L253.827 34.7355H253.952V10.8251C253.952 9.36428 254.689 8.63924 256.158 8.63924H257.904C259.373 8.63924 260.11 9.36965 260.11 10.8251V50.0152C260.11 51.4707 259.373 52.2011 257.904 52.2011H254.96C253.611 52.2011 252.781 51.5942 252.505 50.3482L244.715 20.3957H244.591V50.0152C244.591 51.4707 243.853 52.2011 242.384 52.2011H240.639C239.165 52.2011 238.433 51.4707 238.433 50.0152H238.438Z" fill="black"/>
<path d="M265.238 50.0152V10.8251C265.238 9.36428 265.975 8.63924 267.444 8.63924H281.885C283.354 8.63924 284.091 9.36965 284.064 10.8251V12.7102C284.064 14.1657 283.327 14.8961 281.885 14.8693H272.133V26.3841H279.429C280.898 26.3841 281.636 27.1145 281.608 28.57V30.4229C281.608 31.8783 280.871 32.6087 279.429 32.6087H272.133V45.9765H281.885C283.354 45.9765 284.091 46.7069 284.064 48.1623V50.0152C284.064 51.4707 283.327 52.2011 281.885 52.2011H267.444C265.975 52.2011 265.238 51.4707 265.238 50.0152Z" fill="black"/>
<path d="M293.415 50.0152V14.8639H288.384C286.915 14.8639 286.178 14.1335 286.205 12.7049V10.8197C286.205 9.35891 286.942 8.63386 288.384 8.63386H305.34C306.815 8.63386 307.546 9.36428 307.546 10.8197V12.7049C307.546 14.1603 306.809 14.8907 305.34 14.8639H300.31V50.0152C300.31 51.4707 299.573 52.2011 298.131 52.2011H295.615C294.146 52.2011 293.409 51.4707 293.409 50.0152H293.415Z" fill="black"/>
<path d="M313.683 50.1334L309.666 11.4589L309.606 10.6371C309.606 9.29983 310.284 8.63386 311.661 8.63386H313.932C315.314 8.63386 316.079 9.33206 316.203 10.7016L319.147 42.1149H319.271L322.432 10.7016C322.556 9.33206 323.288 8.63386 324.67 8.63386H328.075C329.457 8.63386 330.221 9.33206 330.346 10.7016L333.474 42.1149H333.598L336.542 10.7016C336.666 9.33206 337.431 8.63386 338.813 8.63386H340.374C341.751 8.63386 342.461 9.3052 342.461 10.6371L342.401 11.4589L338.385 50.1334C338.26 51.5029 337.496 52.2011 336.113 52.2011H331.668C330.227 52.2011 329.462 51.5029 329.338 50.1334L326.394 22.8233H326.269L323.293 50.1334C323.169 51.5029 322.404 52.2011 320.995 52.2011H315.965C314.588 52.2011 313.818 51.5029 313.693 50.1334H313.683Z" fill="black"/>
<path d="M355.969 52.808C352.598 52.808 350.023 51.8681 348.212 49.9508C346.402 48.0334 345.513 45.332 345.513 41.841V18.9349C345.513 15.4439 346.402 12.7371 348.212 10.8251C350.023 8.91314 352.63 7.9679 356.002 7.9679C359.374 7.9679 361.981 8.90777 363.791 10.8251C365.602 12.7371 366.518 15.4439 366.518 18.9349V41.841C366.518 45.332 365.629 48.0388 363.818 49.9508C362.008 51.8628 359.401 52.808 356.029 52.808H355.969ZM359.558 42.2975V18.5428C359.558 15.6856 358.36 14.257 355.969 14.257C353.579 14.257 352.381 15.6856 352.381 18.5428V42.2975C352.381 45.1816 353.579 46.6102 355.969 46.6102C358.36 46.6102 359.558 45.1816 359.558 42.2975Z" fill="black"/>
<path d="M373.353 52.2011C371.884 52.2011 371.147 51.4707 371.147 50.0152V10.8251C371.147 9.36428 371.884 8.63924 373.353 8.63924H381.387C384.943 8.63924 387.55 9.46095 389.176 11.099C390.803 12.7371 391.627 15.2613 391.627 18.661V21.3356C391.627 25.8631 390.125 28.7203 387.089 29.9341V30.0577C390.158 30.9975 391.686 34.0696 391.686 39.2631V46.9163C391.686 48.2805 391.746 49.258 391.87 49.8326C391.963 50.2301 391.995 50.4986 391.995 50.6544C391.995 51.6855 391.35 52.2011 390.093 52.2011H387.333C385.864 52.2011 385.062 51.5942 384.97 50.3482C384.845 49.591 384.786 48.4362 384.753 46.8573V38.8979C384.753 36.9214 384.444 35.525 383.805 34.7355C383.159 33.9461 382.059 33.5486 380.46 33.5486H378.069V50.0152C378.069 51.4707 377.332 52.2011 375.89 52.2011H373.348H373.353ZM380.59 27.3186C381.972 27.3186 383.013 26.9534 383.685 26.2552C384.357 25.557 384.699 24.3701 384.699 22.6998V19.3592C384.699 16.3838 383.533 14.8961 381.203 14.8639H378.042V27.3186H380.59Z" fill="black"/>
<path d="M396.473 50.0152V10.8251C396.473 9.36428 397.21 8.63924 398.679 8.63924H401.194C402.669 8.63924 403.4 9.36965 403.373 10.8251V27.0178L411.623 10.2773C412.176 9.2139 413.033 8.66609 414.198 8.63924H416.312C417.603 8.63924 418.242 9.12797 418.275 10.1001C418.275 10.4331 418.15 10.7983 417.939 11.1957L410.854 24.6547L418.578 49.5372C418.703 49.9025 418.763 50.2677 418.763 50.6006C418.763 51.664 418.117 52.2119 416.833 52.2119H414.106C412.816 52.2119 411.992 51.605 411.623 50.418L406.138 32.7967L403.379 38.3232V50.0206C403.379 51.4761 402.641 52.2065 401.2 52.2065H398.684C397.215 52.2065 396.478 51.4761 396.478 50.0206L396.473 50.0152Z" fill="black"/>
<path d="M213.801 31.6205H211.958V39.5638H214.327C215.037 39.5638 215.568 39.3651 215.915 38.9837C216.262 38.6024 216.441 37.9364 216.441 36.9966V34.7409C216.441 33.5647 216.24 32.7537 215.823 32.3026C215.406 31.8514 214.728 31.6151 213.801 31.6151V31.6205Z" fill="#FF5C00"/>
<path d="M215.406 27.2863C215.807 26.8728 216.007 26.1692 216.007 25.1917V23.747C216.007 21.98 215.313 21.0939 213.931 21.0724H211.947V27.9147H213.568C214.387 27.9147 215.01 27.6999 215.411 27.2809L215.406 27.2863Z" fill="#FF5C00"/>
<path d="M213.926 0.28772C207.134 0.28772 201.621 5.74437 201.621 12.4792V47.5715C201.621 54.301 207.128 59.763 213.926 59.763C220.718 59.763 226.231 54.3064 226.231 47.5715V12.4792C226.231 5.74974 220.723 0.28772 213.926 0.28772ZM220.528 37.1255C220.528 39.1287 219.997 40.6487 218.945 41.6959C218.284 42.3512 217.433 42.7969 216.392 43.044V43.9624C216.392 44.6176 215.85 45.1547 215.189 45.1547C214.527 45.1547 213.98 44.6176 213.98 43.9624V43.2642H211.947V43.9624C211.947 44.6176 211.405 45.1547 210.744 45.1547C210.083 45.1547 209.54 44.6176 209.54 43.9624V43.2642H209.166C208.294 43.2642 207.855 42.8292 207.855 41.9645V18.6717C207.855 17.807 208.294 17.372 209.166 17.372H209.54V16.083C209.54 15.4278 210.083 14.8907 210.744 14.8907C211.405 14.8907 211.947 15.4278 211.947 16.083V17.372H213.98V16.083C213.98 15.4278 214.522 14.8907 215.189 14.8907C215.856 14.8907 216.392 15.4278 216.392 16.083V17.4794C216.392 17.5331 216.381 17.5814 216.376 17.6298C217.335 17.8661 218.105 18.2635 218.674 18.8328C219.639 19.8103 220.132 21.3087 220.132 23.3281V24.3593C220.132 27.0124 219.238 28.7096 217.471 29.4346V29.5044C219.515 30.1919 220.534 31.9964 220.534 34.902V37.1255H220.528Z" fill="#FF5C00"/>
</g>
<path d="M2.29779 24.5574H0V10.2481H6.10033C8.70313 10.2481 10.2282 11.9496 10.2282 14.5532C10.2282 17.1568 8.70313 18.8583 6.10033 18.8583H2.29779V24.5574ZM2.29779 12.2777V16.8288H5.95798C7.11705 16.8288 7.80842 16.1932 7.80842 15.0452V14.0612C7.80842 12.9132 7.11705 12.2777 5.95798 12.2777H2.29779Z" fill="black"/>
<path d="M16.7438 24.8034C13.7953 24.8034 11.8839 22.6304 11.8839 19.2273C11.8839 15.8242 13.7953 13.6512 16.7438 13.6512C19.6923 13.6512 21.6037 15.8242 21.6037 19.2273C21.6037 22.6304 19.6923 24.8034 16.7438 24.8034ZM16.7438 22.9584C18.2486 22.9584 19.2653 22.0154 19.2653 20.1293V18.3253C19.2653 16.4392 18.2486 15.4962 16.7438 15.4962C15.2391 15.4962 14.2223 16.4392 14.2223 18.3253V20.1293C14.2223 22.0154 15.2391 22.9584 16.7438 22.9584Z" fill="black"/>
<path d="M26.1712 24.5574L23.2837 13.8972H25.4392L26.5169 18.3663L27.4726 22.4049H27.5336L28.6317 18.3663L29.9127 13.8972H31.9055L33.2069 18.3663L34.3253 22.4049H34.3863L35.3217 18.3663L36.4197 13.8972H38.4735L35.6267 24.5574H33.1256L30.8888 16.7058H30.8481L30.0144 19.6988L28.6113 24.5574H26.1712Z" fill="black"/>
<path d="M45.0007 24.8034C41.9912 24.8034 40.1408 22.6304 40.1408 19.2273C40.1408 15.8242 41.9912 13.6512 45.0007 13.6512C48.1119 13.6512 49.698 16.0087 49.698 18.9608V19.8013H42.4386V20.1498C42.4386 21.7899 43.435 22.9584 45.2244 22.9584C46.5258 22.9584 47.4002 22.3434 48.0102 21.3594L49.3116 22.6509C48.5186 23.9424 46.9731 24.8034 45.0007 24.8034ZM45.0007 15.3937C43.4756 15.3937 42.4386 16.5417 42.4386 18.1818V18.3253H47.3595V18.1203C47.3595 16.4802 46.4648 15.3937 45.0007 15.3937Z" fill="black"/>
<path d="M54.7747 24.5574H52.5583V13.8972H54.7747V15.9472H54.8764C55.1814 14.8607 56.0965 13.8972 57.7842 13.8972H58.3739V16.0497H57.4995C55.7508 16.0497 54.7747 16.6443 54.7747 17.7513V24.5574Z" fill="black"/>
<path d="M64.7982 24.8034C61.7887 24.8034 59.9382 22.6304 59.9382 19.2273C59.9382 15.8242 61.7887 13.6512 64.7982 13.6512C67.9093 13.6512 69.4954 16.0087 69.4954 18.9608V19.8013H62.236V20.1498C62.236 21.7899 63.2324 22.9584 65.0218 22.9584C66.3232 22.9584 67.1976 22.3434 67.8077 21.3594L69.1091 22.6509C68.316 23.9424 66.7706 24.8034 64.7982 24.8034ZM64.7982 15.3937C63.2731 15.3937 62.236 16.5417 62.236 18.1818V18.3253H67.157V18.1203C67.157 16.4802 66.2622 15.3937 64.7982 15.3937Z" fill="black"/>
<path d="M79.0051 24.5574V22.7944H78.9034C78.4561 24.0449 77.3377 24.8034 75.9346 24.8034C73.2708 24.8034 71.7254 22.7329 71.7254 19.2273C71.7254 15.7217 73.2708 13.6512 75.9346 13.6512C77.3377 13.6512 78.4561 14.3892 78.9034 15.6602H79.0051V9.38708H81.2215L80.9843 13.6512L81.2215 24.5574H79.0051ZM76.6056 22.8764C77.9477 22.8764 79.0051 22.1384 79.0051 21.0519V17.4028C79.0051 16.3162 77.9477 15.5782 76.6056 15.5782C75.0805 15.5782 74.0638 16.6648 74.0638 18.3048V20.1498C74.0638 21.7899 75.0805 22.8764 76.6056 22.8764Z" fill="black"/>
<path d="M60.061 49.158V33.9876H62.2775V40.2608H62.3791C62.8265 38.9897 63.9449 38.2517 65.348 38.2517C68.0118 38.2517 69.5572 40.3223 69.5572 43.8278C69.5572 47.3334 68.0118 49.404 65.348 49.404C63.9449 49.404 62.8265 48.6455 62.3791 47.3949H62.2775V49.158H60.061ZM64.6769 47.4769C66.202 47.4769 67.2187 46.3904 67.2187 44.7504V42.9053C67.2187 41.2653 66.202 40.1788 64.6769 40.1788C63.3349 40.1788 62.2775 40.9168 62.2775 42.0033V45.6524C62.2775 46.7389 63.3349 47.4769 64.6769 47.4769Z" fill="black"/>
<path d="M76.7344 44.7709L78.8492 38.4977H80.9843L76.5311 51.2695C76.0227 52.7045 75.3924 53.2581 73.7453 53.2581H72.4642V51.4335H74.2536L74.8637 49.6295L71.0205 38.4977H73.2369L75.3517 44.7709L75.9617 47.0874H76.0634L76.7344 44.7709Z" fill="black"/>
<defs>
<clipPath id="clip0_2828_42310">
<rect width="324.242" height="59.9492" fill="white" transform="translate(94.7585 0.0507812)"/>
</clipPath>
</defs>
</svg>
