<svg width="353" height="85" viewBox="0 0 353 85" fill="none" xmlns="http://www.w3.org/2000/svg">
<rect x="121.494" y="31.9194" width="16.2508" height="39.705" fill="white"/>
<path d="M0.257812 73.136V30.4939C0.257812 28.9044 1.05837 28.1155 2.65359 28.1155H11.3125C18.7706 28.1155 22.5026 32.0133 22.5026 39.8498V44.5131C22.5026 52.3146 18.7765 56.2124 11.3125 56.2124H7.75123V73.136C7.75123 74.7196 6.95067 75.5144 5.38488 75.5144H2.65359C1.05248 75.5144 0.257812 74.7196 0.257812 73.136ZM11.2772 49.4336C12.5075 49.4336 13.4434 49.1005 14.0379 48.4109C14.6324 47.7214 14.9385 46.5585 14.9385 44.9397V39.318C14.9385 37.6993 14.6383 36.5422 14.0379 35.8819C13.4375 35.2215 12.5369 34.8884 11.3066 34.8884H7.74534V49.4687L11.2772 49.4336Z" fill="white"/>
<path d="M26.5642 73.136V30.4939C26.5642 28.9044 27.3648 28.1155 28.96 28.1155H31.6913C33.2865 28.1155 34.0871 28.9102 34.0576 30.4939V68.7356H44.0116C45.6127 68.7356 46.4073 69.5304 46.4073 71.114V73.1301C46.4073 74.7138 45.6068 75.5085 44.0116 75.5085H28.96C27.3589 75.5085 26.5642 74.7138 26.5642 73.1301V73.136Z" fill="white"/>
<path d="M50.7044 75.5144C49.2034 75.5144 48.4735 74.854 48.5088 73.4983C48.5088 73.3639 48.5441 73.1652 48.5736 72.8672L55.7314 30.2952C55.9669 28.8401 56.7969 28.1155 58.2626 28.1155H64.0548C65.5205 28.1155 66.3505 28.846 66.5507 30.2952L73.7086 72.8672C73.7439 73.1301 73.7733 73.3288 73.8086 73.4983C73.8086 74.854 73.0434 75.5144 71.5424 75.5144H68.8817C67.3159 75.5144 66.4506 74.7898 66.2858 73.3347L65.2851 66.0942V66.2286H56.4614L55.4607 73.3347C55.2958 74.7898 54.4305 75.5144 52.8648 75.5144H50.6985H50.7044ZM64.355 59.8122L60.8585 36.3786H60.7231L57.3267 59.8122H64.355Z" fill="white"/>
<path d="M77.6054 73.136V30.4939C77.6054 28.9044 78.4059 28.1155 80.0011 28.1155H84.8928C86.3585 28.1155 87.2591 28.8109 87.5534 30.1666L94.311 56.5104H94.4464V30.4939C94.4464 28.9044 95.247 28.1155 96.8422 28.1155H98.7376C100.333 28.1155 101.133 28.9102 101.133 30.4939V73.136C101.133 74.7196 100.333 75.5144 98.7376 75.5144H95.5413C94.0756 75.5144 93.1749 74.854 92.8747 73.4983L84.416 40.9075H84.2806V73.136C84.2806 74.7196 83.48 75.5144 81.8848 75.5144H79.9894C78.3883 75.5144 77.5936 74.7196 77.5936 73.136H77.6054Z" fill="white"/>
<path d="M156.024 73.136V30.4939C156.024 28.9044 156.825 28.1155 158.42 28.1155H163.312C164.777 28.1155 165.678 28.8109 165.978 30.1666L172.736 56.5104H172.871V30.4939C172.871 28.9044 173.672 28.1155 175.267 28.1155H177.162C178.758 28.1155 179.558 28.9102 179.558 30.4939V73.136C179.558 74.7196 178.758 75.5144 177.162 75.5144H173.966C172.5 75.5144 171.6 74.854 171.3 73.4983L162.841 40.9075H162.705V73.136C162.705 74.7196 161.905 75.5144 160.31 75.5144H158.414C156.813 75.5144 156.018 74.7196 156.018 73.136H156.024Z" fill="white"/>
<path d="M185.127 73.136V30.4939C185.127 28.9044 185.927 28.1155 187.522 28.1155H203.204C204.799 28.1155 205.6 28.9102 205.57 30.4939V32.5451C205.57 34.1287 204.77 34.9235 203.204 34.8943H192.614V47.4233H200.537C202.133 47.4233 202.933 48.2181 202.904 49.8018V51.8179C202.904 53.4015 202.103 54.1963 200.537 54.1963H192.614V68.7414H203.204C204.799 68.7414 205.6 69.5362 205.57 71.1199V73.136C205.57 74.7196 204.77 75.5144 203.204 75.5144H187.522C185.927 75.5144 185.127 74.7196 185.127 73.136Z" fill="white"/>
<path d="M215.724 73.136V34.8884H210.262C208.667 34.8884 207.866 34.0937 207.895 32.5392V30.4881C207.895 28.8985 208.696 28.1096 210.262 28.1096H228.674C230.276 28.1096 231.07 28.9044 231.07 30.4881V32.5392C231.07 34.1229 230.27 34.9176 228.674 34.8884H223.212V73.136C223.212 74.7196 222.411 75.5144 220.846 75.5144H218.114C216.519 75.5144 215.718 74.7196 215.718 73.136H215.724Z" fill="white"/>
<path d="M237.734 73.2645L233.372 31.1835L233.307 30.2894C233.307 28.8343 234.043 28.1096 235.538 28.1096H238.004C239.505 28.1096 240.335 28.8693 240.471 30.3595L243.667 64.5398H243.803L247.234 30.3595C247.37 28.8693 248.164 28.1096 249.665 28.1096H253.362C254.863 28.1096 255.693 28.8693 255.829 30.3595L259.225 64.5398H259.36L262.557 30.3595C262.692 28.8693 263.522 28.1096 265.023 28.1096H266.718C268.214 28.1096 268.985 28.8401 268.985 30.2894L268.92 31.1835L264.558 73.2645C264.423 74.7547 263.593 75.5144 262.092 75.5144H257.265C255.699 75.5144 254.869 74.7547 254.734 73.2645L251.537 43.5489H251.402L248.17 73.2645C248.035 74.7547 247.205 75.5144 245.674 75.5144H240.212C238.717 75.5144 237.881 74.7547 237.745 73.2645H237.734Z" fill="white"/>
<path d="M283.654 76.1747C279.992 76.1747 277.196 75.1521 275.23 73.0659C273.264 70.9796 272.299 68.0402 272.299 64.2417V39.318C272.299 35.5196 273.264 32.5743 275.23 30.4939C277.196 28.4135 280.028 27.385 283.689 27.385C287.35 27.385 290.182 28.4077 292.148 30.4939C294.114 32.5743 295.109 35.5196 295.109 39.318V64.2417C295.109 68.0402 294.143 70.9855 292.177 73.0659C290.211 75.1462 287.38 76.1747 283.718 76.1747H283.654ZM287.55 64.7385V38.8914C287.55 35.7825 286.25 34.2281 283.654 34.2281C281.058 34.2281 279.757 35.7825 279.757 38.8914V64.7385C279.757 67.8766 281.058 69.431 283.654 69.431C286.25 69.431 287.55 67.8766 287.55 64.7385Z" fill="white"/>
<path d="M302.531 75.5144C300.936 75.5144 300.136 74.7196 300.136 73.136V30.4939C300.136 28.9044 300.936 28.1155 302.531 28.1155H311.255C315.117 28.1155 317.948 29.0096 319.714 30.7919C321.48 32.5743 322.374 35.3209 322.374 39.02V41.9302C322.374 46.8565 320.744 49.9654 317.448 51.2861V51.4205C320.779 52.4431 322.439 55.7858 322.439 61.4367V69.7641C322.439 71.2484 322.504 72.312 322.639 72.9373C322.739 73.3697 322.775 73.6619 322.775 73.8314C322.775 74.9534 322.074 75.5144 320.709 75.5144H317.712C316.117 75.5144 315.246 74.854 315.146 73.4983C315.011 72.6743 314.946 71.4179 314.91 69.6998V61.0393C314.91 58.8888 314.575 57.3695 313.88 56.5104C313.18 55.6514 311.985 55.2189 310.248 55.2189H307.653V73.136C307.653 74.7196 306.852 75.5144 305.286 75.5144H302.525H302.531ZM310.39 48.4402C311.891 48.4402 313.021 48.0428 313.751 47.2831C314.481 46.5234 314.852 45.2319 314.852 43.4145V39.7797C314.852 36.5422 313.586 34.9235 311.055 34.8884H307.623V48.4402H310.39Z" fill="white"/>
<path d="M327.637 73.136V30.4939C327.637 28.9044 328.437 28.1155 330.033 28.1155H332.764C334.365 28.1155 335.16 28.9102 335.13 30.4939V48.1129L344.089 29.8978C344.69 28.7408 345.62 28.1447 346.886 28.1155H349.181C350.582 28.1155 351.277 28.6473 351.312 29.705C351.312 30.0673 351.177 30.4647 350.947 30.8971L343.254 45.5416L351.642 72.6159C351.777 73.0133 351.842 73.4106 351.842 73.7729C351.842 74.93 351.141 75.5261 349.746 75.5261H346.785C345.385 75.5261 344.49 74.8657 344.089 73.5743L338.132 54.4008L335.136 60.4141V73.1418C335.136 74.7255 334.336 75.5202 332.77 75.5202H330.039C328.443 75.5202 327.643 74.7255 327.643 73.1418L327.637 73.136Z" fill="white"/>
<path d="M129.271 53.1209H127.269V61.7639H129.842C130.613 61.7639 131.19 61.5477 131.566 61.1328C131.943 60.7179 132.137 59.9932 132.137 58.9706V56.5162C132.137 55.2364 131.92 54.354 131.466 53.8631C131.013 53.3722 130.277 53.1151 129.271 53.1151V53.1209Z" fill="url(#paint0_radial_2828_42454)"/>
<path d="M131.013 48.405C131.449 47.955 131.667 47.1895 131.667 46.1259V44.554C131.667 42.6314 130.913 41.6671 129.412 41.6438H127.258V49.0887H129.018C129.906 49.0887 130.583 48.855 131.019 48.3992L131.013 48.405Z" fill="url(#paint1_radial_2828_42454)"/>
<path d="M129.406 19.0283C122.03 19.0283 116.044 24.9656 116.044 32.2937V70.477C116.044 77.7992 122.025 83.7423 129.406 83.7423C136.782 83.7423 142.768 77.8051 142.768 70.477V32.2937C142.768 24.9714 136.788 19.0283 129.406 19.0283ZM136.576 59.1108C136.576 61.2905 135.999 62.9443 134.857 64.0839C134.139 64.7968 133.215 65.2818 132.084 65.5507V66.5499C132.084 67.2629 131.496 67.8473 130.778 67.8473C130.06 67.8473 129.465 67.2629 129.465 66.5499V65.7903H127.258V66.5499C127.258 67.2629 126.669 67.8473 125.951 67.8473C125.233 67.8473 124.644 67.2629 124.644 66.5499V65.7903H124.238C123.29 65.7903 122.813 65.3169 122.813 64.3761V39.0316C122.813 38.0907 123.29 37.6174 124.238 37.6174H124.644V36.2149C124.644 35.5019 125.233 34.9176 125.951 34.9176C126.669 34.9176 127.258 35.5019 127.258 36.2149V37.6174H129.465V36.2149C129.465 35.5019 130.054 34.9176 130.778 34.9176C131.502 34.9176 132.084 35.5019 132.084 36.2149V37.7343C132.084 37.7927 132.073 37.8453 132.067 37.8979C133.109 38.155 133.945 38.5875 134.563 39.2069C135.61 40.2705 136.146 41.9009 136.146 44.0981V45.2201C136.146 48.107 135.175 49.9536 133.256 50.7425V50.8185C135.475 51.5665 136.582 53.53 136.582 56.6915V59.1108H136.576Z" fill="url(#paint2_radial_2828_42454)"/>
<path d="M3.62154 13.468H1.56494V0.7644H7.02494C9.35454 0.7644 10.7195 2.275 10.7195 4.5864C10.7195 6.8978 9.35454 8.4084 7.02494 8.4084H3.62154V13.468ZM3.62154 2.5662V6.6066H6.89754C7.93494 6.6066 8.55374 6.0424 8.55374 5.0232V4.1496C8.55374 3.1304 7.93494 2.5662 6.89754 2.5662H3.62154Z" fill="white"/>
<path d="M16.5512 13.6864C13.9122 13.6864 12.2014 11.7572 12.2014 8.736C12.2014 5.7148 13.9122 3.7856 16.5512 3.7856C19.1902 3.7856 20.901 5.7148 20.901 8.736C20.901 11.7572 19.1902 13.6864 16.5512 13.6864ZM16.5512 12.0484C17.898 12.0484 18.808 11.2112 18.808 9.5368V7.9352C18.808 6.2608 17.898 5.4236 16.5512 5.4236C15.2044 5.4236 14.2944 6.2608 14.2944 7.9352V9.5368C14.2944 11.2112 15.2044 12.0484 16.5512 12.0484Z" fill="white"/>
<path d="M24.9891 13.468L22.4047 4.004H24.3339L25.2985 7.9716L26.1539 11.557H26.2085L27.1913 7.9716L28.3379 4.004H30.1215L31.2863 7.9716L32.2873 11.557H32.3419L33.1791 7.9716L34.1619 4.004H36.0001L33.4521 13.468H31.2135L29.2115 6.4974H29.1751L28.4289 9.1546L27.1731 13.468H24.9891Z" fill="white"/>
<path d="M41.8421 13.6864C39.1485 13.6864 37.4923 11.7572 37.4923 8.736C37.4923 5.7148 39.1485 3.7856 41.8421 3.7856C44.6267 3.7856 46.0463 5.8786 46.0463 8.4994V9.2456H39.5489V9.555C39.5489 11.011 40.4407 12.0484 42.0423 12.0484C43.2071 12.0484 43.9897 11.5024 44.5357 10.6288L45.7005 11.7754C44.9907 12.922 43.6075 13.6864 41.8421 13.6864ZM41.8421 5.3326C40.4771 5.3326 39.5489 6.3518 39.5489 7.8078V7.9352H43.9533V7.7532C43.9533 6.2972 43.1525 5.3326 41.8421 5.3326Z" fill="white"/>
<path d="M50.5902 13.468H48.6064V4.004H50.5902V5.824H50.6812C50.9542 4.8594 51.7732 4.004 53.2838 4.004H53.8116V5.915H53.029C51.4638 5.915 50.5902 6.4428 50.5902 7.4256V13.468Z" fill="white"/>
<path d="M59.5615 13.6864C56.8679 13.6864 55.2117 11.7572 55.2117 8.736C55.2117 5.7148 56.8679 3.7856 59.5615 3.7856C62.3461 3.7856 63.7657 5.8786 63.7657 8.4994V9.2456H57.2683V9.555C57.2683 11.011 58.1601 12.0484 59.7617 12.0484C60.9265 12.0484 61.7091 11.5024 62.2551 10.6288L63.4199 11.7754C62.7101 12.922 61.3269 13.6864 59.5615 13.6864ZM59.5615 5.3326C58.1965 5.3326 57.2683 6.3518 57.2683 7.8078V7.9352H61.6727V7.7532C61.6727 6.2972 60.8719 5.3326 59.5615 5.3326Z" fill="white"/>
<path d="M72.2772 13.468V11.9028H72.1862C71.7858 13.013 70.7848 13.6864 69.529 13.6864C67.1448 13.6864 65.7616 11.8482 65.7616 8.736C65.7616 5.6238 67.1448 3.7856 69.529 3.7856C70.7848 3.7856 71.7858 4.4408 72.1862 5.5692H72.2772V0H74.261V13.468H72.2772ZM70.1296 11.9756C71.3308 11.9756 72.2772 11.3204 72.2772 10.3558V7.1162C72.2772 6.1516 71.3308 5.4964 70.1296 5.4964C68.7646 5.4964 67.8546 6.461 67.8546 7.917V9.555C67.8546 11.011 68.7646 11.9756 70.1296 11.9756Z" fill="white"/>
<path d="M82.1257 13.468V0H84.1095V5.5692H84.2005C84.6009 4.4408 85.6019 3.7856 86.8577 3.7856C89.2419 3.7856 90.6251 5.6238 90.6251 8.736C90.6251 11.8482 89.2419 13.6864 86.8577 13.6864C85.6019 13.6864 84.6009 13.013 84.2005 11.9028H84.1095V13.468H82.1257ZM86.2571 11.9756C87.6221 11.9756 88.5321 11.011 88.5321 9.555V7.917C88.5321 6.461 87.6221 5.4964 86.2571 5.4964C85.0559 5.4964 84.1095 6.1516 84.1095 7.1162V10.3558C84.1095 11.3204 85.0559 11.9756 86.2571 11.9756Z" fill="white"/>
<path d="M97.049 9.5732L98.9418 4.004H100.853L96.867 15.3426C96.412 16.6166 95.8478 17.108 94.3736 17.108H93.227V15.4882H94.8286L95.3746 13.8866L91.9348 4.004H93.9186L95.8114 9.5732L96.3574 11.6298H96.4484L97.049 9.5732Z" fill="white"/>
<defs>
<radialGradient id="paint0_radial_2828_42454" cx="0" cy="0" r="1" gradientUnits="userSpaceOnUse" gradientTransform="translate(123.558 27.5365) rotate(85.8219) scale(40.7156 16.8139)">
<stop stop-color="#FF9900"/>
<stop offset="1" stop-color="#FF5C00"/>
</radialGradient>
<radialGradient id="paint1_radial_2828_42454" cx="0" cy="0" r="1" gradientUnits="userSpaceOnUse" gradientTransform="translate(123.558 27.5365) rotate(85.8219) scale(40.7156 16.8139)">
<stop stop-color="#FF9900"/>
<stop offset="1" stop-color="#FF5C00"/>
</radialGradient>
<radialGradient id="paint2_radial_2828_42454" cx="0" cy="0" r="1" gradientUnits="userSpaceOnUse" gradientTransform="translate(123.558 27.5365) rotate(85.8219) scale(40.7156 16.8139)">
<stop stop-color="#FF9900"/>
<stop offset="1" stop-color="#FF5C00"/>
</radialGradient>
</defs>
</svg>
