<svg width="419" height="61" viewBox="0 0 419 61" fill="none" xmlns="http://www.w3.org/2000/svg">
<g clip-path="url(#clip0_2828_42372)">
<rect x="206.402" y="11.8984" width="14.965" height="36.4908" fill="white"/>
<path d="M94.9961 50.0151V10.825C94.9961 9.36416 95.7333 8.63911 97.2023 8.63911H105.176C112.044 8.63911 115.481 12.2214 115.481 19.4235V23.7093C115.481 30.8793 112.05 34.4615 105.176 34.4615H101.897V50.0151C101.897 51.4706 101.159 52.201 99.7175 52.201H97.2023C95.7279 52.201 94.9961 51.4706 94.9961 50.0151ZM105.144 28.2315C106.277 28.2315 107.138 27.9254 107.686 27.2916C108.233 26.6579 108.515 25.5891 108.515 24.1014V18.9348C108.515 17.4471 108.239 16.3837 107.686 15.7768C107.133 15.1699 106.304 14.8638 105.171 14.8638H101.891V28.2637L105.144 28.2315Z" fill="white"/>
<path d="M119.221 50.0151V10.825C119.221 9.36416 119.958 8.63911 121.427 8.63911H123.943C125.412 8.63911 126.149 9.36953 126.122 10.825V45.971H135.288C136.762 45.971 137.494 46.7014 137.494 48.1569V50.0097C137.494 51.4652 136.757 52.1956 135.288 52.1956H121.427C119.953 52.1956 119.221 51.4652 119.221 50.0097V50.0151Z" fill="white"/>
<path d="M141.451 52.201C140.069 52.201 139.397 51.5941 139.429 50.3481C139.429 50.2246 139.462 50.042 139.489 49.7681L146.081 10.6424C146.297 9.30508 147.062 8.63911 148.411 8.63911H153.745C155.095 8.63911 155.859 9.31045 156.044 10.6424L162.635 49.7681C162.668 50.0097 162.695 50.1924 162.727 50.3481C162.727 51.5941 162.023 52.201 160.641 52.201H158.19C156.748 52.201 155.952 51.535 155.8 50.1977L154.878 43.5434V43.6669H146.753L145.831 50.1977C145.679 51.535 144.883 52.201 143.441 52.201H141.446H141.451ZM154.022 37.7699L150.802 16.2333H150.677L147.55 37.7699H154.022Z" fill="white"/>
<path d="M166.224 50.0151V10.825C166.224 9.36416 166.961 8.63911 168.43 8.63911H172.935C174.284 8.63911 175.114 9.27823 175.385 10.5242L181.608 34.7354H181.732V10.825C181.732 9.36416 182.47 8.63911 183.939 8.63911H185.684C187.153 8.63911 187.89 9.36953 187.89 10.825V50.0151C187.89 51.4706 187.153 52.201 185.684 52.201H182.741C181.391 52.201 180.562 51.5941 180.285 50.3481L172.496 20.3956H172.371V50.0151C172.371 51.4706 171.634 52.201 170.165 52.201H168.419C166.945 52.201 166.213 51.4706 166.213 50.0151H166.224Z" fill="white"/>
<path d="M238.438 50.0151V10.825C238.438 9.36416 239.175 8.63911 240.644 8.63911H245.149C246.499 8.63911 247.328 9.27823 247.605 10.5242L253.827 34.7354H253.952V10.825C253.952 9.36416 254.689 8.63911 256.158 8.63911H257.904C259.373 8.63911 260.11 9.36953 260.11 10.825V50.0151C260.11 51.4706 259.373 52.201 257.904 52.201H254.96C253.611 52.201 252.781 51.5941 252.505 50.3481L244.715 20.3956H244.591V50.0151C244.591 51.4706 243.853 52.201 242.384 52.201H240.639C239.165 52.201 238.433 51.4706 238.433 50.0151H238.438Z" fill="white"/>
<path d="M265.238 50.0151V10.825C265.238 9.36416 265.975 8.63911 267.444 8.63911H281.885C283.354 8.63911 284.091 9.36953 284.064 10.825V12.7101C284.064 14.1656 283.327 14.896 281.885 14.8691H272.133V26.384H279.429C280.898 26.384 281.636 27.1144 281.608 28.5698V30.4227C281.608 31.8782 280.871 32.6086 279.429 32.6086H272.133V45.9763H281.885C283.354 45.9763 284.091 46.7068 284.064 48.1622V50.0151C284.064 51.4706 283.327 52.201 281.885 52.201H267.444C265.975 52.201 265.238 51.4706 265.238 50.0151Z" fill="white"/>
<path d="M293.415 50.0151V14.8638H288.384C286.915 14.8638 286.178 14.1334 286.205 12.7047V10.8196C286.205 9.35879 286.942 8.63374 288.384 8.63374H305.34C306.815 8.63374 307.546 9.36416 307.546 10.8196V12.7047C307.546 14.1602 306.809 14.8906 305.34 14.8638H300.31V50.0151C300.31 51.4706 299.573 52.201 298.131 52.201H295.615C294.146 52.201 293.409 51.4706 293.409 50.0151H293.415Z" fill="white"/>
<path d="M313.683 50.1333L309.666 11.4587L309.606 10.637C309.606 9.29971 310.284 8.63374 311.661 8.63374H313.932C315.314 8.63374 316.079 9.33194 316.203 10.7015L319.147 42.1148H319.271L322.432 10.7015C322.556 9.33194 323.288 8.63374 324.67 8.63374H328.075C329.457 8.63374 330.221 9.33194 330.346 10.7015L333.474 42.1148H333.598L336.542 10.7015C336.666 9.33194 337.431 8.63374 338.813 8.63374H340.374C341.751 8.63374 342.461 9.30508 342.461 10.637L342.401 11.4587L338.385 50.1333C338.26 51.5028 337.496 52.201 336.113 52.201H331.668C330.227 52.201 329.462 51.5028 329.338 50.1333L326.394 22.8232H326.269L323.293 50.1333C323.169 51.5028 322.404 52.201 320.995 52.201H315.965C314.588 52.201 313.818 51.5028 313.693 50.1333H313.683Z" fill="white"/>
<path d="M355.969 52.8079C352.598 52.8079 350.023 51.868 348.212 49.9507C346.402 48.0333 345.513 45.3319 345.513 41.8409V18.9348C345.513 15.4438 346.402 12.737 348.212 10.825C350.023 8.91302 352.63 7.96777 356.002 7.96777C359.374 7.96777 361.981 8.90765 363.791 10.825C365.602 12.737 366.518 15.4438 366.518 18.9348V41.8409C366.518 45.3319 365.629 48.0387 363.818 49.9507C362.008 51.8626 359.401 52.8079 356.029 52.8079H355.969ZM359.558 42.2974V18.5427C359.558 15.6855 358.36 14.2569 355.969 14.2569C353.579 14.2569 352.381 15.6855 352.381 18.5427V42.2974C352.381 45.1815 353.579 46.6101 355.969 46.6101C358.36 46.6101 359.558 45.1815 359.558 42.2974Z" fill="white"/>
<path d="M373.353 52.201C371.884 52.201 371.147 51.4706 371.147 50.0151V10.825C371.147 9.36416 371.884 8.63911 373.353 8.63911H381.387C384.943 8.63911 387.55 9.46083 389.176 11.0989C390.803 12.737 391.627 15.2612 391.627 18.6609V21.3355C391.627 25.863 390.125 28.7202 387.089 29.934V30.0575C390.158 30.9974 391.686 34.0695 391.686 39.2629V46.9162C391.686 48.2804 391.746 49.2578 391.87 49.8325C391.963 50.2299 391.995 50.4985 391.995 50.6542C391.995 51.6854 391.35 52.201 390.093 52.201H387.333C385.864 52.201 385.062 51.5941 384.97 50.3481C384.845 49.5908 384.786 48.4361 384.753 46.8571V38.8977C384.753 36.9213 384.444 35.5249 383.805 34.7354C383.159 33.9459 382.059 33.5485 380.46 33.5485H378.069V50.0151C378.069 51.4706 377.332 52.201 375.89 52.201H373.348H373.353ZM380.59 27.3185C381.972 27.3185 383.013 26.9533 383.685 26.2551C384.357 25.5569 384.699 24.3699 384.699 22.6996V19.3591C384.699 16.3837 383.533 14.896 381.203 14.8638H378.042V27.3185H380.59Z" fill="white"/>
<path d="M396.473 50.0151V10.825C396.473 9.36416 397.21 8.63911 398.679 8.63911H401.194C402.669 8.63911 403.4 9.36953 403.373 10.825V27.0177L411.623 10.2772C412.176 9.21378 413.033 8.66597 414.198 8.63911H416.312C417.603 8.63911 418.242 9.12785 418.275 10.0999C418.275 10.4329 418.15 10.7981 417.939 11.1956L410.854 24.6546L418.578 49.5371C418.703 49.9023 418.763 50.2675 418.763 50.6005C418.763 51.6639 418.117 52.2117 416.833 52.2117H414.106C412.816 52.2117 411.992 51.6048 411.623 50.4179L406.138 32.7966L403.379 38.3231V50.0205C403.379 51.476 402.641 52.2064 401.2 52.2064H398.684C397.215 52.2064 396.478 51.476 396.478 50.0205L396.473 50.0151Z" fill="white"/>
<path d="M213.801 31.6206H211.958V39.5639H214.327C215.037 39.5639 215.568 39.3652 215.915 38.9839C216.262 38.6025 216.441 37.9366 216.441 36.9967V34.741C216.441 33.5648 216.24 32.7538 215.823 32.3027C215.406 31.8515 214.728 31.6152 213.801 31.6152V31.6206Z" fill="#FF5C00"/>
<path d="M215.406 27.2864C215.807 26.8729 216.007 26.1693 216.007 25.1919V23.7471C216.007 21.9802 215.313 21.094 213.931 21.0725H211.947V27.9148H213.568C214.387 27.9148 215.01 27.7 215.411 27.2811L215.406 27.2864Z" fill="#FF5C00"/>
<path d="M213.926 0.287842C207.134 0.287842 201.621 5.74449 201.621 12.4794V47.5716C201.621 54.3011 207.128 59.7632 213.926 59.7632C220.718 59.7632 226.231 54.3065 226.231 47.5716V12.4794C226.231 5.74986 220.723 0.287842 213.926 0.287842ZM220.528 37.1256C220.528 39.1289 219.997 40.6488 218.945 41.6961C218.284 42.3513 217.433 42.7971 216.392 43.0441V43.9625C216.392 44.6177 215.85 45.1548 215.189 45.1548C214.527 45.1548 213.98 44.6177 213.98 43.9625V43.2643H211.947V43.9625C211.947 44.6177 211.405 45.1548 210.744 45.1548C210.083 45.1548 209.54 44.6177 209.54 43.9625V43.2643H209.166C208.294 43.2643 207.855 42.8293 207.855 41.9646V18.6718C207.855 17.8071 208.294 17.3721 209.166 17.3721H209.54V16.0831C209.54 15.4279 210.083 14.8908 210.744 14.8908C211.405 14.8908 211.947 15.4279 211.947 16.0831V17.3721H213.98V16.0831C213.98 15.4279 214.522 14.8908 215.189 14.8908C215.856 14.8908 216.392 15.4279 216.392 16.0831V17.4795C216.392 17.5332 216.381 17.5816 216.376 17.6299C217.335 17.8662 218.105 18.2636 218.674 18.8329C219.639 19.8104 220.132 21.3088 220.132 23.3282V24.3594C220.132 27.0125 219.238 28.7097 217.471 29.4347V29.5045C219.515 30.192 220.534 31.9966 220.534 34.9021V37.1256H220.528Z" fill="#FF5C00"/>
</g>
<path d="M2.29779 24.5576H0V10.2482H6.10033C8.70313 10.2482 10.2282 11.9498 10.2282 14.5533C10.2282 17.1569 8.70313 18.8584 6.10033 18.8584H2.29779V24.5576ZM2.29779 12.2778V16.8289H5.95798C7.11705 16.8289 7.80842 16.1934 7.80842 15.0453V14.0613C7.80842 12.9133 7.11705 12.2778 5.95798 12.2778H2.29779Z" fill="white"/>
<path d="M16.7438 24.8036C13.7953 24.8036 11.8839 22.6305 11.8839 19.2274C11.8839 15.8244 13.7953 13.6513 16.7438 13.6513C19.6923 13.6513 21.6037 15.8244 21.6037 19.2274C21.6037 22.6305 19.6923 24.8036 16.7438 24.8036ZM16.7438 22.9585C18.2486 22.9585 19.2653 22.0155 19.2653 20.1295V18.3254C19.2653 16.4394 18.2486 15.4963 16.7438 15.4963C15.2391 15.4963 14.2223 16.4394 14.2223 18.3254V20.1295C14.2223 22.0155 15.2391 22.9585 16.7438 22.9585Z" fill="white"/>
<path d="M26.1712 24.5576L23.2837 13.8973H25.4392L26.5169 18.3664L27.4726 22.405H27.5336L28.6317 18.3664L29.9127 13.8973H31.9055L33.2069 18.3664L34.3253 22.405H34.3863L35.3217 18.3664L36.4197 13.8973H38.4735L35.6267 24.5576H33.1256L30.8888 16.7059H30.8481L30.0144 19.6989L28.6113 24.5576H26.1712Z" fill="white"/>
<path d="M45.0007 24.8036C41.9912 24.8036 40.1408 22.6305 40.1408 19.2274C40.1408 15.8244 41.9912 13.6513 45.0007 13.6513C48.1119 13.6513 49.698 16.0089 49.698 18.9609V19.8014H42.4386V20.15C42.4386 21.79 43.435 22.9585 45.2244 22.9585C46.5258 22.9585 47.4002 22.3435 48.0102 21.3595L49.3116 22.651C48.5186 23.9425 46.9731 24.8036 45.0007 24.8036ZM45.0007 15.3938C43.4756 15.3938 42.4386 16.5419 42.4386 18.1819V18.3254H47.3595V18.1204C47.3595 16.4804 46.4648 15.3938 45.0007 15.3938Z" fill="white"/>
<path d="M54.7747 24.5576H52.5583V13.8973H54.7747V15.9474H54.8764C55.1814 14.8608 56.0965 13.8973 57.7842 13.8973H58.3739V16.0499H57.4995C55.7508 16.0499 54.7747 16.6444 54.7747 17.7514V24.5576Z" fill="white"/>
<path d="M64.7982 24.8036C61.7887 24.8036 59.9382 22.6305 59.9382 19.2274C59.9382 15.8244 61.7887 13.6513 64.7982 13.6513C67.9093 13.6513 69.4954 16.0089 69.4954 18.9609V19.8014H62.236V20.15C62.236 21.79 63.2324 22.9585 65.0218 22.9585C66.3232 22.9585 67.1976 22.3435 67.8077 21.3595L69.1091 22.651C68.316 23.9425 66.7706 24.8036 64.7982 24.8036ZM64.7982 15.3938C63.2731 15.3938 62.236 16.5419 62.236 18.1819V18.3254H67.157V18.1204C67.157 16.4804 66.2622 15.3938 64.7982 15.3938Z" fill="white"/>
<path d="M79.0051 24.5576V22.7945H78.9034C78.4561 24.045 77.3377 24.8036 75.9346 24.8036C73.2708 24.8036 71.7254 22.733 71.7254 19.2274C71.7254 15.7219 73.2708 13.6513 75.9346 13.6513C77.3377 13.6513 78.4561 14.3893 78.9034 15.6604H79.0051V9.38721H81.2215L80.9843 13.6513L81.2215 24.5576H79.0051ZM76.6056 22.8765C77.9477 22.8765 79.0051 22.1385 79.0051 21.052V17.4029C79.0051 16.3164 77.9477 15.5783 76.6056 15.5783C75.0805 15.5783 74.0638 16.6649 74.0638 18.3049V20.15C74.0638 21.79 75.0805 22.8765 76.6056 22.8765Z" fill="white"/>
<path d="M60.061 49.1581V33.9877H62.2775V40.2609H62.3791C62.8265 38.9899 63.9449 38.2518 65.348 38.2518C68.0118 38.2518 69.5572 40.3224 69.5572 43.828C69.5572 47.3335 68.0118 49.4041 65.348 49.4041C63.9449 49.4041 62.8265 48.6456 62.3791 47.395H62.2775V49.1581H60.061ZM64.6769 47.477C66.202 47.477 67.2187 46.3905 67.2187 44.7505V42.9054C67.2187 41.2654 66.202 40.1789 64.6769 40.1789C63.3349 40.1789 62.2775 40.9169 62.2775 42.0034V45.6525C62.2775 46.739 63.3349 47.477 64.6769 47.477Z" fill="white"/>
<path d="M76.7344 44.771L78.8492 38.4978H80.9843L76.5311 51.2696C76.0227 52.7047 75.3924 53.2582 73.7453 53.2582H72.4642V51.4336H74.2536L74.8637 49.6296L71.0205 38.4978H73.2369L75.3517 44.771L75.9617 47.0875H76.0634L76.7344 44.771Z" fill="white"/>
<defs>
<clipPath id="clip0_2828_42372">
<rect width="324.242" height="59.9492" fill="white" transform="translate(94.7585 0.0507812)"/>
</clipPath>
</defs>
</svg>
