<svg width="419" height="62" viewBox="0 0 419 62" fill="none" xmlns="http://www.w3.org/2000/svg">
<g clip-path="url(#clip0_2828_42373)">
<rect x="206.64" y="13.0398" width="14.965" height="36.5635" fill="white"/>
<path d="M94.9961 50.9951V11.7269C94.9961 10.2632 95.7333 9.53669 97.2023 9.53669H105.176C112.044 9.53669 115.481 13.1261 115.481 20.3426V24.6369C115.481 31.8211 112.05 35.4105 105.176 35.4105H101.897V50.9951C101.897 52.4535 101.159 53.1854 99.7175 53.1854H97.2023C95.7279 53.1854 94.9961 52.4535 94.9961 50.9951ZM105.144 29.1681C106.277 29.1681 107.138 28.8614 107.686 28.2264C108.233 27.5913 108.515 26.5204 108.515 25.0298V19.8529C108.515 18.3622 108.239 17.2967 107.686 16.6886C107.133 16.0805 106.304 15.7738 105.171 15.7738H101.891V29.2004L105.144 29.1681Z" fill="white"/>
<path d="M119.221 50.9951V11.7269C119.221 10.2632 119.958 9.53669 121.427 9.53669H123.943C125.412 9.53669 126.149 10.2686 126.122 11.7269V46.9429H135.288C136.762 46.9429 137.494 47.6748 137.494 49.1332V50.9897C137.494 52.4481 136.757 53.18 135.288 53.18H121.427C119.953 53.18 119.221 52.4481 119.221 50.9897V50.9951Z" fill="white"/>
<path d="M141.451 53.1854C140.069 53.1854 139.397 52.5773 139.429 51.3288C139.429 51.205 139.462 51.022 139.489 50.7476L146.081 11.544C146.297 10.204 147.062 9.53669 148.411 9.53669H153.745C155.095 9.53669 155.859 10.2094 156.044 11.544L162.635 50.7476C162.668 50.9897 162.695 51.1727 162.727 51.3288C162.727 52.5773 162.023 53.1854 160.641 53.1854H158.19C156.748 53.1854 155.952 52.5181 155.8 51.1781L154.878 44.5105V44.6343H146.753L145.831 51.1781C145.679 52.5181 144.883 53.1854 143.441 53.1854H141.446H141.451ZM154.022 38.7255L150.802 17.146H150.677L147.55 38.7255H154.022Z" fill="white"/>
<path d="M166.224 50.9951V11.7269C166.224 10.2632 166.961 9.53669 168.43 9.53669H172.935C174.284 9.53669 175.114 10.1771 175.385 11.4256L181.608 35.685H181.732V11.7269C181.732 10.2632 182.47 9.53669 183.939 9.53669H185.684C187.153 9.53669 187.89 10.2686 187.89 11.7269V50.9951C187.89 52.4535 187.153 53.1854 185.684 53.1854H182.741C181.391 53.1854 180.562 52.5773 180.285 51.3288L172.496 21.3166H172.371V50.9951C172.371 52.4535 171.634 53.1854 170.165 53.1854H168.419C166.945 53.1854 166.213 52.4535 166.213 50.9951H166.224Z" fill="white"/>
<path d="M238.438 50.9951V11.7269C238.438 10.2632 239.175 9.53669 240.644 9.53669H245.149C246.499 9.53669 247.328 10.1771 247.605 11.4256L253.827 35.685H253.952V11.7269C253.952 10.2632 254.689 9.53669 256.158 9.53669H257.904C259.373 9.53669 260.11 10.2686 260.11 11.7269V50.9951C260.11 52.4535 259.373 53.1854 257.904 53.1854H254.96C253.611 53.1854 252.781 52.5773 252.505 51.3288L244.715 21.3166H244.591V50.9951C244.591 52.4535 243.853 53.1854 242.384 53.1854H240.639C239.165 53.1854 238.433 52.4535 238.433 50.9951H238.438Z" fill="white"/>
<path d="M265.238 50.9951V11.7269C265.238 10.2632 265.975 9.53669 267.444 9.53669H281.885C283.354 9.53669 284.091 10.2686 284.064 11.7269V13.6158C284.064 15.0742 283.327 15.806 281.885 15.7791H272.133V27.3169H279.429C280.898 27.3169 281.636 28.0488 281.608 29.5071V31.3637C281.608 32.8221 280.871 33.554 279.429 33.554H272.133V46.9483H281.885C283.354 46.9483 284.091 47.6802 284.064 49.1385V50.9951C284.064 52.4535 283.327 53.1854 281.885 53.1854H267.444C265.975 53.1854 265.238 52.4535 265.238 50.9951Z" fill="white"/>
<path d="M293.415 50.9951V15.7738H288.384C286.915 15.7738 286.178 15.0419 286.205 13.6104V11.7215C286.205 10.2578 286.942 9.53131 288.384 9.53131H305.34C306.815 9.53131 307.546 10.2632 307.546 11.7215V13.6104C307.546 15.0688 306.809 15.8007 305.34 15.7738H300.31V50.9951C300.31 52.4535 299.573 53.1854 298.131 53.1854H295.615C294.146 53.1854 293.409 52.4535 293.409 50.9951H293.415Z" fill="white"/>
<path d="M313.683 51.1135L309.666 12.3619L309.606 11.5386C309.606 10.1986 310.284 9.53131 311.661 9.53131H313.932C315.314 9.53131 316.079 10.2309 316.203 11.6032L319.147 43.0791H319.271L322.432 11.6032C322.556 10.2309 323.288 9.53131 324.67 9.53131H328.075C329.457 9.53131 330.221 10.2309 330.346 11.6032L333.474 43.0791H333.598L336.542 11.6032C336.666 10.2309 337.431 9.53131 338.813 9.53131H340.374C341.751 9.53131 342.461 10.204 342.461 11.5386L342.401 12.3619L338.385 51.1135C338.26 52.4858 337.496 53.1854 336.113 53.1854H331.668C330.227 53.1854 329.462 52.4858 329.338 51.1135L326.394 23.749H326.269L323.293 51.1135C323.169 52.4858 322.404 53.1854 320.995 53.1854H315.965C314.588 53.1854 313.818 52.4858 313.693 51.1135H313.683Z" fill="white"/>
<path d="M355.969 53.7935C352.598 53.7935 350.023 52.8517 348.212 50.9305C346.402 49.0094 345.513 46.3025 345.513 42.8046V19.8529C345.513 16.3549 346.402 13.6427 348.212 11.7269C350.023 9.81114 352.63 8.86401 356.002 8.86401C359.374 8.86401 361.981 9.80576 363.791 11.7269C365.602 13.6427 366.518 16.3549 366.518 19.8529V42.8046C366.518 46.3025 365.629 49.0148 363.818 50.9305C362.008 52.8463 359.401 53.7935 356.029 53.7935H355.969ZM359.558 43.262V19.46C359.558 16.5971 358.36 15.1657 355.969 15.1657C353.579 15.1657 352.381 16.5971 352.381 19.46V43.262C352.381 46.1518 353.579 47.5833 355.969 47.5833C358.36 47.5833 359.558 46.1518 359.558 43.262Z" fill="white"/>
<path d="M373.353 53.1854C371.884 53.1854 371.147 52.4535 371.147 50.9951V11.7269C371.147 10.2632 371.884 9.53669 373.353 9.53669H381.387C384.943 9.53669 387.55 10.36 389.176 12.0014C390.803 13.6427 391.627 16.172 391.627 19.5784V22.2584C391.627 26.7949 390.125 29.6578 387.089 30.874V30.9978C390.158 31.9395 391.686 35.0177 391.686 40.2215V47.89C391.686 49.2569 391.746 50.2363 391.87 50.8122C391.963 51.2104 391.995 51.4795 391.995 51.6355C391.995 52.6687 391.35 53.1854 390.093 53.1854H387.333C385.864 53.1854 385.062 52.5773 384.97 51.3288C384.845 50.57 384.786 49.413 384.753 47.8309V39.8556C384.753 37.8752 384.444 36.4761 383.805 35.685C383.159 34.8939 382.059 34.4957 380.46 34.4957H378.069V50.9951C378.069 52.4535 377.332 53.1854 375.89 53.1854H373.348H373.353ZM380.59 28.2533C381.972 28.2533 383.013 27.8873 383.685 27.1877C384.357 26.4882 384.699 25.2989 384.699 23.6252V20.278C384.699 17.2967 383.533 15.806 381.203 15.7738H378.042V28.2533H380.59Z" fill="white"/>
<path d="M396.473 50.9951V11.7269C396.473 10.2632 397.21 9.53669 398.679 9.53669H401.194C402.669 9.53669 403.4 10.2686 403.373 11.7269V27.9519L411.623 11.178C412.176 10.1125 413.033 9.5636 414.198 9.53669H416.312C417.603 9.53669 418.242 10.0264 418.275 11.0004C418.275 11.3341 418.15 11.7 417.939 12.0982L410.854 25.5841L418.578 50.5162C418.703 50.8821 418.763 51.248 418.763 51.5817C418.763 52.6472 418.117 53.1961 416.833 53.1961H414.106C412.816 53.1961 411.992 52.588 411.623 51.3987L406.138 33.7423L403.379 39.2798V51.0005C403.379 52.4589 402.641 53.1907 401.2 53.1907H398.684C397.215 53.1907 396.478 52.4589 396.478 51.0005L396.473 50.9951Z" fill="white"/>
<path d="M213.801 32.5636H211.958V40.5227H214.327C215.037 40.5227 215.568 40.3236 215.915 39.9416C216.262 39.5595 216.441 38.8922 216.441 37.9504V35.6902C216.441 34.5117 216.24 33.6991 215.823 33.2471C215.406 32.795 214.728 32.5583 213.801 32.5583V32.5636Z" fill="url(#paint0_radial_2828_42373)"/>
<path d="M215.406 28.2208C215.807 27.8065 216.007 27.1015 216.007 26.1221V24.6745C216.007 22.904 215.313 22.0161 213.931 21.9945H211.947V28.8505H213.568C214.387 28.8505 215.01 28.6352 215.411 28.2154L215.406 28.2208Z" fill="url(#paint1_radial_2828_42373)"/>
<path d="M213.926 1.16846C207.134 1.16846 201.621 6.63598 201.621 13.3843V48.5464C201.621 55.2893 207.128 60.7622 213.926 60.7622C220.718 60.7622 226.231 55.2947 226.231 48.5464V13.3843C226.231 6.64136 220.723 1.16846 213.926 1.16846ZM220.528 38.0796C220.528 40.0868 219.997 41.6098 218.945 42.6592C218.284 43.3157 217.433 43.7624 216.392 44.0099V44.9301C216.392 45.5867 215.85 46.1248 215.189 46.1248C214.527 46.1248 213.98 45.5867 213.98 44.9301V44.2305H211.947V44.9301C211.947 45.5867 211.405 46.1248 210.744 46.1248C210.083 46.1248 209.54 45.5867 209.54 44.9301V44.2305H209.166C208.294 44.2305 207.855 43.7946 207.855 42.9282V19.589C207.855 18.7226 208.294 18.2867 209.166 18.2867H209.54V16.9952C209.54 16.3387 210.083 15.8005 210.744 15.8005C211.405 15.8005 211.947 16.3387 211.947 16.9952V18.2867H213.98V16.9952C213.98 16.3387 214.522 15.8005 215.189 15.8005C215.856 15.8005 216.392 16.3387 216.392 16.9952V18.3944C216.392 18.4482 216.381 18.4966 216.376 18.545C217.335 18.7818 218.105 19.1801 218.674 19.7505C219.639 20.7299 220.132 22.2313 220.132 24.2547V25.288C220.132 27.9464 219.238 29.6469 217.471 30.3734V30.4434C219.515 31.1322 220.534 32.9403 220.534 35.8517V38.0796H220.528Z" fill="url(#paint2_radial_2828_42373)"/>
</g>
<path d="M2.29779 25.5576H0V11.2482H6.10033C8.70313 11.2482 10.2282 12.9498 10.2282 15.5533C10.2282 18.1569 8.70313 19.8584 6.10033 19.8584H2.29779V25.5576ZM2.29779 13.2778V17.8289H5.95798C7.11705 17.8289 7.80842 17.1934 7.80842 16.0453V15.0613C7.80842 13.9133 7.11705 13.2778 5.95798 13.2778H2.29779Z" fill="white"/>
<path d="M16.7438 25.8036C13.7953 25.8036 11.8839 23.6305 11.8839 20.2274C11.8839 16.8244 13.7953 14.6513 16.7438 14.6513C19.6923 14.6513 21.6037 16.8244 21.6037 20.2274C21.6037 23.6305 19.6923 25.8036 16.7438 25.8036ZM16.7438 23.9585C18.2486 23.9585 19.2653 23.0155 19.2653 21.1295V19.3254C19.2653 17.4394 18.2486 16.4963 16.7438 16.4963C15.2391 16.4963 14.2223 17.4394 14.2223 19.3254V21.1295C14.2223 23.0155 15.2391 23.9585 16.7438 23.9585Z" fill="white"/>
<path d="M26.1712 25.5576L23.2837 14.8973H25.4392L26.5169 19.3664L27.4726 23.405H27.5336L28.6317 19.3664L29.9127 14.8973H31.9055L33.2069 19.3664L34.3253 23.405H34.3863L35.3217 19.3664L36.4197 14.8973H38.4735L35.6267 25.5576H33.1256L30.8888 17.7059H30.8481L30.0144 20.6989L28.6113 25.5576H26.1712Z" fill="white"/>
<path d="M45.0007 25.8036C41.9912 25.8036 40.1408 23.6305 40.1408 20.2274C40.1408 16.8244 41.9912 14.6513 45.0007 14.6513C48.1119 14.6513 49.698 17.0089 49.698 19.9609V20.8014H42.4386V21.15C42.4386 22.79 43.435 23.9585 45.2244 23.9585C46.5258 23.9585 47.4002 23.3435 48.0102 22.3595L49.3116 23.651C48.5186 24.9425 46.9731 25.8036 45.0007 25.8036ZM45.0007 16.3938C43.4756 16.3938 42.4386 17.5419 42.4386 19.1819V19.3254H47.3595V19.1204C47.3595 17.4804 46.4648 16.3938 45.0007 16.3938Z" fill="white"/>
<path d="M54.7747 25.5576H52.5583V14.8973H54.7747V16.9474H54.8764C55.1814 15.8608 56.0965 14.8973 57.7842 14.8973H58.3739V17.0499H57.4995C55.7508 17.0499 54.7747 17.6444 54.7747 18.7514V25.5576Z" fill="white"/>
<path d="M64.7982 25.8036C61.7887 25.8036 59.9382 23.6305 59.9382 20.2274C59.9382 16.8244 61.7887 14.6513 64.7982 14.6513C67.9093 14.6513 69.4954 17.0089 69.4954 19.9609V20.8014H62.236V21.15C62.236 22.79 63.2324 23.9585 65.0218 23.9585C66.3232 23.9585 67.1976 23.3435 67.8077 22.3595L69.1091 23.651C68.316 24.9425 66.7706 25.8036 64.7982 25.8036ZM64.7982 16.3938C63.2731 16.3938 62.236 17.5419 62.236 19.1819V19.3254H67.157V19.1204C67.157 17.4804 66.2622 16.3938 64.7982 16.3938Z" fill="white"/>
<path d="M79.0051 25.5576V23.7945H78.9034C78.4561 25.045 77.3377 25.8036 75.9346 25.8036C73.2708 25.8036 71.7254 23.733 71.7254 20.2274C71.7254 16.7219 73.2708 14.6513 75.9346 14.6513C77.3377 14.6513 78.4561 15.3893 78.9034 16.6604H79.0051V10.3872H81.2215L80.9843 14.6513L81.2215 25.5576H79.0051ZM76.6056 23.8765C77.9477 23.8765 79.0051 23.1385 79.0051 22.052V18.4029C79.0051 17.3164 77.9477 16.5783 76.6056 16.5783C75.0805 16.5783 74.0638 17.6649 74.0638 19.3049V21.15C74.0638 22.79 75.0805 23.8765 76.6056 23.8765Z" fill="white"/>
<path d="M60.061 50.1581V34.9877H62.2775V41.2609H62.3791C62.8265 39.9899 63.9449 39.2518 65.348 39.2518C68.0118 39.2518 69.5572 41.3224 69.5572 44.828C69.5572 48.3335 68.0118 50.4041 65.348 50.4041C63.9449 50.4041 62.8265 49.6456 62.3791 48.395H62.2775V50.1581H60.061ZM64.6769 48.477C66.202 48.477 67.2187 47.3905 67.2187 45.7505V43.9054C67.2187 42.2654 66.202 41.1789 64.6769 41.1789C63.3349 41.1789 62.2775 41.9169 62.2775 43.0034V46.6525C62.2775 47.739 63.3349 48.477 64.6769 48.477Z" fill="white"/>
<path d="M76.7344 45.771L78.8492 39.4978H80.9843L76.5311 52.2696C76.0227 53.7047 75.3924 54.2582 73.7453 54.2582H72.4642V52.4336H74.2536L74.8637 50.6296L71.0205 39.4978H73.2369L75.3517 45.771L75.9617 48.0875H76.0634L76.7344 45.771Z" fill="white"/>
<defs>
<radialGradient id="paint0_radial_2828_42373" cx="0" cy="0" r="1" gradientUnits="userSpaceOnUse" gradientTransform="translate(208.54 9.0035) rotate(85.8219) scale(37.4942 15.4835)">
<stop stop-color="#FF9900"/>
<stop offset="1" stop-color="#FF5C00"/>
</radialGradient>
<radialGradient id="paint1_radial_2828_42373" cx="0" cy="0" r="1" gradientUnits="userSpaceOnUse" gradientTransform="translate(208.54 9.0035) rotate(85.8219) scale(37.4942 15.4835)">
<stop stop-color="#FF9900"/>
<stop offset="1" stop-color="#FF5C00"/>
</radialGradient>
<radialGradient id="paint2_radial_2828_42373" cx="0" cy="0" r="1" gradientUnits="userSpaceOnUse" gradientTransform="translate(208.54 9.0035) rotate(85.8219) scale(37.4942 15.4835)">
<stop stop-color="#FF9900"/>
<stop offset="1" stop-color="#FF5C00"/>
</radialGradient>
<clipPath id="clip0_2828_42373">
<rect width="324.242" height="60.0686" fill="white" transform="translate(94.7585 0.931152)"/>
</clipPath>
</defs>
</svg>
