<svg width="353" height="104" viewBox="0 0 353 104" fill="none" xmlns="http://www.w3.org/2000/svg">
<g clip-path="url(#clip0_2828_42497)">
<path d="M0.257812 92.9638V50.3217C0.257812 48.7322 1.05837 47.9433 2.65359 47.9433H11.3125C18.7706 47.9433 22.5026 51.8411 22.5026 59.6776V64.3409C22.5026 72.1424 18.7765 76.0402 11.3125 76.0402H7.75123V92.9638C7.75123 94.5474 6.95067 95.3422 5.38488 95.3422H2.65359C1.05248 95.3422 0.257812 94.5474 0.257812 92.9638ZM11.2772 69.2614C12.5075 69.2614 13.4434 68.9283 14.0379 68.2387C14.6324 67.5492 14.9385 66.3863 14.9385 64.7675V59.1458C14.9385 57.5271 14.6383 56.37 14.0379 55.7097C13.4375 55.0493 12.5369 54.7162 11.3066 54.7162H7.74534V69.2965L11.2772 69.2614Z" fill="white"/>
<path d="M26.5642 92.9638V50.3217C26.5642 48.7322 27.3648 47.9433 28.96 47.9433H31.6913C33.2865 47.9433 34.0871 48.738 34.0576 50.3217V88.5634H44.0116C45.6127 88.5634 46.4073 89.3582 46.4073 90.9418V92.9579C46.4073 94.5416 45.6068 95.3363 44.0116 95.3363H28.96C27.3589 95.3363 26.5642 94.5416 26.5642 92.9579V92.9638Z" fill="white"/>
<path d="M50.7044 95.3422C49.2034 95.3422 48.4735 94.6818 48.5088 93.3261C48.5088 93.1917 48.5441 92.993 48.5736 92.6949L55.7314 50.123C55.9669 48.6679 56.7969 47.9433 58.2626 47.9433H64.0548C65.5205 47.9433 66.3505 48.6738 66.5507 50.123L73.7086 92.6949C73.7439 92.9579 73.7733 93.1566 73.8086 93.3261C73.8086 94.6818 73.0434 95.3422 71.5424 95.3422H68.8817C67.3159 95.3422 66.4506 94.6176 66.2858 93.1625L65.2851 85.922V86.0564H56.4614L55.4607 93.1625C55.2958 94.6176 54.4305 95.3422 52.8648 95.3422H50.6985H50.7044ZM64.355 79.6399L60.8585 56.2064H60.7231L57.3267 79.6399H64.355Z" fill="white"/>
<path d="M77.6054 92.9638V50.3217C77.6054 48.7322 78.4059 47.9433 80.0011 47.9433H84.8928C86.3585 47.9433 87.2591 48.6387 87.5534 49.9944L94.311 76.3382H94.4464V50.3217C94.4464 48.7322 95.247 47.9433 96.8422 47.9433H98.7376C100.333 47.9433 101.133 48.738 101.133 50.3217V92.9638C101.133 94.5474 100.333 95.3422 98.7376 95.3422H95.5413C94.0756 95.3422 93.1749 94.6818 92.8747 93.3261L84.416 60.7353H84.2806V92.9638C84.2806 94.5474 83.48 95.3422 81.8848 95.3422H79.9894C78.3883 95.3422 77.5936 94.5474 77.5936 92.9638H77.6054Z" fill="white"/>
<path d="M156.024 92.9638V50.3217C156.024 48.7322 156.825 47.9433 158.42 47.9433H163.312C164.777 47.9433 165.678 48.6387 165.978 49.9944L172.736 76.3382H172.871V50.3217C172.871 48.7322 173.672 47.9433 175.267 47.9433H177.162C178.758 47.9433 179.558 48.738 179.558 50.3217V92.9638C179.558 94.5474 178.758 95.3422 177.162 95.3422H173.966C172.5 95.3422 171.6 94.6818 171.3 93.3261L162.841 60.7353H162.705V92.9638C162.705 94.5474 161.905 95.3422 160.31 95.3422H158.414C156.813 95.3422 156.018 94.5474 156.018 92.9638H156.024Z" fill="white"/>
<path d="M185.127 92.9638V50.3217C185.127 48.7322 185.927 47.9433 187.522 47.9433H203.204C204.799 47.9433 205.6 48.738 205.57 50.3217V52.3729C205.57 53.9565 204.77 54.7513 203.204 54.7221H192.614V67.2511H200.537C202.133 67.2511 202.933 68.0459 202.904 69.6296V71.6457C202.904 73.2293 202.103 74.0241 200.537 74.0241H192.614V88.5692H203.204C204.799 88.5692 205.6 89.364 205.57 90.9477V92.9638C205.57 94.5474 204.77 95.3422 203.204 95.3422H187.522C185.927 95.3422 185.127 94.5474 185.127 92.9638Z" fill="white"/>
<path d="M215.724 92.9638V54.7162H210.262C208.667 54.7162 207.866 53.9215 207.895 52.367V50.3159C207.895 48.7263 208.696 47.9374 210.262 47.9374H228.674C230.276 47.9374 231.07 48.7322 231.07 50.3159V52.367C231.07 53.9507 230.27 54.7454 228.674 54.7162H223.212V92.9638C223.212 94.5474 222.411 95.3422 220.846 95.3422H218.114C216.519 95.3422 215.718 94.5474 215.718 92.9638H215.724Z" fill="white"/>
<path d="M237.734 93.0923L233.372 51.0113L233.307 50.1172C233.307 48.6621 234.043 47.9374 235.538 47.9374H238.004C239.505 47.9374 240.335 48.6971 240.471 50.1873L243.667 84.3676H243.803L247.234 50.1873C247.37 48.6971 248.164 47.9374 249.665 47.9374H253.362C254.863 47.9374 255.693 48.6971 255.829 50.1873L259.225 84.3676H259.36L262.557 50.1873C262.692 48.6971 263.522 47.9374 265.023 47.9374H266.718C268.214 47.9374 268.985 48.6679 268.985 50.1172L268.92 51.0113L264.558 93.0923C264.423 94.5825 263.593 95.3422 262.092 95.3422H257.265C255.699 95.3422 254.869 94.5825 254.734 93.0923L251.537 63.3767H251.402L248.17 93.0923C248.035 94.5825 247.205 95.3422 245.674 95.3422H240.212C238.717 95.3422 237.881 94.5825 237.745 93.0923H237.734Z" fill="white"/>
<path d="M283.654 96.0025C279.992 96.0025 277.196 94.9799 275.23 92.8936C273.264 90.8074 272.299 87.868 272.299 84.0695V59.1458C272.299 55.3474 273.264 52.4021 275.23 50.3217C277.196 48.2413 280.028 47.2128 283.689 47.2128C287.35 47.2128 290.182 48.2355 292.148 50.3217C294.114 52.4021 295.109 55.3474 295.109 59.1458V84.0695C295.109 87.868 294.143 90.8133 292.177 92.8936C290.211 94.974 287.38 96.0025 283.718 96.0025H283.654ZM287.55 84.5663V58.7192C287.55 55.6103 286.25 54.0559 283.654 54.0559C281.058 54.0559 279.757 55.6103 279.757 58.7192V84.5663C279.757 87.7044 281.058 89.2588 283.654 89.2588C286.25 89.2588 287.55 87.7044 287.55 84.5663Z" fill="white"/>
<path d="M302.531 95.3422C300.936 95.3422 300.136 94.5474 300.136 92.9638V50.3217C300.136 48.7322 300.936 47.9433 302.531 47.9433H311.255C315.117 47.9433 317.948 48.8374 319.714 50.6197C321.48 52.4021 322.374 55.1487 322.374 58.8478V61.758C322.374 66.6843 320.744 69.7932 317.448 71.1139V71.2483C320.779 72.2709 322.439 75.6136 322.439 81.2645V89.5919C322.439 91.0762 322.504 92.1398 322.639 92.7651C322.739 93.1975 322.775 93.4897 322.775 93.6592C322.775 94.7812 322.074 95.3422 320.709 95.3422H317.712C316.117 95.3422 315.246 94.6818 315.146 93.3261C315.011 92.5021 314.946 91.2457 314.91 89.5276V80.8671C314.91 78.7166 314.575 77.1972 313.88 76.3382C313.18 75.4792 311.985 75.0467 310.248 75.0467H307.653V92.9638C307.653 94.5474 306.852 95.3422 305.286 95.3422H302.525H302.531ZM310.39 68.268C311.891 68.268 313.021 67.8706 313.751 67.1109C314.481 66.3512 314.852 65.0597 314.852 63.2423V59.6075C314.852 56.37 313.586 54.7513 311.055 54.7162H307.623V68.268H310.39Z" fill="white"/>
<path d="M327.637 92.9638V50.3217C327.637 48.7322 328.437 47.9433 330.033 47.9433H332.764C334.365 47.9433 335.16 48.738 335.13 50.3217V67.9407L344.089 49.7256C344.69 48.5686 345.62 47.9725 346.886 47.9433H349.181C350.582 47.9433 351.277 48.4751 351.312 49.5328C351.312 49.8951 351.177 50.2925 350.947 50.7249L343.254 65.3694L351.642 92.4437C351.777 92.841 351.842 93.2384 351.842 93.6007C351.842 94.7578 351.141 95.3539 349.746 95.3539H346.785C345.385 95.3539 344.49 94.6935 344.089 93.402L338.132 74.2286L335.136 80.2419V92.9696C335.136 94.5533 334.336 95.348 332.77 95.348H330.039C328.443 95.348 327.643 94.5533 327.643 92.9696L327.637 92.9638Z" fill="white"/>
<path d="M129.27 72.9488H127.269V81.5918H129.841C130.613 81.5918 131.189 81.3756 131.566 80.9606C131.943 80.5457 132.137 79.8211 132.137 78.7984V76.3441C132.137 75.0643 131.919 74.1819 131.466 73.691C131.013 73.2001 130.277 72.943 129.27 72.943V72.9488Z" fill="white"/>
<path d="M131.013 68.2329C131.448 67.7829 131.666 67.0174 131.666 65.9538V64.3818C131.666 62.4592 130.913 61.495 129.412 61.4716H127.257V68.9166H129.017C129.906 68.9166 130.583 68.6829 131.019 68.227L131.013 68.2329Z" fill="white"/>
<path d="M129.406 38.8562C122.03 38.8562 116.044 44.7935 116.044 52.1216V90.3048C116.044 97.6271 122.024 103.57 129.406 103.57C136.782 103.57 142.768 97.6329 142.768 90.3048V52.1216C142.768 44.7993 136.787 38.8562 129.406 38.8562ZM136.576 78.9387C136.576 81.1184 135.999 82.7722 134.857 83.9117C134.139 84.6247 133.214 85.1097 132.084 85.3785V86.3778C132.084 87.0908 131.496 87.6751 130.777 87.6751C130.059 87.6751 129.465 87.0908 129.465 86.3778V85.6181H127.257V86.3778C127.257 87.0908 126.669 87.6751 125.951 87.6751C125.232 87.6751 124.644 87.0908 124.644 86.3778V85.6181H124.238C123.29 85.6181 122.813 85.1448 122.813 84.2039V58.8595C122.813 57.9186 123.29 57.4453 124.238 57.4453H124.644V56.0428C124.644 55.3298 125.232 54.7454 125.951 54.7454C126.669 54.7454 127.257 55.3298 127.257 56.0428V57.4453H129.465V56.0428C129.465 55.3298 130.053 54.7454 130.777 54.7454C131.501 54.7454 132.084 55.3298 132.084 56.0428V57.5621C132.084 57.6206 132.072 57.6732 132.067 57.7258C133.108 57.9829 133.944 58.4153 134.562 59.0348C135.61 60.0983 136.146 61.7288 136.146 63.926V65.048C136.146 67.9349 135.175 69.7815 133.256 70.5704V70.6464C135.475 71.3944 136.581 73.3579 136.581 76.5194V78.9387H136.576Z" fill="white"/>
</g>
<path d="M3.6386 23.828H0V1.3524H9.66C13.7816 1.3524 16.1966 4.025 16.1966 8.1144C16.1966 12.2038 13.7816 14.8764 9.66 14.8764H3.6386V23.828ZM3.6386 4.5402V11.6886H9.4346C11.27 11.6886 12.3648 10.6904 12.3648 8.8872V7.3416C12.3648 5.5384 11.27 4.5402 9.4346 4.5402H3.6386Z" fill="white"/>
<path d="M26.5142 24.2144C21.8452 24.2144 18.8184 20.8012 18.8184 15.456C18.8184 10.1108 21.8452 6.6976 26.5142 6.6976C31.1832 6.6976 34.21 10.1108 34.21 15.456C34.21 20.8012 31.1832 24.2144 26.5142 24.2144ZM26.5142 21.3164C28.897 21.3164 30.507 19.8352 30.507 16.8728V14.0392C30.507 11.0768 28.897 9.5956 26.5142 9.5956C24.1314 9.5956 22.5214 11.0768 22.5214 14.0392V16.8728C22.5214 19.8352 24.1314 21.3164 26.5142 21.3164Z" fill="white"/>
<path d="M41.4427 23.828L36.8703 7.084H40.2835L41.9901 14.1036L43.5035 20.447H43.6001L45.3389 14.1036L47.3675 7.084H50.5231L52.5839 14.1036L54.3549 20.447H54.4515L55.9327 14.1036L57.6715 7.084H60.9237L56.4157 23.828H52.4551L48.9131 11.4954H48.8487L47.5285 16.1966L45.3067 23.828H41.4427Z" fill="white"/>
<path d="M71.2596 24.2144C66.494 24.2144 63.5638 20.8012 63.5638 15.456C63.5638 10.1108 66.494 6.6976 71.2596 6.6976C76.1862 6.6976 78.6978 10.4006 78.6978 15.0374V16.3576H67.2024V16.905C67.2024 19.481 68.7802 21.3164 71.6138 21.3164C73.6746 21.3164 75.0592 20.3504 76.0252 18.8048L78.086 20.8334C76.8302 22.862 74.383 24.2144 71.2596 24.2144ZM71.2596 9.4346C68.8446 9.4346 67.2024 11.2378 67.2024 13.8138V14.0392H74.9948V13.7172C74.9948 11.1412 73.578 9.4346 71.2596 9.4346Z" fill="white"/>
<path d="M86.737 23.828H83.2272V7.084H86.737V10.304H86.898C87.381 8.5974 88.83 7.084 91.5026 7.084H92.4364V10.465H91.0518C88.2826 10.465 86.737 11.3988 86.737 13.1376V23.828Z" fill="white"/>
<path d="M102.609 24.2144C97.8437 24.2144 94.9135 20.8012 94.9135 15.456C94.9135 10.1108 97.8437 6.6976 102.609 6.6976C107.536 6.6976 110.048 10.4006 110.048 15.0374V16.3576H98.5521V16.905C98.5521 19.481 100.13 21.3164 102.964 21.3164C105.024 21.3164 106.409 20.3504 107.375 18.8048L109.436 20.8334C108.18 22.862 105.733 24.2144 102.609 24.2144ZM102.609 9.4346C100.194 9.4346 98.5521 11.2378 98.5521 13.8138V14.0392H106.345V13.7172C106.345 11.1412 104.928 9.4346 102.609 9.4346Z" fill="white"/>
<path d="M125.106 23.828V21.0588H124.945C124.237 23.023 122.466 24.2144 120.244 24.2144C116.026 24.2144 113.579 20.9622 113.579 15.456C113.579 9.9498 116.026 6.6976 120.244 6.6976C122.466 6.6976 124.237 7.8568 124.945 9.8532H125.106V0H128.616V23.828H125.106ZM121.307 21.1876C123.432 21.1876 125.106 20.0284 125.106 18.3218V12.5902C125.106 10.8836 123.432 9.7244 121.307 9.7244C118.892 9.7244 117.282 11.431 117.282 14.007V16.905C117.282 19.481 118.892 21.1876 121.307 21.1876Z" fill="white"/>
<path d="M142.531 23.828V0H146.04V9.8532H146.201C146.91 7.8568 148.681 6.6976 150.903 6.6976C155.121 6.6976 157.568 9.9498 157.568 15.456C157.568 20.9622 155.121 24.2144 150.903 24.2144C148.681 24.2144 146.91 23.023 146.201 21.0588H146.04V23.828H142.531ZM149.84 21.1876C152.255 21.1876 153.865 19.481 153.865 16.905V14.007C153.865 11.431 152.255 9.7244 149.84 9.7244C147.715 9.7244 146.04 10.8836 146.04 12.5902V18.3218C146.04 20.0284 147.715 21.1876 149.84 21.1876Z" fill="white"/>
<path d="M168.933 16.9372L172.282 7.084H175.663L168.611 27.1446C167.806 29.3986 166.808 30.268 164.2 30.268H162.171V27.4022H165.005L165.971 24.5686L159.885 7.084H163.395L166.744 16.9372L167.71 20.5758H167.871L168.933 16.9372Z" fill="white"/>
<defs>
<clipPath id="clip0_2828_42497">
<rect width="352.1" height="65.2297" fill="white" transform="translate(0 38.5984)"/>
</clipPath>
</defs>
</svg>
