<svg width="503" height="93" viewBox="0 0 503 93" fill="none" xmlns="http://www.w3.org/2000/svg">
<g clip-path="url(#clip0_124_28)">
<rect x="173.194" y="18.3794" width="23.2154" height="56.6087" fill="white"/>
<path d="M0.36853 77.5106V16.7144C0.36853 14.4482 1.51218 13.3234 3.79106 13.3234H16.161C26.8154 13.3234 32.1468 18.8807 32.1468 30.0534V36.7021C32.1468 47.8249 26.8238 53.3821 16.161 53.3821H11.0734V77.5106C11.0734 79.7684 9.92976 80.9016 7.69292 80.9016H3.79106C1.50377 80.9016 0.36853 79.7684 0.36853 77.5106ZM16.1105 43.7173C17.868 43.7173 19.2051 43.2424 20.0544 42.2593C20.9037 41.2762 21.341 39.6182 21.341 37.3103V29.2952C21.341 26.9874 20.9121 25.3377 20.0544 24.3962C19.1967 23.4547 17.9101 22.9798 16.1525 22.9798H11.065V43.7673L16.1105 43.7173Z" fill="black"/>
<path d="M37.9491 77.5106V16.7144C37.9491 14.4482 39.0928 13.3234 41.3717 13.3234H45.2735C47.5524 13.3234 48.696 14.4565 48.654 16.7144V71.2368H62.8739C65.1612 71.2368 66.2964 72.3699 66.2964 74.6278V77.5022C66.2964 79.7601 65.1528 80.8932 62.8739 80.8932H41.3717C39.0844 80.8932 37.9491 79.7601 37.9491 77.5022V77.5106Z" fill="black"/>
<path d="M72.4351 80.9016C70.2908 80.9016 69.2481 79.9601 69.2985 78.0271C69.2985 77.8355 69.349 77.5522 69.391 77.1273L79.6166 16.4311C79.9529 14.3566 81.1386 13.3234 83.2325 13.3234H91.5071C93.601 13.3234 94.7867 14.3649 95.0726 16.4311L105.298 77.1273C105.349 77.5022 105.391 77.7855 105.441 78.0271C105.441 79.9601 104.348 80.9016 102.204 80.9016H98.4026C96.1658 80.9016 94.9297 79.8684 94.6942 77.7938L93.2646 67.4709V67.6625H80.6593L79.2297 77.7938C78.9943 79.8684 77.7581 80.9016 75.5213 80.9016H72.4267H72.4351ZM91.936 58.5144L86.9409 25.1044H86.7475L81.8954 58.5144H91.936Z" fill="black"/>
<path d="M110.865 77.5106V16.7144C110.865 14.4482 112.009 13.3234 114.288 13.3234H121.276C123.369 13.3234 124.656 14.3149 125.077 16.2479L134.73 53.807H134.924V16.7144C134.924 14.4482 136.067 13.3234 138.346 13.3234H141.054C143.333 13.3234 144.477 14.4565 144.477 16.7144V77.5106C144.477 79.7684 143.333 80.9016 141.054 80.9016H136.488C134.394 80.9016 133.107 79.9601 132.678 78.0271L120.594 31.5614H120.401V77.5106C120.401 79.7684 119.257 80.9016 116.979 80.9016H114.271C111.983 80.9016 110.848 79.7684 110.848 77.5106H110.865Z" fill="black"/>
<path d="M222.892 77.5106V16.7144C222.892 14.4482 224.036 13.3234 226.315 13.3234H233.303C235.396 13.3234 236.683 14.3149 237.112 16.2479L246.766 53.807H246.959V16.7144C246.959 14.4482 248.103 13.3234 250.382 13.3234H253.089C255.368 13.3234 256.512 14.4565 256.512 16.7144V77.5106C256.512 79.7684 255.368 80.9016 253.089 80.9016H248.523C246.429 80.9016 245.143 79.9601 244.714 78.0271L232.63 31.5614H232.436V77.5106C232.436 79.7684 231.293 80.9016 229.014 80.9016H226.306C224.019 80.9016 222.884 79.7684 222.884 77.5106H222.892Z" fill="black"/>
<path d="M264.467 77.5106V16.7144C264.467 14.4482 265.611 13.3234 267.889 13.3234H290.292C292.57 13.3234 293.714 14.4565 293.672 16.7144V19.6388C293.672 21.8967 292.528 23.0298 290.292 22.9882H275.163V40.8513H286.482C288.761 40.8513 289.905 41.9844 289.863 44.2422V47.1167C289.863 49.3745 288.719 50.5076 286.482 50.5076H275.163V71.2451H290.292C292.57 71.2451 293.714 72.3783 293.672 74.6361V77.5106C293.672 79.7684 292.528 80.9016 290.292 80.9016H267.889C265.611 80.9016 264.467 79.7684 264.467 77.5106Z" fill="black"/>
<path d="M308.178 77.5106V22.9798H300.374C298.095 22.9798 296.952 21.8467 296.994 19.6305V16.7061C296.994 14.4399 298.137 13.3151 300.374 13.3151H326.678C328.965 13.3151 330.101 14.4482 330.101 16.7061V19.6305C330.101 21.8884 328.957 23.0215 326.678 22.9798H318.874V77.5106C318.874 79.7684 317.731 80.9016 315.494 80.9016H311.592C309.313 80.9016 308.169 79.7684 308.169 77.5106H308.178Z" fill="black"/>
<path d="M339.62 77.6939L333.389 17.6976L333.296 16.4228C333.296 14.3482 334.347 13.3151 336.483 13.3151H340.007C342.151 13.3151 343.337 14.3982 343.53 16.5228L348.096 65.2547H348.29L353.192 16.5228C353.386 14.3982 354.521 13.3151 356.665 13.3151H361.946C364.09 13.3151 365.276 14.3982 365.47 16.5228L370.322 65.2547H370.515L375.081 16.5228C375.275 14.3982 376.46 13.3151 378.605 13.3151H381.026C383.162 13.3151 384.264 14.3566 384.264 16.4228L384.172 17.6976L377.94 77.6939C377.747 79.8184 376.561 80.9016 374.417 80.9016H367.521C365.285 80.9016 364.099 79.8184 363.905 77.6939L359.339 35.3274H359.146L354.529 77.6939C354.336 79.8184 353.15 80.9016 350.964 80.9016H343.16C341.024 80.9016 339.83 79.8184 339.637 77.6939H339.62Z" fill="black"/>
<path d="M405.22 81.843C399.989 81.843 395.995 80.385 393.186 77.4106C390.378 74.4362 388.998 70.2454 388.998 64.8298V29.2952C388.998 23.8797 390.378 19.6805 393.186 16.7144C395.995 13.7484 400.04 12.282 405.27 12.282C410.501 12.282 414.545 13.74 417.354 16.7144C420.163 19.6805 421.584 23.8797 421.584 29.2952V64.8298C421.584 70.2454 420.205 74.4445 417.396 77.4106C414.587 80.3766 410.543 81.843 405.312 81.843H405.22ZM410.787 65.538V28.687C410.787 24.2546 408.928 22.0384 405.22 22.0384C401.511 22.0384 399.653 24.2546 399.653 28.687V65.538C399.653 70.0121 401.511 72.2283 405.22 72.2283C408.928 72.2283 410.787 70.0121 410.787 65.538Z" fill="black"/>
<path d="M432.188 80.9016C429.909 80.9016 428.765 79.7684 428.765 77.5106V16.7144C428.765 14.4482 429.909 13.3234 432.188 13.3234H444.65C450.167 13.3234 454.212 14.5982 456.734 17.1393C459.257 19.6805 460.535 23.5964 460.535 28.8703V33.0195C460.535 40.0431 458.206 44.4755 453.497 46.3585V46.5501C458.256 48.0081 460.628 52.7739 460.628 60.8306V72.7032C460.628 74.8194 460.72 76.3358 460.914 77.2273C461.057 77.8438 461.107 78.2604 461.107 78.502C461.107 80.1017 460.106 80.9016 458.155 80.9016H453.875C451.596 80.9016 450.352 79.9601 450.209 78.0271C450.015 76.8524 449.923 75.0611 449.872 72.6115V60.264C449.872 57.198 449.393 55.0317 448.401 53.807C447.4 52.5822 445.693 51.9657 443.212 51.9657H439.504V77.5106C439.504 79.7684 438.36 80.9016 436.123 80.9016H432.179H432.188ZM443.414 42.301C445.558 42.301 447.173 41.7344 448.216 40.6513C449.259 39.5682 449.788 37.7269 449.788 35.1357V29.9534C449.788 25.3377 447.98 23.0298 444.364 22.9798H439.462V42.301H443.414Z" fill="black"/>
<path d="M468.053 77.5106V16.7144C468.053 14.4482 469.197 13.3234 471.475 13.3234H475.377C477.665 13.3234 478.8 14.4565 478.758 16.7144V41.8344L491.557 15.8646C492.414 14.2149 493.743 13.3651 495.551 13.3234H498.831C500.832 13.3234 501.824 14.0816 501.875 15.5897C501.875 16.1062 501.681 16.6728 501.353 17.2893L490.363 38.1685L502.346 76.769C502.539 77.3356 502.632 77.9021 502.632 78.4187C502.632 80.0684 501.631 80.9182 499.638 80.9182H495.408C493.407 80.9182 492.128 79.9767 491.557 78.1354L483.047 50.7993L478.766 59.3725V77.5189C478.766 79.7768 477.623 80.9099 475.386 80.9099H471.484C469.205 80.9099 468.061 79.7768 468.061 77.5189L468.053 77.5106Z" fill="black"/>
<path d="M184.672 48.9746H181.813V61.2971H185.488C186.59 61.2971 187.414 60.9888 187.952 60.3973C188.49 59.8057 188.768 58.7726 188.768 57.3146V53.8153C188.768 51.9907 188.456 50.7326 187.809 50.0327C187.161 49.3328 186.11 48.9663 184.672 48.9663V48.9746Z" fill="#FF5C00"/>
<path d="M187.162 42.2509C187.784 41.6094 188.095 40.518 188.095 39.0016V36.7604C188.095 34.0193 187.019 32.6445 184.874 32.6112H181.796V43.2257H184.311C185.581 43.2257 186.548 42.8925 187.17 42.2426L187.162 42.2509Z" fill="#FF5C00"/>
<path d="M184.866 0.367676C174.329 0.367676 165.777 8.83264 165.777 19.2805V73.7196C165.777 84.1592 174.321 92.6325 184.866 92.6325C195.402 92.6325 203.955 84.1675 203.955 73.7196V19.2805C203.955 8.84098 195.411 0.367676 184.866 0.367676ZM195.108 57.5145C195.108 60.6222 194.284 62.9801 192.653 64.6048C191.627 65.6212 190.307 66.3128 188.692 66.696V68.1207C188.692 69.1372 187.851 69.9704 186.825 69.9704C185.799 69.9704 184.95 69.1372 184.95 68.1207V67.0376H181.796V68.1207C181.796 69.1372 180.956 69.9704 179.93 69.9704C178.904 69.9704 178.063 69.1372 178.063 68.1207V67.0376H177.483C176.129 67.0376 175.448 66.3628 175.448 65.0214V28.887C175.448 27.5456 176.129 26.8707 177.483 26.8707H178.063V24.8711C178.063 23.8546 178.904 23.0215 179.93 23.0215C180.956 23.0215 181.796 23.8546 181.796 24.8711V26.8707H184.95V24.8711C184.95 23.8546 185.791 23.0215 186.825 23.0215C187.859 23.0215 188.692 23.8546 188.692 24.8711V27.0373C188.692 27.1206 188.675 27.1956 188.667 27.2706C190.155 27.6372 191.349 28.2537 192.232 29.1369C193.729 30.6533 194.494 32.9778 194.494 36.1105V37.7102C194.494 41.826 193.107 44.4588 190.365 45.5836V45.6919C193.536 46.7584 195.117 49.5578 195.117 54.0652V57.5145H195.108Z" fill="#FF5C00"/>
</g>
<defs>
<clipPath id="clip0_124_28">
<rect width="503" height="93" fill="white"/>
</clipPath>
</defs>
</svg>
