<svg width="503" height="93" viewBox="0 0 503 93" fill="none" xmlns="http://www.w3.org/2000/svg">
<g clip-path="url(#clip0_124_31)">
<rect x="173.194" y="18.3794" width="23.2154" height="56.6087" fill="white"/>
<path d="M0.36853 77.5103V16.7142C0.36853 14.448 1.51218 13.3232 3.79106 13.3232H16.161C26.8154 13.3232 32.1468 18.8804 32.1468 30.0532V36.7018C32.1468 47.8246 26.8238 53.3818 16.161 53.3818H11.0734V77.5103C11.0734 79.7682 9.92976 80.9013 7.69292 80.9013H3.79106C1.50377 80.9013 0.36853 79.7682 0.36853 77.5103ZM16.1105 43.7171C17.868 43.7171 19.2051 43.2422 20.0544 42.2591C20.9037 41.2759 21.341 39.6179 21.341 37.3101V29.295C21.341 26.9871 20.9121 25.3375 20.0544 24.396C19.1967 23.4545 17.9101 22.9796 16.1525 22.9796H11.065V43.7671L16.1105 43.7171Z" fill="white"/>
<path d="M37.9491 77.5103V16.7142C37.9491 14.448 39.0928 13.3232 41.3717 13.3232H45.2735C47.5524 13.3232 48.696 14.4563 48.654 16.7142V71.2366H62.8739C65.1612 71.2366 66.2964 72.3697 66.2964 74.6276V77.502C66.2964 79.7599 65.1528 80.893 62.8739 80.893H41.3717C39.0844 80.893 37.9491 79.7599 37.9491 77.502V77.5103Z" fill="white"/>
<path d="M72.4351 80.9013C70.2908 80.9013 69.2481 79.9598 69.2985 78.0269C69.2985 77.8353 69.349 77.552 69.391 77.1271L79.6166 16.4309C79.9529 14.3563 81.1386 13.3232 83.2325 13.3232H91.5071C93.601 13.3232 94.7867 14.3647 95.0726 16.4309L105.298 77.1271C105.349 77.502 105.391 77.7853 105.441 78.0269C105.441 79.9598 104.348 80.9013 102.204 80.9013H98.4026C96.1658 80.9013 94.9297 79.8682 94.6942 77.7936L93.2646 67.4707V67.6623H80.6593L79.2297 77.7936C78.9943 79.8682 77.7581 80.9013 75.5213 80.9013H72.4267H72.4351ZM91.936 58.5141L86.9409 25.1042H86.7475L81.8954 58.5141H91.936Z" fill="white"/>
<path d="M110.865 77.5103V16.7142C110.865 14.448 112.009 13.3232 114.288 13.3232H121.276C123.369 13.3232 124.656 14.3147 125.077 16.2476L134.73 53.8067H134.924V16.7142C134.924 14.448 136.067 13.3232 138.346 13.3232H141.054C143.333 13.3232 144.477 14.4563 144.477 16.7142V77.5103C144.477 79.7682 143.333 80.9013 141.054 80.9013H136.488C134.394 80.9013 133.107 79.9598 132.678 78.0269L120.594 31.5612H120.401V77.5103C120.401 79.7682 119.257 80.9013 116.979 80.9013H114.271C111.983 80.9013 110.848 79.7682 110.848 77.5103H110.865Z" fill="white"/>
<path d="M222.892 77.5103V16.7142C222.892 14.448 224.036 13.3232 226.315 13.3232H233.303C235.396 13.3232 236.683 14.3147 237.112 16.2476L246.766 53.8067H246.959V16.7142C246.959 14.448 248.103 13.3232 250.382 13.3232H253.089C255.368 13.3232 256.512 14.4563 256.512 16.7142V77.5103C256.512 79.7682 255.368 80.9013 253.089 80.9013H248.523C246.429 80.9013 245.143 79.9598 244.714 78.0269L232.63 31.5612H232.436V77.5103C232.436 79.7682 231.293 80.9013 229.014 80.9013H226.306C224.019 80.9013 222.884 79.7682 222.884 77.5103H222.892Z" fill="white"/>
<path d="M264.467 77.5103V16.7142C264.467 14.448 265.611 13.3232 267.889 13.3232H290.292C292.57 13.3232 293.714 14.4563 293.672 16.7142V19.6386C293.672 21.8965 292.528 23.0296 290.292 22.9879H275.163V40.851H286.482C288.761 40.851 289.905 41.9841 289.863 44.242V47.1164C289.863 49.3743 288.719 50.5074 286.482 50.5074H275.163V71.2449H290.292C292.57 71.2449 293.714 72.378 293.672 74.6359V77.5103C293.672 79.7682 292.528 80.9013 290.292 80.9013H267.889C265.611 80.9013 264.467 79.7682 264.467 77.5103Z" fill="white"/>
<path d="M308.178 77.5103V22.9796H300.374C298.095 22.9796 296.952 21.8465 296.994 19.6303V16.7059C296.994 14.4396 298.137 13.3149 300.374 13.3149H326.678C328.965 13.3149 330.101 14.448 330.101 16.7059V19.6303C330.101 21.8881 328.957 23.0212 326.678 22.9796H318.874V77.5103C318.874 79.7682 317.731 80.9013 315.494 80.9013H311.592C309.313 80.9013 308.169 79.7682 308.169 77.5103H308.178Z" fill="white"/>
<path d="M339.62 77.6936L333.389 17.6973L333.296 16.4226C333.296 14.348 334.347 13.3149 336.483 13.3149H340.007C342.151 13.3149 343.337 14.398 343.53 16.5226L348.096 65.2544H348.29L353.192 16.5226C353.386 14.398 354.521 13.3149 356.665 13.3149H361.946C364.09 13.3149 365.276 14.398 365.47 16.5226L370.322 65.2544H370.515L375.081 16.5226C375.275 14.398 376.46 13.3149 378.605 13.3149H381.026C383.162 13.3149 384.264 14.3563 384.264 16.4226L384.172 17.6973L377.94 77.6936C377.747 79.8182 376.561 80.9013 374.417 80.9013H367.521C365.285 80.9013 364.099 79.8182 363.905 77.6936L359.339 35.3271H359.146L354.529 77.6936C354.336 79.8182 353.15 80.9013 350.964 80.9013H343.16C341.024 80.9013 339.83 79.8182 339.637 77.6936H339.62Z" fill="white"/>
<path d="M405.22 81.8428C399.989 81.8428 395.995 80.3848 393.186 77.4103C390.378 74.4359 388.998 70.2451 388.998 64.8295V29.295C388.998 23.8794 390.378 19.6803 393.186 16.7142C395.995 13.7481 400.04 12.2817 405.27 12.2817C410.501 12.2817 414.545 13.7398 417.354 16.7142C420.163 19.6803 421.584 23.8794 421.584 29.295V64.8295C421.584 70.2451 420.205 74.4443 417.396 77.4103C414.587 80.3764 410.543 81.8428 405.312 81.8428H405.22ZM410.787 65.5377V28.6868C410.787 24.2543 408.928 22.0381 405.22 22.0381C401.511 22.0381 399.653 24.2543 399.653 28.6868V65.5377C399.653 70.0118 401.511 72.2281 405.22 72.2281C408.928 72.2281 410.787 70.0118 410.787 65.5377Z" fill="white"/>
<path d="M432.188 80.9013C429.909 80.9013 428.765 79.7682 428.765 77.5103V16.7142C428.765 14.448 429.909 13.3232 432.188 13.3232H444.65C450.167 13.3232 454.212 14.5979 456.734 17.1391C459.257 19.6803 460.535 23.5961 460.535 28.8701V33.0192C460.535 40.0428 458.206 44.4753 453.497 46.3582V46.5499C458.256 48.0079 460.628 52.7736 460.628 60.8303V72.703C460.628 74.8192 460.72 76.3356 460.914 77.227C461.057 77.8436 461.107 78.2602 461.107 78.5018C461.107 80.1015 460.106 80.9013 458.155 80.9013H453.875C451.596 80.9013 450.352 79.9598 450.209 78.0269C450.015 76.8521 449.923 75.0608 449.872 72.6113V60.2638C449.872 57.1977 449.393 55.0315 448.401 53.8067C447.4 52.582 445.693 51.9655 443.212 51.9655H439.504V77.5103C439.504 79.7682 438.36 80.9013 436.123 80.9013H432.179H432.188ZM443.414 42.3007C445.558 42.3007 447.173 41.7342 448.216 40.651C449.259 39.5679 449.788 37.7266 449.788 35.1355V29.9532C449.788 25.3375 447.98 23.0296 444.364 22.9796H439.462V42.3007H443.414Z" fill="white"/>
<path d="M468.053 77.5103V16.7142C468.053 14.448 469.197 13.3232 471.475 13.3232H475.377C477.665 13.3232 478.8 14.4563 478.758 16.7142V41.8341L491.557 15.8644C492.414 14.2147 493.743 13.3649 495.551 13.3232H498.831C500.832 13.3232 501.824 14.0814 501.875 15.5894C501.875 16.106 501.681 16.6725 501.353 17.2891L490.363 38.1682L502.346 76.7688C502.539 77.3354 502.632 77.9019 502.632 78.4185C502.632 80.0681 501.631 80.918 499.638 80.918H495.408C493.407 80.918 492.128 79.9765 491.557 78.1352L483.047 50.799L478.766 59.3723V77.5187C478.766 79.7765 477.623 80.9096 475.386 80.9096H471.484C469.205 80.9096 468.061 79.7765 468.061 77.5187L468.053 77.5103Z" fill="white"/>
<path d="M184.672 48.9746H181.813V61.2971H185.488C186.59 61.2971 187.414 60.9888 187.952 60.3973C188.49 59.8057 188.768 58.7726 188.768 57.3146V53.8153C188.768 51.9907 188.456 50.7326 187.809 50.0327C187.161 49.3328 186.11 48.9663 184.672 48.9663V48.9746Z" fill="#FF5C00"/>
<path d="M187.161 42.2509C187.784 41.6094 188.095 40.518 188.095 39.0016V36.7604C188.095 34.0193 187.018 32.6445 184.874 32.6112H181.796V43.2257H184.311C185.58 43.2257 186.548 42.8925 187.17 42.2426L187.161 42.2509Z" fill="#FF5C00"/>
<path d="M184.866 0.367676C174.329 0.367676 165.777 8.83264 165.777 19.2805V73.7196C165.777 84.1592 174.321 92.6325 184.866 92.6325C195.402 92.6325 203.954 84.1675 203.954 73.7196V19.2805C203.954 8.84098 195.411 0.367676 184.866 0.367676ZM195.108 57.5145C195.108 60.6222 194.284 62.9801 192.653 64.6048C191.627 65.6212 190.306 66.3128 188.692 66.696V68.1207C188.692 69.1372 187.851 69.9704 186.825 69.9704C185.799 69.9704 184.95 69.1372 184.95 68.1207V67.0376H181.796V68.1207C181.796 69.1372 180.955 69.9704 179.93 69.9704C178.904 69.9704 178.063 69.1372 178.063 68.1207V67.0376H177.482C176.129 67.0376 175.447 66.3628 175.447 65.0214V28.887C175.447 27.5456 176.129 26.8707 177.482 26.8707H178.063V24.8711C178.063 23.8546 178.904 23.0215 179.93 23.0215C180.955 23.0215 181.796 23.8546 181.796 24.8711V26.8707H184.95V24.8711C184.95 23.8546 185.791 23.0215 186.825 23.0215C187.859 23.0215 188.692 23.8546 188.692 24.8711V27.0373C188.692 27.1206 188.675 27.1956 188.667 27.2706C190.155 27.6372 191.349 28.2537 192.232 29.1369C193.729 30.6533 194.494 32.9778 194.494 36.1105V37.7102C194.494 41.826 193.107 44.4588 190.365 45.5836V45.6919C193.536 46.7584 195.116 49.5578 195.116 54.0652V57.5145H195.108Z" fill="#FF5C00"/>
</g>
<defs>
<clipPath id="clip0_124_31">
<rect width="503" height="93" fill="white"/>
</clipPath>
</defs>
</svg>
