<svg width="502" height="93" viewBox="0 0 502 93" fill="none" xmlns="http://www.w3.org/2000/svg">
<g clip-path="url(#clip0_124_32)">
<rect x="173.218" y="18.7471" width="23.1692" height="56.6087" fill="white"/>
<path d="M0.367798 77.5106V16.7144C0.367798 14.4482 1.50917 13.3234 3.78353 13.3234H16.1288C26.7621 13.3234 32.0829 18.8807 32.0829 30.0534V36.7021C32.0829 47.8249 26.7705 53.3821 16.1288 53.3821H11.0514V77.5106C11.0514 79.7684 9.91002 80.9016 7.67762 80.9016H3.78353C1.50078 80.9016 0.367798 79.7684 0.367798 77.5106ZM16.0785 43.7173C17.8325 43.7173 19.1669 43.2424 20.0145 42.2593C20.8622 41.2762 21.2986 39.6182 21.2986 37.3103V29.2952C21.2986 26.9874 20.8706 25.3377 20.0145 24.3962C19.1585 23.4547 17.8745 22.9798 16.1204 22.9798H11.043V43.7673L16.0785 43.7173Z" fill="white"/>
<path d="M37.8737 77.5106V16.7144C37.8737 14.4482 39.015 13.3234 41.2894 13.3234H45.1835C47.4579 13.3234 48.5992 14.4565 48.5573 16.7144V71.2368H62.7489C65.0317 71.2368 66.1646 72.3699 66.1646 74.6278V77.5022C66.1646 79.7601 65.0233 80.8932 62.7489 80.8932H41.2894C39.0067 80.8932 37.8737 79.7601 37.8737 77.5022V77.5106Z" fill="white"/>
<path d="M72.2911 80.9016C70.151 80.9016 69.1104 79.9601 69.1607 78.0271C69.1607 77.8355 69.2111 77.5522 69.2531 77.1273L79.4583 16.4312C79.794 14.3566 80.9773 13.3234 83.067 13.3234H91.3252C93.4149 13.3234 94.5983 14.3649 94.8836 16.4312L105.089 77.1273C105.139 77.5022 105.181 77.7855 105.231 78.0271C105.231 79.9601 104.14 80.9016 102 80.9016H98.207C95.9746 80.9016 94.7409 79.8684 94.5059 77.7939L93.0792 67.4709V67.6625H80.4989L79.0722 77.7939C78.8372 79.8684 77.6035 80.9016 75.3712 80.9016H72.2827H72.2911ZM91.7532 58.5144L86.7681 25.1044H86.5751L81.7326 58.5144H91.7532Z" fill="white"/>
<path d="M110.645 77.5106V16.7144C110.645 14.4482 111.786 13.3234 114.06 13.3234H121.034C123.124 13.3234 124.408 14.3149 124.828 16.2479L134.462 53.807H134.655V16.7144C134.655 14.4482 135.797 13.3234 138.071 13.3234H140.774C143.048 13.3234 144.189 14.4565 144.189 16.7144V77.5106C144.189 79.7684 143.048 80.9016 140.774 80.9016H136.216C134.127 80.9016 132.843 79.9601 132.415 78.0271L120.355 31.5615H120.162V77.5106C120.162 79.7684 119.02 80.9016 116.746 80.9016H114.044C111.761 80.9016 110.628 79.7684 110.628 77.5106H110.645Z" fill="white"/>
<path d="M222.449 77.5106V16.7144C222.449 14.4482 223.59 13.3234 225.865 13.3234H232.839C234.928 13.3234 236.213 14.3149 236.641 16.2479L246.275 53.807H246.468V16.7144C246.468 14.4482 247.609 13.3234 249.884 13.3234H252.586C254.861 13.3234 256.002 14.4565 256.002 16.7144V77.5106C256.002 79.7684 254.861 80.9016 252.586 80.9016H248.029C245.939 80.9016 244.655 79.9601 244.227 78.0271L232.167 31.5615H231.974V77.5106C231.974 79.7684 230.833 80.9016 228.559 80.9016H225.856C223.573 80.9016 222.44 79.7684 222.44 77.5106H222.449Z" fill="white"/>
<path d="M263.941 77.5106V16.7144C263.941 14.4482 265.083 13.3234 267.357 13.3234H289.714C291.989 13.3234 293.13 14.4565 293.088 16.7144V19.6388C293.088 21.8967 291.947 23.0298 289.714 22.9882H274.616V40.8513H285.913C288.187 40.8513 289.328 41.9844 289.286 44.2422V47.1167C289.286 49.3745 288.145 50.5077 285.913 50.5077H274.616V71.2452H289.714C291.989 71.2452 293.13 72.3783 293.088 74.6361V77.5106C293.088 79.7684 291.947 80.9016 289.714 80.9016H267.357C265.083 80.9016 263.941 79.7684 263.941 77.5106Z" fill="white"/>
<path d="M307.565 77.5106V22.9798H299.777C297.503 22.9798 296.361 21.8467 296.403 19.6305V16.7061C296.403 14.4399 297.545 13.3151 299.777 13.3151H326.029C328.311 13.3151 329.444 14.4482 329.444 16.7061V19.6305C329.444 21.8884 328.303 23.0215 326.029 22.9798H318.24V77.5106C318.24 79.7684 317.099 80.9016 314.867 80.9016H310.973C308.698 80.9016 307.557 79.7684 307.557 77.5106H307.565Z" fill="white"/>
<path d="M338.945 77.6939L332.726 17.6976L332.633 16.4228C332.633 14.3482 333.682 13.3151 335.814 13.3151H339.331C341.471 13.3151 342.654 14.3982 342.847 16.5228L347.404 65.2547H347.597L352.49 16.5228C352.683 14.3982 353.816 13.3151 355.956 13.3151H361.227C363.367 13.3151 364.55 14.3982 364.743 16.5228L369.585 65.2547H369.778L374.336 16.5228C374.529 14.3982 375.712 13.3151 377.852 13.3151H380.269C382.401 13.3151 383.5 14.3566 383.5 16.4228L383.408 17.6976L377.189 77.6939C376.996 79.8184 375.813 80.9016 373.673 80.9016H366.791C364.558 80.9016 363.375 79.8184 363.182 77.6939L358.625 35.3274H358.432L353.824 77.6939C353.631 79.8184 352.448 80.9016 350.266 80.9016H342.478C340.346 80.9016 339.154 79.8184 338.961 77.6939H338.945Z" fill="white"/>
<path d="M404.414 81.843C399.194 81.843 395.208 80.385 392.405 77.4106C389.601 74.4362 388.225 70.2454 388.225 64.8298V29.2952C388.225 23.8797 389.601 19.6805 392.405 16.7144C395.208 13.7484 399.244 12.282 404.464 12.282C409.685 12.282 413.721 13.74 416.524 16.7144C419.327 19.6805 420.746 23.8797 420.746 29.2952V64.8298C420.746 70.2454 419.369 74.4445 416.566 77.4106C413.763 80.3767 409.726 81.843 404.506 81.843H404.414ZM409.97 65.538V28.687C409.97 24.2546 408.115 22.0384 404.414 22.0384C400.713 22.0384 398.858 24.2546 398.858 28.687V65.538C398.858 70.0121 400.713 72.2283 404.414 72.2283C408.115 72.2283 409.97 70.0121 409.97 65.538Z" fill="white"/>
<path d="M431.329 80.9016C429.054 80.9016 427.913 79.7684 427.913 77.5106V16.7144C427.913 14.4482 429.054 13.3234 431.329 13.3234H443.766C449.272 13.3234 453.309 14.5982 455.826 17.1393C458.344 19.6805 459.62 23.5964 459.62 28.8703V33.0195C459.62 40.0431 457.295 44.4755 452.595 46.3585V46.5501C457.345 48.0082 459.712 52.7739 459.712 60.8306V72.7032C459.712 74.8194 459.804 76.3358 459.997 77.2273C460.14 77.8438 460.19 78.2604 460.19 78.502C460.19 80.1017 459.192 80.9016 457.245 80.9016H452.973C450.698 80.9016 449.456 79.9601 449.314 78.0271C449.121 76.8524 449.028 75.0611 448.978 72.6116V60.264C448.978 57.198 448.5 55.0317 447.509 53.807C446.511 52.5822 444.807 51.9657 442.331 51.9657H438.63V77.5106C438.63 79.7684 437.489 80.9016 435.256 80.9016H431.32H431.329ZM442.533 42.301C444.673 42.301 446.284 41.7344 447.325 40.6513C448.365 39.5682 448.894 37.7269 448.894 35.1357V29.9534C448.894 25.3377 447.09 23.0298 443.481 22.9798H438.588V42.301H442.533Z" fill="white"/>
<path d="M467.122 77.5106V16.7144C467.122 14.4482 468.264 13.3234 470.538 13.3234H474.432C476.715 13.3234 477.848 14.4565 477.806 16.7144V41.8344L490.579 15.8646C491.435 14.2149 492.761 13.3651 494.566 13.3234H497.839C499.836 13.3234 500.827 14.0816 500.877 15.5897C500.877 16.1062 500.684 16.6728 500.357 17.2893L489.388 38.1685L501.347 76.7691C501.54 77.3356 501.632 77.9022 501.632 78.4187C501.632 80.0684 500.634 80.9182 498.645 80.9182H494.423C492.426 80.9182 491.15 79.9767 490.579 78.1354L482.086 50.7993L477.814 59.3725V77.5189C477.814 79.7768 476.673 80.9099 474.441 80.9099H470.547C468.272 80.9099 467.131 79.7768 467.131 77.5189L467.122 77.5106Z" fill="white"/>
<path d="M184.305 48.9746H181.452V61.2971H185.119C186.219 61.2971 187.041 60.9888 187.578 60.3973C188.115 59.8057 188.392 58.7726 188.392 57.3146V53.8153C188.392 51.9907 188.082 50.7326 187.436 50.0327C186.789 49.3328 185.74 48.9663 184.305 48.9663V48.9746Z" fill="url(#paint0_radial_124_32)"/>
<path d="M186.789 42.2509C187.41 41.6094 187.721 40.518 187.721 39.0016V36.7604C187.721 34.0193 186.647 32.6445 184.507 32.6112H181.435V43.2257H183.944C185.212 43.2257 186.177 42.8925 186.798 42.2426L186.789 42.2509Z" fill="url(#paint1_radial_124_32)"/>
<path d="M184.498 0.367676C173.982 0.367676 165.447 8.83264 165.447 19.2805V73.7196C165.447 84.1592 173.974 92.6325 184.498 92.6325C195.014 92.6325 203.549 84.1675 203.549 73.7196V19.2805C203.549 8.84098 195.022 0.367676 184.498 0.367676ZM194.72 57.5145C194.72 60.6222 193.898 62.9801 192.27 64.6048C191.246 65.6212 189.928 66.3128 188.317 66.696V68.1207C188.317 69.1372 187.478 69.9704 186.454 69.9704C185.43 69.9704 184.582 69.1372 184.582 68.1207V67.0376H181.435V68.1207C181.435 69.1372 180.596 69.9704 179.572 69.9704C178.548 69.9704 177.709 69.1372 177.709 68.1207V67.0376H177.13C175.778 67.0376 175.099 66.3628 175.099 65.0214V28.887C175.099 27.5456 175.778 26.8707 177.13 26.8707H177.709V24.8711C177.709 23.8546 178.548 23.0215 179.572 23.0215C180.596 23.0215 181.435 23.8546 181.435 24.8711V26.8707H184.582V24.8711C184.582 23.8546 185.421 23.0215 186.454 23.0215C187.486 23.0215 188.317 23.8546 188.317 24.8711V27.0373C188.317 27.1206 188.3 27.1956 188.292 27.2706C189.777 27.6372 190.969 28.2537 191.85 29.1369C193.344 30.6533 194.108 32.9778 194.108 36.1105V37.7102C194.108 41.826 192.723 44.4588 189.987 45.5836V45.6919C193.151 46.7584 194.729 49.5578 194.729 54.0652V57.5145H194.72Z" fill="url(#paint2_radial_124_32)"/>
</g>
<defs>
<radialGradient id="paint0_radial_124_32" cx="0" cy="0" r="1" gradientUnits="userSpaceOnUse" gradientTransform="translate(176.16 12.4981) rotate(85.8219) scale(58.0495 23.972)">
<stop stop-color="#FF9900"/>
<stop offset="1" stop-color="#FF5C00"/>
</radialGradient>
<radialGradient id="paint1_radial_124_32" cx="0" cy="0" r="1" gradientUnits="userSpaceOnUse" gradientTransform="translate(176.16 12.4981) rotate(85.8219) scale(58.0495 23.972)">
<stop stop-color="#FF9900"/>
<stop offset="1" stop-color="#FF5C00"/>
</radialGradient>
<radialGradient id="paint2_radial_124_32" cx="0" cy="0" r="1" gradientUnits="userSpaceOnUse" gradientTransform="translate(176.16 12.4981) rotate(85.8219) scale(58.0495 23.972)">
<stop stop-color="#FF9900"/>
<stop offset="1" stop-color="#FF5C00"/>
</radialGradient>
<clipPath id="clip0_124_32">
<rect width="502" height="93" fill="white"/>
</clipPath>
</defs>
</svg>
