<svg width="201" height="118" viewBox="0 0 201 118" fill="none" xmlns="http://www.w3.org/2000/svg">
<g clip-path="url(#clip0_108_6)">
<path d="M0.710449 55.5574V11.6187C0.710449 9.98087 1.53034 9.16797 3.16408 9.16797H12.0321C19.6703 9.16797 23.4925 13.1843 23.4925 21.2591V26.0642C23.4925 34.1029 19.6764 38.1192 12.0321 38.1192H8.38483V55.5574C8.38483 57.1892 7.56494 58.0081 5.96134 58.0081H3.16408C1.52431 58.0081 0.710449 57.1892 0.710449 55.5574ZM11.9959 31.1343C13.2559 31.1343 14.2145 30.7911 14.8234 30.0805C15.4322 29.37 15.7457 28.1717 15.7457 26.5038V20.7111C15.7457 19.0432 15.4383 17.8509 14.8234 17.1705C14.2084 16.4901 13.2861 16.1469 12.0261 16.1469H8.3788V31.1704L11.9959 31.1343Z" fill="black"/>
<path d="M27.6522 55.5574V11.6187C27.6522 9.98087 28.4721 9.16797 30.1058 9.16797H32.9031C34.5368 9.16797 35.3567 9.98689 35.3265 11.6187V51.0232H45.5209C47.1607 51.0232 47.9745 51.8421 47.9745 53.474V55.5514C47.9745 57.1832 47.1546 58.0021 45.5209 58.0021H30.1058C28.466 58.0021 27.6522 57.1832 27.6522 55.5514V55.5574Z" fill="black"/>
<path d="M52.3754 58.0081C50.8381 58.0081 50.0905 57.3277 50.1267 55.9307C50.1267 55.7922 50.1629 55.5875 50.193 55.2804L57.5238 11.414C57.7649 9.91463 58.615 9.16797 60.1161 9.16797H66.0482C67.5493 9.16797 68.3993 9.92065 68.6043 11.414L75.9351 55.2804C75.9712 55.5514 76.0014 55.7561 76.0376 55.9307C76.0376 57.3277 75.2538 58.0081 73.7166 58.0081H70.9916C69.388 58.0081 68.5018 57.2615 68.333 55.7621L67.3082 48.3015V48.44H58.2713L57.2465 55.7621C57.0777 57.2615 56.1915 58.0081 54.5879 58.0081H52.3694H52.3754ZM66.3557 41.8284L62.7747 17.6823H62.636L59.1575 41.8284H66.3557Z" fill="black"/>
<path d="M79.926 55.5574V11.6187C79.926 9.98087 80.7459 9.16797 82.3796 9.16797H87.3894C88.8905 9.16797 89.8129 9.88452 90.1143 11.2815L97.0351 38.4263H97.1737V11.6187C97.1737 9.98087 97.9936 9.16797 99.6274 9.16797H101.569C103.202 9.16797 104.022 9.98689 104.022 11.6187V55.5574C104.022 57.1892 103.202 58.0081 101.569 58.0081H98.2951C96.7939 58.0081 95.8716 57.3277 95.5641 55.9307L86.9011 22.349H86.7624V55.5574C86.7624 57.1892 85.9425 58.0081 84.3088 58.0081H82.3676C80.7278 58.0081 79.9139 57.1892 79.9139 55.5574H79.926Z" fill="black"/>
<path d="M128.381 34.6385H126.167V44.2603H129.013C129.866 44.2603 130.505 44.0196 130.922 43.5577C131.338 43.0958 131.553 42.2891 131.553 41.1506V38.4183C131.553 36.9936 131.312 36.0112 130.811 35.4647C130.309 34.9183 129.495 34.632 128.381 34.632V34.6385Z" fill="black"/>
<path d="M130.309 29.3885C130.791 28.8876 131.032 28.0353 131.032 26.8513V25.1013C131.032 22.961 130.199 21.8876 128.538 21.8615H126.154V30.1497H128.101C129.085 30.1497 129.834 29.8894 130.316 29.382L130.309 29.3885Z" fill="black"/>
<path d="M128.531 0.781738C120.37 0.781738 113.746 7.39142 113.746 15.5494V50.8278C113.746 58.9794 120.364 65.5955 128.531 65.5955C136.692 65.5955 143.316 58.9859 143.316 50.8278L143.316 15.5494C143.316 7.39793 136.699 0.781738 128.531 0.781738ZM136.464 41.3068C136.464 43.7333 135.826 45.5744 134.563 46.843C133.768 47.6367 132.745 48.1767 131.495 48.4759V49.5884C131.495 50.3821 130.843 51.0326 130.049 51.0326C129.254 51.0326 128.596 50.3821 128.596 49.5884V48.7427H126.154V49.5884C126.154 50.3821 125.503 51.0326 124.708 51.0326C123.913 51.0326 123.262 50.3821 123.262 49.5884V48.7427H122.813C121.764 48.7427 121.236 48.2157 121.236 47.1683V18.9535C121.236 17.9061 121.764 17.3792 122.813 17.3792H123.262V15.8178C123.262 15.0241 123.913 14.3736 124.708 14.3736C125.503 14.3736 126.154 15.0241 126.154 15.8178V17.3792H128.596V15.8178C128.596 15.0241 129.248 14.3736 130.049 14.3736C130.85 14.3736 131.495 15.0241 131.495 15.8178V17.5093C131.495 17.5744 131.482 17.6329 131.475 17.6915C132.628 17.9777 133.553 18.4591 134.237 19.1487C135.396 20.3327 135.989 22.1478 135.989 24.5939V25.843C135.989 29.0567 134.914 31.1125 132.791 31.9907V32.0753C135.246 32.908 136.471 35.0939 136.471 38.6134V41.3068H136.464Z" fill="black"/>
<path d="M0.716491 115.133V71.1946C0.716491 69.5568 1.53638 68.7439 3.17013 68.7439H8.17987C9.68098 68.7439 10.6034 69.4604 10.9108 70.8574L17.8316 98.0022H17.9703V71.1946C17.9703 69.5568 18.7902 68.7439 20.4239 68.7439H22.3651C23.9989 68.7439 24.8188 69.5628 24.8188 71.1946V115.133C24.8188 116.765 23.9989 117.584 22.3651 117.584H19.0916C17.5905 117.584 16.6681 116.904 16.3606 115.507L7.69759 81.9249H7.55893V115.133C7.55893 116.765 6.73904 117.584 5.1053 117.584H3.16409C1.52431 117.584 0.710449 116.765 0.710449 115.133H0.716491Z" fill="black"/>
<path d="M30.5218 115.133V71.1946C30.5218 69.5568 31.3417 68.7439 32.9754 68.7439H49.0355C50.6693 68.7439 51.4892 69.5628 51.459 71.1946V73.3082C51.459 74.94 50.6391 75.7589 49.0355 75.7288H38.1901V88.6388H46.3046C47.9383 88.6388 48.7582 89.4578 48.7281 91.0896V93.167C48.7281 94.7988 47.9082 95.6177 46.3046 95.6177H38.1901V110.605H49.0355C50.6693 110.605 51.4892 111.424 51.459 113.056V115.133C51.459 116.765 50.6391 117.584 49.0355 117.584H32.9754C31.3417 117.584 30.5218 116.765 30.5218 115.133Z" fill="black"/>
<path d="M61.8583 115.133V75.7228H56.2638C54.6301 75.7228 53.8102 74.9039 53.8403 73.3021V71.1886C53.8403 69.5508 54.6602 68.7379 56.2638 68.7379H75.1212C76.761 68.7379 77.5748 69.5568 77.5748 71.1886V73.3021C77.5748 74.934 76.755 75.7529 75.1212 75.7228H69.5267V115.133C69.5267 116.765 68.7068 117.584 67.1032 117.584H64.3059C62.6722 117.584 61.8523 116.765 61.8523 115.133H61.8583Z" fill="black"/>
<path d="M84.3992 115.266L79.932 71.9052L79.8657 70.9839C79.8657 69.4845 80.6193 68.7379 82.1506 68.7379H84.6765C86.2138 68.7379 87.0638 69.5207 87.2025 71.0561L90.476 106.276H90.6147L94.1293 71.0561C94.268 69.5207 95.0819 68.7379 96.6191 68.7379H100.405C101.942 68.7379 102.792 69.5207 102.931 71.0561L106.41 106.276H106.548L109.822 71.0561C109.96 69.5207 110.81 68.7379 112.348 68.7379H114.084C115.615 68.7379 116.405 69.4906 116.405 70.9839L116.339 71.9052L111.871 115.266C111.733 116.801 110.883 117.584 109.345 117.584H104.402C102.798 117.584 101.948 116.801 101.81 115.266L98.5362 84.6466H98.3975L95.0879 115.266C94.9492 116.801 94.0992 117.584 92.5318 117.584H86.9372C85.406 117.584 84.5499 116.801 84.4113 115.266H84.3992Z" fill="black"/>
<path d="M131.428 118.264C127.678 118.264 124.815 117.211 122.801 115.061C120.788 112.911 119.799 109.883 119.799 105.969V80.2871C119.799 76.3731 120.788 73.3383 122.801 71.1946C124.815 69.051 127.715 67.9912 131.464 67.9912C135.214 67.9912 138.114 69.045 140.127 71.1946C142.141 73.3383 143.16 76.3731 143.16 80.2871V105.969C143.16 109.883 142.171 112.917 140.158 115.061C138.144 117.205 135.244 118.264 131.494 118.264H131.428ZM135.419 106.48V79.8475C135.419 76.6441 134.087 75.0424 131.428 75.0424C128.77 75.0424 127.437 76.6441 127.437 79.8475V106.48C127.437 109.714 128.77 111.316 131.428 111.316C134.087 111.316 135.419 109.714 135.419 106.48Z" fill="black"/>
<path d="M150.762 117.584C149.128 117.584 148.308 116.765 148.308 115.133V71.1946C148.308 69.5568 149.128 68.7439 150.762 68.7439H159.696C163.651 68.7439 166.551 69.6652 168.359 71.5017C170.168 73.3383 171.084 76.1684 171.084 79.98V82.9787C171.084 88.0548 169.414 91.2582 166.038 92.619V92.7575C169.45 93.8113 171.15 97.2556 171.15 103.078V111.659C171.15 113.188 171.217 114.284 171.355 114.929C171.458 115.374 171.494 115.675 171.494 115.85C171.494 117.006 170.777 117.584 169.378 117.584H166.309C164.676 117.584 163.784 116.904 163.681 115.507C163.542 114.658 163.476 113.363 163.44 111.593V102.669C163.44 100.453 163.096 98.8874 162.385 98.0022C161.667 97.1171 160.444 96.6715 158.665 96.6715H156.007V115.133C156.007 116.765 155.187 117.584 153.583 117.584H150.756H150.762ZM158.81 89.6866C160.347 89.6866 161.505 89.2771 162.252 88.4943C163 87.7115 163.38 86.3808 163.38 84.5081V80.7628C163.38 77.4269 162.083 75.7589 159.491 75.7228H155.976V89.6866H158.81Z" fill="black"/>
<path d="M176.474 115.133V71.1946C176.474 69.5568 177.294 68.7439 178.927 68.7439H181.725C183.364 68.7439 184.178 69.5628 184.148 71.1946V89.3494L193.324 70.5804C193.938 69.3882 194.891 68.774 196.187 68.7439H198.538C199.973 68.7439 200.684 69.2918 200.721 70.3817C200.721 70.7551 200.582 71.1645 200.347 71.6101L192.468 86.6999L201.058 114.597C201.197 115.007 201.263 115.416 201.263 115.79C201.263 116.982 200.546 117.596 199.117 117.596H196.085C194.65 117.596 193.734 116.916 193.324 115.585L187.223 95.8285L184.154 102.025V115.139C184.154 116.771 183.334 117.59 181.731 117.59H178.933C177.3 117.59 176.48 116.771 176.48 115.139L176.474 115.133Z" fill="black"/>
</g>
<defs>
<clipPath id="clip0_108_6">
<rect width="201" height="118" fill="white"/>
</clipPath>
</defs>
</svg>
