<svg width="201" height="118" viewBox="0 0 201 118" fill="none" xmlns="http://www.w3.org/2000/svg">
<g clip-path="url(#clip0_114_42)">
<path d="M0.526123 55.3047V11.366C0.526123 9.72818 1.34601 8.91528 2.97975 8.91528H11.8478C19.486 8.91528 23.3081 12.9316 23.3081 21.0064V25.8115C23.3081 33.8502 19.492 37.8665 11.8478 37.8665H8.2005V55.3047C8.2005 56.9365 7.38062 57.7554 5.77702 57.7554H2.97975C1.33998 57.7554 0.526123 56.9365 0.526123 55.3047ZM11.8116 30.8816C13.0716 30.8816 14.0301 30.5384 14.639 29.8279C15.2479 29.1173 15.5614 27.919 15.5614 26.2511V20.4584C15.5614 18.7905 15.2539 17.5982 14.639 16.9178C14.0241 16.2374 13.1017 15.8942 11.8418 15.8942H8.19448V30.9177L11.8116 30.8816Z" fill="white"/>
<path d="M27.4678 55.3047V11.366C27.4678 9.72818 28.2877 8.91528 29.9215 8.91528H32.7187C34.3525 8.91528 35.1724 9.7342 35.1422 11.366V50.7705H45.3366C46.9763 50.7705 47.7902 51.5895 47.7902 53.2213V55.2987C47.7902 56.9305 46.9703 57.7494 45.3366 57.7494H29.9215C28.2817 57.7494 27.4678 56.9305 27.4678 55.2987V55.3047Z" fill="white"/>
<path d="M52.191 57.7554C50.6538 57.7554 49.9062 57.075 49.9424 55.678C49.9424 55.5395 49.9786 55.3348 50.0087 55.0277L57.3395 11.1613C57.5806 9.66195 58.4306 8.91528 59.9317 8.91528H65.8639C67.365 8.91528 68.215 9.66797 68.42 11.1613L75.7507 55.0277C75.7869 55.2987 75.817 55.5034 75.8532 55.678C75.8532 57.075 75.0695 57.7554 73.5322 57.7554H70.8073C69.2037 57.7554 68.3175 57.0088 68.1487 55.5094L67.1238 48.0488V48.1873H58.087L57.0621 55.5094C56.8933 57.0088 56.0071 57.7554 54.4035 57.7554H52.185H52.191ZM66.1713 41.5757L62.5903 17.4296H62.4517L58.9732 41.5757H66.1713Z" fill="white"/>
<path d="M79.7416 55.3047V11.366C79.7416 9.72818 80.5615 8.91528 82.1953 8.91528H87.205C88.7061 8.91528 89.6285 9.63184 89.93 11.0288L96.8508 38.1736H96.9894V11.366C96.9894 9.72818 97.8093 8.91528 99.4431 8.91528H101.384C103.018 8.91528 103.838 9.7342 103.838 11.366V55.3047C103.838 56.9365 103.018 57.7554 101.384 57.7554H98.1107C96.6096 57.7554 95.6872 57.075 95.3798 55.678L86.7167 22.0963H86.5781V55.3047C86.5781 56.9365 85.7582 57.7554 84.1244 57.7554H82.1832C80.5434 57.7554 79.7296 56.9365 79.7296 55.3047H79.7416Z" fill="white"/>
<path d="M128.197 34.3858H125.983V44.0076H128.829C129.682 44.0076 130.32 43.7669 130.737 43.305C131.154 42.8431 131.369 42.0364 131.369 40.8979V38.1656C131.369 36.7409 131.128 35.7585 130.627 35.2121C130.125 34.6656 129.311 34.3793 128.197 34.3793V34.3858Z" fill="white"/>
<path d="M130.125 29.1358C130.607 28.6349 130.848 27.7827 130.848 26.5986V24.8486C130.848 22.7083 130.014 21.6349 128.353 21.6089H125.97V29.897H127.917C128.901 29.897 129.65 29.6368 130.132 29.1293L130.125 29.1358Z" fill="white"/>
<path d="M128.347 0.529053C120.186 0.529053 113.562 7.13874 113.562 15.2967V50.5752C113.562 58.7267 120.179 65.3428 128.347 65.3428C136.508 65.3428 143.132 58.7332 143.132 50.5752L143.132 15.2967C143.132 7.14524 136.515 0.529053 128.347 0.529053ZM136.28 41.0541C136.28 43.4807 135.642 45.3217 134.378 46.5903C133.584 47.384 132.561 47.924 131.31 48.2232V49.3357C131.31 50.1294 130.659 50.7799 129.864 50.7799C129.07 50.7799 128.412 50.1294 128.412 49.3357V48.49H125.97V49.3357C125.97 50.1294 125.318 50.7799 124.524 50.7799C123.729 50.7799 123.078 50.1294 123.078 49.3357V48.49H122.628C121.58 48.49 121.052 47.963 121.052 46.9156V18.7009C121.052 17.6535 121.58 17.1265 122.628 17.1265H123.078V15.5651C123.078 14.7715 123.729 14.1209 124.524 14.1209C125.318 14.1209 125.97 14.7715 125.97 15.5651V17.1265H128.412V15.5651C128.412 14.7715 129.063 14.1209 129.864 14.1209C130.666 14.1209 131.31 14.7715 131.31 15.5651V17.2566C131.31 17.3217 131.297 17.3802 131.291 17.4388C132.444 17.725 133.369 18.2064 134.053 18.896C135.212 20.08 135.805 21.8951 135.805 24.3412V25.5903C135.805 28.804 134.73 30.8598 132.607 31.7381V31.8226C135.062 32.6553 136.287 34.8412 136.287 38.3608V41.0541H136.28Z" fill="white"/>
<path d="M0.532164 114.881V70.9419C0.532164 69.3041 1.35206 68.4912 2.9858 68.4912H7.99554C9.49666 68.4912 10.419 69.2078 10.7265 70.6047L17.6473 97.7495H17.7859V70.9419C17.7859 69.3041 18.6058 68.4912 20.2396 68.4912H22.1808C23.8145 68.4912 24.6344 69.3101 24.6344 70.9419V114.881C24.6344 116.512 23.8145 117.331 22.1808 117.331H18.9073C17.4062 117.331 16.4838 116.651 16.1763 115.254L7.51326 81.6722H7.37461V114.881C7.37461 116.512 6.55471 117.331 4.92097 117.331H2.97976C1.33999 117.331 0.526123 116.512 0.526123 114.881H0.532164Z" fill="white"/>
<path d="M30.3375 114.881V70.9419C30.3375 69.3041 31.1573 68.4912 32.7911 68.4912H48.8512C50.485 68.4912 51.3049 69.3101 51.2747 70.9419V73.0555C51.2747 74.6873 50.4548 75.5062 48.8512 75.4761H38.0058V88.3862H46.1203C47.754 88.3862 48.5739 89.2051 48.5438 90.8369V92.9143C48.5438 94.5461 47.7239 95.365 46.1203 95.365H38.0058V110.352H48.8512C50.485 110.352 51.3049 111.171 51.2747 112.803V114.881C51.2747 116.512 50.4548 117.331 48.8512 117.331H32.7911C31.1573 117.331 30.3375 116.512 30.3375 114.881Z" fill="white"/>
<path d="M61.674 114.881V75.4701H56.0795C54.4458 75.4701 53.6259 74.6512 53.656 73.0495V70.9359C53.656 69.2981 54.4759 68.4852 56.0795 68.4852H74.9369C76.5767 68.4852 77.3905 69.3041 77.3905 70.9359V73.0495C77.3905 74.6813 76.5706 75.5002 74.9369 75.4701H69.3424V114.881C69.3424 116.512 68.5225 117.331 66.9189 117.331H64.1216C62.4879 117.331 61.668 116.512 61.668 114.881H61.674Z" fill="white"/>
<path d="M84.2149 115.013L79.7477 71.6525L79.6814 70.7312C79.6814 69.2319 80.435 68.4852 81.9662 68.4852H84.4922C86.0295 68.4852 86.8795 69.268 87.0182 70.8035L90.2917 106.023H90.4303L93.945 70.8035C94.0837 69.268 94.8975 68.4852 96.4348 68.4852H100.221C101.758 68.4852 102.608 69.268 102.747 70.8035L106.225 106.023H106.364L109.637 70.8035C109.776 69.268 110.626 68.4852 112.163 68.4852H113.9C115.431 68.4852 116.221 69.2379 116.221 70.7312L116.154 71.6525L111.687 115.013C111.548 116.549 110.698 117.331 109.161 117.331H104.218C102.614 117.331 101.764 116.549 101.625 115.013L98.3519 84.3939H98.2132L94.9035 115.013C94.7649 116.549 93.9149 117.331 92.3474 117.331H86.7529C85.2217 117.331 84.3656 116.549 84.2269 115.013H84.2149Z" fill="white"/>
<path d="M131.244 118.012C127.494 118.012 124.63 116.958 122.617 114.808C120.603 112.659 119.615 109.63 119.615 105.716V80.0344C119.615 76.1204 120.603 73.0856 122.617 70.9419C124.63 68.7983 127.53 67.7385 131.28 67.7385C135.03 67.7385 137.93 68.7923 139.943 70.9419C141.957 73.0856 142.975 76.1204 142.975 80.0344V105.716C142.975 109.63 141.987 112.665 139.973 114.808C137.96 116.952 135.06 118.012 131.31 118.012H131.244ZM135.235 106.228V79.5948C135.235 76.3914 133.902 74.7897 131.244 74.7897C128.585 74.7897 127.253 76.3914 127.253 79.5948V106.228C127.253 109.461 128.585 111.063 131.244 111.063C133.902 111.063 135.235 109.461 135.235 106.228Z" fill="white"/>
<path d="M150.577 117.331C148.944 117.331 148.124 116.512 148.124 114.881V70.9419C148.124 69.3041 148.944 68.4912 150.577 68.4912H159.512C163.467 68.4912 166.366 69.4125 168.175 71.249C169.983 73.0856 170.9 75.9157 170.9 79.7273V82.726C170.9 87.8021 169.23 91.0055 165.854 92.3664V92.5048C169.266 93.5586 170.966 97.0029 170.966 102.826V111.406C170.966 112.936 171.032 114.032 171.171 114.676C171.274 115.121 171.31 115.423 171.31 115.597C171.31 116.753 170.592 117.331 169.194 117.331H166.125C164.491 117.331 163.599 116.651 163.497 115.254C163.358 114.405 163.292 113.11 163.256 111.34V102.416C163.256 100.2 162.912 98.6347 162.201 97.7495C161.483 96.8644 160.259 96.4188 158.481 96.4188H155.822V114.881C155.822 116.512 155.002 117.331 153.399 117.331H150.571H150.577ZM158.626 89.4339C160.163 89.4339 161.32 89.0244 162.068 88.2416C162.815 87.4588 163.195 86.1281 163.195 84.2554V80.5101C163.195 77.1742 161.899 75.5062 159.307 75.4701H155.792V89.4339H158.626Z" fill="white"/>
<path d="M176.289 114.881V70.9419C176.289 69.3041 177.109 68.4912 178.743 68.4912H181.54C183.18 68.4912 183.994 69.3101 183.964 70.9419V89.0967L193.139 70.3278C193.754 69.1355 194.707 68.5213 196.003 68.4912H198.354C199.789 68.4912 200.5 69.0392 200.536 70.1291C200.536 70.5024 200.398 70.9118 200.163 71.3574L192.283 86.4472L200.874 114.345C201.013 114.754 201.079 115.164 201.079 115.537C201.079 116.729 200.361 117.343 198.933 117.343H195.9C194.466 117.343 193.549 116.663 193.139 115.332L187.038 95.5758L183.97 101.772V114.887C183.97 116.518 183.15 117.337 181.546 117.337H178.749C177.115 117.337 176.295 116.518 176.295 114.887L176.289 114.881Z" fill="white"/>
</g>
<defs>
<clipPath id="clip0_114_42">
<rect width="201" height="118" fill="white"/>
</clipPath>
</defs>
</svg>
