<svg width="201" height="117" viewBox="0 0 201 117" fill="none" xmlns="http://www.w3.org/2000/svg">
<g clip-path="url(#clip0_108_8)">
<path d="M0.263062 54.5739V11.0076C0.263062 9.38365 1.08295 8.57764 2.71669 8.57764H11.5847C19.2229 8.57764 23.0451 12.5599 23.0451 20.5663V25.3307C23.0451 33.3012 19.229 37.2835 11.5847 37.2835H7.93744V54.5739C7.93744 56.1919 7.11756 57.0039 5.51395 57.0039H2.71669C1.07692 57.0039 0.263062 56.1919 0.263062 54.5739ZM11.5486 30.3578C12.8085 30.3578 13.7671 30.0175 14.376 29.313C14.9849 28.6085 15.2983 27.4204 15.2983 25.7665V20.023C15.2983 18.3692 14.9909 17.187 14.376 16.5124C13.7611 15.8377 12.8387 15.4974 11.5787 15.4974H7.93141V30.3936L11.5486 30.3578Z" fill="black"/>
<path d="M27.2048 54.5739V11.0076C27.2048 9.38365 28.0247 8.57764 29.6584 8.57764H32.4557C34.0894 8.57764 34.9093 9.38962 34.8792 11.0076V50.0782H45.0735C46.7133 50.0782 47.5271 50.8902 47.5271 52.5082V54.568C47.5271 56.186 46.7072 56.9979 45.0735 56.9979H29.6584C28.0186 56.9979 27.2048 56.186 27.2048 54.568V54.5739Z" fill="black"/>
<path d="M51.928 57.0039C50.3907 57.0039 49.6432 56.3292 49.6793 54.9441C49.6793 54.8068 49.7155 54.6038 49.7456 54.2993L57.0764 10.8046C57.3175 9.31797 58.1676 8.57764 59.6687 8.57764H65.6008C67.1019 8.57764 67.952 9.32394 68.1569 10.8046L75.4877 54.2993C75.5238 54.568 75.554 54.771 75.5902 54.9441C75.5902 56.3292 74.8064 57.0039 73.2692 57.0039H70.5442C68.9406 57.0039 68.0544 56.2636 67.8856 54.7769L66.8608 47.3795V47.5169H57.8239L56.7991 54.7769C56.6303 56.2636 55.7441 57.0039 54.1405 57.0039H51.922H51.928ZM65.9083 40.9613L62.3273 17.0198H62.1886L58.7101 40.9613H65.9083Z" fill="black"/>
<path d="M79.4786 54.5739V11.0076C79.4786 9.38365 80.2985 8.57764 81.9322 8.57764H86.942C88.4431 8.57764 89.3655 9.28812 89.6669 10.6733L96.5877 37.588H96.7264V11.0076C96.7264 9.38365 97.5462 8.57764 99.18 8.57764H101.121C102.755 8.57764 103.575 9.38962 103.575 11.0076V54.5739C103.575 56.1919 102.755 57.0039 101.121 57.0039H97.8477C96.3465 57.0039 95.4242 56.3292 95.1167 54.9441L86.4537 21.6469H86.315V54.5739C86.315 56.1919 85.4951 57.0039 83.8614 57.0039H81.9202C80.2804 57.0039 79.4665 56.1919 79.4665 54.5739H79.4786Z" fill="black"/>
<path d="M127.934 33.8323H125.72V43.3726H128.566C129.419 43.3726 130.057 43.1339 130.474 42.6759C130.891 42.2179 131.106 41.4181 131.106 40.2892V37.58C131.106 36.1674 130.865 35.1934 130.363 34.6515C129.862 34.1097 129.048 33.8259 127.934 33.8259V33.8323Z" fill="url(#paint0_radial_108_8)"/>
<path d="M129.862 28.6268C130.344 28.1301 130.585 27.2851 130.585 26.1111V24.3759C130.585 22.2537 129.751 21.1894 128.09 21.1636H125.706V29.3815H127.654C128.637 29.3815 129.386 29.1235 129.868 28.6203L129.862 28.6268Z" fill="url(#paint1_radial_108_8)"/>
<path d="M128.084 0.262451C119.923 0.262451 113.299 6.81612 113.299 14.905V49.8844C113.299 57.9669 119.916 64.527 128.084 64.527C136.245 64.527 142.869 57.9733 142.869 49.8844L142.869 14.905C142.869 6.82257 136.251 0.262451 128.084 0.262451ZM136.017 40.444C136.017 42.8501 135.379 44.6756 134.115 45.9334C133.321 46.7204 132.298 47.2557 131.047 47.5525V48.6555C131.047 49.4424 130.396 50.0875 129.601 50.0875C128.807 50.0875 128.149 49.4424 128.149 48.6555V47.8169H125.706V48.6555C125.706 49.4424 125.055 50.0875 124.261 50.0875C123.466 50.0875 122.815 49.4424 122.815 48.6555V47.8169H122.365C121.317 47.8169 120.789 47.2944 120.789 46.2559V18.2803C120.789 17.2417 121.317 16.7192 122.365 16.7192H122.815V15.1711C122.815 14.3842 123.466 13.7391 124.261 13.7391C125.055 13.7391 125.706 14.3842 125.706 15.1711V16.7192H128.149V15.1711C128.149 14.3842 128.8 13.7391 129.601 13.7391C130.403 13.7391 131.047 14.3842 131.047 15.1711V16.8483C131.047 16.9128 131.034 16.9708 131.028 17.0289C132.181 17.3127 133.106 17.79 133.789 18.4738C134.949 19.6478 135.542 21.4474 135.542 23.8728V25.1113C135.542 28.2978 134.467 30.3362 132.344 31.207V31.2908C134.799 32.1165 136.024 34.2839 136.024 37.7736V40.444H136.017Z" fill="url(#paint2_radial_108_8)"/>
<path d="M0.269103 113.645V70.0786C0.269103 68.4547 1.08899 67.6486 2.72274 67.6486H7.73248C9.23359 67.6486 10.156 68.3591 10.4634 69.7443L17.3842 96.659H17.5229V70.0786C17.5229 68.4547 18.3428 67.6486 19.9765 67.6486H21.9177C23.5515 67.6486 24.3714 68.4606 24.3714 70.0786V113.645C24.3714 115.263 23.5515 116.075 21.9177 116.075H18.6442C17.1431 116.075 16.2207 115.4 15.9133 114.015L7.2502 80.7179H7.11154V113.645C7.11154 115.263 6.29165 116.075 4.65791 116.075H2.7167C1.07692 116.075 0.263062 115.263 0.263062 113.645H0.269103Z" fill="black"/>
<path d="M30.0744 113.645V70.0786C30.0744 68.4547 30.8943 67.6486 32.528 67.6486H48.5882C50.2219 67.6486 51.0418 68.4606 51.0117 70.0786V72.1742C51.0117 73.7922 50.1918 74.6042 48.5882 74.5744H37.7427V87.375H45.8572C47.491 87.375 48.3109 88.187 48.2807 89.805V91.8648C48.2807 93.4828 47.4608 94.2947 45.8572 94.2947H37.7427V109.155H48.5882C50.2219 109.155 51.0418 109.967 51.0117 111.585V113.645C51.0117 115.263 50.1918 116.075 48.5882 116.075H32.528C30.8943 116.075 30.0744 115.263 30.0744 113.645Z" fill="black"/>
<path d="M61.4109 113.645V74.5684H55.8164C54.1827 74.5684 53.3628 73.7564 53.3929 72.1683V70.0726C53.3929 68.4487 54.2128 67.6427 55.8164 67.6427H74.6738C76.3136 67.6427 77.1274 68.4547 77.1274 70.0726V72.1683C77.1274 73.7863 76.3076 74.5982 74.6738 74.5684H69.0793V113.645C69.0793 115.263 68.2594 116.075 66.6558 116.075H63.8586C62.2248 116.075 61.4049 115.263 61.4049 113.645H61.4109Z" fill="black"/>
<path d="M83.9518 113.776L79.4846 70.7831L79.4183 69.8697C79.4183 68.383 80.1719 67.6427 81.7032 67.6427H84.2291C85.7664 67.6427 86.6164 68.4188 86.7551 69.9413L90.0286 104.862H90.1673L93.6819 69.9413C93.8206 68.4188 94.6345 67.6427 96.1718 67.6427H99.9577C101.495 67.6427 102.345 68.4188 102.484 69.9413L105.962 104.862H106.101L109.374 69.9413C109.513 68.4188 110.363 67.6427 111.9 67.6427H113.637C115.168 67.6427 115.958 68.389 115.958 69.8697L115.891 70.7831L111.424 113.776C111.285 115.299 110.435 116.075 108.898 116.075H103.955C102.351 116.075 101.501 115.299 101.362 113.776L98.0888 83.4166H97.9502L94.6405 113.776C94.5018 115.299 93.6518 116.075 92.0844 116.075H86.4899C84.9586 116.075 84.1025 115.299 83.9639 113.776H83.9518Z" fill="black"/>
<path d="M130.981 116.75C127.231 116.75 124.367 115.705 122.354 113.573C120.34 111.442 119.352 108.439 119.352 104.558V79.094C119.352 75.2132 120.34 72.2041 122.354 70.0786C124.367 67.9531 127.267 66.9023 131.017 66.9023C134.767 66.9023 137.666 67.9472 139.68 70.0786C141.694 72.2041 142.712 75.2132 142.712 79.094V104.558C142.712 108.439 141.724 111.448 139.71 113.573C137.697 115.699 134.797 116.75 131.047 116.75H130.981ZM134.972 105.065V78.6581C134.972 75.4819 133.639 73.8937 130.981 73.8937C128.322 73.8937 126.99 75.4819 126.99 78.6581V105.065C126.99 108.272 128.322 109.86 130.981 109.86C133.639 109.86 134.972 108.272 134.972 105.065Z" fill="black"/>
<path d="M150.314 116.075C148.681 116.075 147.861 115.263 147.861 113.645V70.0786C147.861 68.4547 148.681 67.6486 150.314 67.6486H159.249C163.204 67.6486 166.103 68.5621 167.912 70.3831C169.72 72.2041 170.637 75.0102 170.637 78.7895V81.7628C170.637 86.7959 168.967 89.9721 165.591 91.3215V91.4588C169.003 92.5036 170.703 95.9187 170.703 101.692V110.2C170.703 111.716 170.769 112.803 170.908 113.442C171.01 113.884 171.047 114.182 171.047 114.355C171.047 115.502 170.329 116.075 168.931 116.075H165.862C164.228 116.075 163.336 115.4 163.234 114.015C163.095 113.173 163.029 111.89 162.992 110.134V101.286C162.992 99.089 162.649 97.5367 161.937 96.659C161.22 95.7814 159.996 95.3396 158.218 95.3396H155.559V113.645C155.559 115.263 154.739 116.075 153.136 116.075H150.308H150.314ZM158.363 88.4139C159.9 88.4139 161.057 88.0079 161.805 87.2317C162.552 86.4555 162.932 85.1361 162.932 83.2793V79.5657C162.932 76.258 161.636 74.6042 159.044 74.5684H155.529V88.4139H158.363Z" fill="black"/>
<path d="M176.026 113.645V70.0786C176.026 68.4547 176.846 67.6486 178.48 67.6486H181.277C182.917 67.6486 183.731 68.4606 183.701 70.0786V88.0795L192.876 69.4696C193.491 68.2875 194.444 67.6785 195.74 67.6486H198.091C199.526 67.6486 200.237 68.192 200.273 69.2726C200.273 69.6428 200.135 70.0488 199.899 70.4906L192.02 85.4525L200.611 113.114C200.749 113.52 200.816 113.926 200.816 114.296C200.816 115.478 200.098 116.087 198.67 116.087H195.637C194.202 116.087 193.286 115.412 192.876 114.093L186.775 94.5037L183.707 100.647V113.651C183.707 115.269 182.887 116.081 181.283 116.081H178.486C176.852 116.081 176.032 115.269 176.032 113.651L176.026 113.645Z" fill="black"/>
</g>
<defs>
<radialGradient id="paint0_radial_108_8" cx="0" cy="0" r="1" gradientUnits="userSpaceOnUse" gradientTransform="translate(121.612 8.71157) rotate(85.3466) scale(40.4587 18.5925)">
<stop stop-color="#FF9900"/>
<stop offset="1" stop-color="#FF5C00"/>
</radialGradient>
<radialGradient id="paint1_radial_108_8" cx="0" cy="0" r="1" gradientUnits="userSpaceOnUse" gradientTransform="translate(121.612 8.71157) rotate(85.3466) scale(40.4587 18.5925)">
<stop stop-color="#FF9900"/>
<stop offset="1" stop-color="#FF5C00"/>
</radialGradient>
<radialGradient id="paint2_radial_108_8" cx="0" cy="0" r="1" gradientUnits="userSpaceOnUse" gradientTransform="translate(121.612 8.71157) rotate(85.3466) scale(40.4587 18.5925)">
<stop stop-color="#FF9900"/>
<stop offset="1" stop-color="#FF5C00"/>
</radialGradient>
<clipPath id="clip0_108_8">
<rect width="201" height="117" fill="white"/>
</clipPath>
</defs>
</svg>
