<svg width="201" height="118" viewBox="0 0 201 118" fill="none" xmlns="http://www.w3.org/2000/svg">
<g clip-path="url(#clip0_108_7)">
<path d="M0.710449 55.5576V11.619C0.710449 9.98111 1.53034 9.16821 3.16408 9.16821H12.0321C19.6703 9.16821 23.4925 13.1845 23.4925 21.2593V26.0645C23.4925 34.1031 19.6764 38.1195 12.0321 38.1195H8.38483V55.5576C8.38483 57.1895 7.56494 58.0084 5.96134 58.0084H3.16408C1.52431 58.0084 0.710449 57.1895 0.710449 55.5576ZM11.9959 31.1345C13.2559 31.1345 14.2145 30.7913 14.8234 30.0808C15.4322 29.3703 15.7457 28.172 15.7457 26.504V20.7114C15.7457 19.0434 15.4383 17.8512 14.8234 17.1707C14.2084 16.4903 13.2861 16.1471 12.0261 16.1471H8.3788V31.1707L11.9959 31.1345Z" fill="black"/>
<path d="M27.6522 55.5576V11.619C27.6522 9.98111 28.4721 9.16821 30.1058 9.16821H32.9031C34.5368 9.16821 35.3567 9.98713 35.3265 11.619V51.0235H45.5209C47.1607 51.0235 47.9745 51.8424 47.9745 53.4742V55.5516C47.9745 57.1834 47.1546 58.0024 45.5209 58.0024H30.1058C28.466 58.0024 27.6522 57.1834 27.6522 55.5516V55.5576Z" fill="black"/>
<path d="M52.3754 58.0084C50.8381 58.0084 50.0905 57.3279 50.1267 55.931C50.1267 55.7925 50.1629 55.5877 50.193 55.2806L57.5238 11.4142C57.7649 9.91487 58.615 9.16821 60.1161 9.16821H66.0482C67.5493 9.16821 68.3993 9.9209 68.6043 11.4142L75.9351 55.2806C75.9712 55.5516 76.0014 55.7563 76.0375 55.931C76.0375 57.3279 75.2538 58.0084 73.7165 58.0084H70.9916C69.388 58.0084 68.5018 57.2617 68.333 55.7624L67.3082 48.3018V48.4403H58.2713L57.2465 55.7624C57.0777 57.2617 56.1915 58.0084 54.5879 58.0084H52.3693H52.3754ZM66.3557 41.8287L62.7747 17.6826H62.636L59.1575 41.8287H66.3557Z" fill="black"/>
<path d="M79.926 55.5576V11.619C79.926 9.98111 80.7459 9.16821 82.3796 9.16821H87.3894C88.8905 9.16821 89.8129 9.88477 90.1143 11.2817L97.0351 38.4265H97.1737V11.619C97.1737 9.98111 97.9936 9.16821 99.6274 9.16821H101.569C103.202 9.16821 104.022 9.98713 104.022 11.619V55.5576C104.022 57.1895 103.202 58.0084 101.569 58.0084H98.2951C96.7939 58.0084 95.8716 57.3279 95.5641 55.931L86.901 22.3492H86.7624V55.5576C86.7624 57.1895 85.9425 58.0084 84.3088 58.0084H82.3676C80.7278 58.0084 79.9139 57.1895 79.9139 55.5576H79.926Z" fill="black"/>
<path d="M128.381 34.6388H126.167V44.2605H129.013C129.866 44.2605 130.505 44.0198 130.922 43.5579C131.338 43.0961 131.553 42.2894 131.553 41.1509V38.4185C131.553 36.9938 131.312 36.0115 130.811 35.465C130.309 34.9185 129.495 34.6323 128.381 34.6323V34.6388Z" fill="#FF5C00"/>
<path d="M130.309 29.3888C130.791 28.8878 131.032 28.0356 131.032 26.8516V25.1016C131.032 22.9612 130.199 21.8878 128.538 21.8618H126.154V30.1499H128.101C129.085 30.1499 129.834 29.8897 130.316 29.3822L130.309 29.3888Z" fill="#FF5C00"/>
<path d="M128.531 0.781982C120.37 0.781982 113.746 7.39167 113.746 15.5497V50.8281C113.746 58.9796 120.364 65.5957 128.531 65.5957C136.692 65.5957 143.316 58.9861 143.316 50.8281L143.316 15.5497C143.316 7.39817 136.699 0.781982 128.531 0.781982ZM136.464 41.307C136.464 43.7336 135.826 45.5747 134.563 46.8433C133.768 47.637 132.745 48.1769 131.495 48.4762V49.5886C131.495 50.3823 130.843 51.0329 130.049 51.0329C129.254 51.0329 128.596 50.3823 128.596 49.5886V48.7429H126.154V49.5886C126.154 50.3823 125.503 51.0329 124.708 51.0329C123.913 51.0329 123.262 50.3823 123.262 49.5886V48.7429H122.813C121.764 48.7429 121.236 48.216 121.236 47.1685V18.9538C121.236 17.9064 121.764 17.3794 122.813 17.3794H123.262V15.8181C123.262 15.0244 123.913 14.3738 124.708 14.3738C125.503 14.3738 126.154 15.0244 126.154 15.8181V17.3794H128.596V15.8181C128.596 15.0244 129.248 14.3738 130.049 14.3738C130.85 14.3738 131.495 15.0244 131.495 15.8181V17.5095C131.495 17.5746 131.482 17.6332 131.475 17.6917C132.628 17.9779 133.553 18.4594 134.237 19.149C135.396 20.333 135.989 22.148 135.989 24.5941V25.8432C135.989 29.057 134.914 31.1127 132.791 31.991V32.0756C135.246 32.9083 136.471 35.0942 136.471 38.6137V41.307H136.464Z" fill="#FF5C00"/>
<path d="M0.716491 115.134V71.1949C0.716491 69.557 1.53638 68.7441 3.17013 68.7441H8.17987C9.68098 68.7441 10.6034 69.4607 10.9108 70.8577L17.8316 98.0025H17.9703V71.1949C17.9703 69.557 18.7902 68.7441 20.4239 68.7441H22.3651C23.9989 68.7441 24.8188 69.5631 24.8188 71.1949V115.134C24.8188 116.765 23.9989 117.584 22.3651 117.584H19.0916C17.5905 117.584 16.6681 116.904 16.3606 115.507L7.69759 81.9251H7.55893V115.134C7.55893 116.765 6.73904 117.584 5.1053 117.584H3.16409C1.52431 117.584 0.710449 116.765 0.710449 115.134H0.716491Z" fill="black"/>
<path d="M30.5218 115.134V71.1949C30.5218 69.557 31.3417 68.7441 32.9754 68.7441H49.0355C50.6693 68.7441 51.4892 69.5631 51.459 71.1949V73.3084C51.459 74.9402 50.6391 75.7592 49.0355 75.729H38.1901V88.6391H46.3046C47.9383 88.6391 48.7582 89.458 48.7281 91.0898V93.1672C48.7281 94.7991 47.9082 95.618 46.3046 95.618H38.1901V110.605H49.0355C50.6693 110.605 51.4892 111.424 51.459 113.056V115.134C51.459 116.765 50.6391 117.584 49.0355 117.584H32.9754C31.3417 117.584 30.5218 116.765 30.5218 115.134Z" fill="black"/>
<path d="M61.8583 115.134V75.723H56.2638C54.6301 75.723 53.8102 74.9041 53.8403 73.3024V71.1889C53.8403 69.551 54.6602 68.7381 56.2638 68.7381H75.1212C76.761 68.7381 77.5748 69.557 77.5748 71.1889V73.3024C77.5748 74.9342 76.755 75.7531 75.1212 75.723H69.5267V115.134C69.5267 116.765 68.7068 117.584 67.1032 117.584H64.3059C62.6722 117.584 61.8523 116.765 61.8523 115.134H61.8583Z" fill="black"/>
<path d="M84.3992 115.266L79.932 71.9054L79.8657 70.9841C79.8657 69.4848 80.6193 68.7381 82.1506 68.7381H84.6765C86.2138 68.7381 87.0638 69.5209 87.2025 71.0564L90.476 106.276H90.6147L94.1293 71.0564C94.268 69.5209 95.0819 68.7381 96.6191 68.7381H100.405C101.942 68.7381 102.792 69.5209 102.931 71.0564L106.41 106.276H106.548L109.822 71.0564C109.96 69.5209 110.81 68.7381 112.348 68.7381H114.084C115.615 68.7381 116.405 69.4908 116.405 70.9841L116.339 71.9054L111.871 115.266C111.733 116.802 110.883 117.584 109.345 117.584H104.402C102.798 117.584 101.948 116.802 101.81 115.266L98.5362 84.6468H98.3975L95.0879 115.266C94.9492 116.802 94.0992 117.584 92.5318 117.584H86.9372C85.406 117.584 84.5499 116.802 84.4113 115.266H84.3992Z" fill="black"/>
<path d="M131.428 118.265C127.678 118.265 124.815 117.211 122.801 115.061C120.788 112.912 119.799 109.883 119.799 105.969V80.2873C119.799 76.3733 120.788 73.3385 122.801 71.1949C124.815 69.0512 127.715 67.9915 131.464 67.9915C135.214 67.9915 138.114 69.0452 140.127 71.1949C142.141 73.3385 143.16 76.3733 143.16 80.2873V105.969C143.16 109.883 142.171 112.918 140.158 115.061C138.144 117.205 135.244 118.265 131.494 118.265H131.428ZM135.419 106.481V79.8477C135.419 76.6443 134.087 75.0426 131.428 75.0426C128.77 75.0426 127.437 76.6443 127.437 79.8477V106.481C127.437 109.714 128.77 111.316 131.428 111.316C134.087 111.316 135.419 109.714 135.419 106.481Z" fill="black"/>
<path d="M150.762 117.584C149.128 117.584 148.308 116.765 148.308 115.134V71.1949C148.308 69.557 149.128 68.7441 150.762 68.7441H159.696C163.651 68.7441 166.551 69.6654 168.359 71.502C170.168 73.3385 171.084 76.1686 171.084 79.9802V82.9789C171.084 88.055 169.414 91.2584 166.038 92.6193V92.7578C169.45 93.8115 171.15 97.2558 171.15 103.079V111.659C171.15 113.189 171.217 114.285 171.355 114.929C171.458 115.374 171.494 115.675 171.494 115.85C171.494 117.006 170.777 117.584 169.378 117.584H166.309C164.676 117.584 163.784 116.904 163.681 115.507C163.542 114.658 163.476 113.363 163.44 111.593V102.669C163.44 100.453 163.096 98.8876 162.385 98.0025C161.667 97.1173 160.444 96.6717 158.665 96.6717H156.007V115.134C156.007 116.765 155.187 117.584 153.583 117.584H150.756H150.762ZM158.81 89.6868C160.347 89.6868 161.505 89.2774 162.252 88.4946C163 87.7118 163.38 86.381 163.38 84.5084V80.763C163.38 77.4271 162.083 75.7592 159.491 75.723H155.976V89.6868H158.81Z" fill="black"/>
<path d="M176.474 115.134V71.1949C176.474 69.557 177.294 68.7441 178.927 68.7441H181.725C183.364 68.7441 184.178 69.5631 184.148 71.1949V89.3496L193.324 70.5807C193.938 69.3884 194.891 68.7742 196.187 68.7441H198.538C199.973 68.7441 200.684 69.2921 200.721 70.382C200.721 70.7553 200.582 71.1648 200.347 71.6104L192.468 86.7002L201.058 114.598C201.197 115.007 201.263 115.417 201.263 115.79C201.263 116.982 200.546 117.596 199.117 117.596H196.085C194.65 117.596 193.734 116.916 193.324 115.585L187.223 95.8287L184.154 102.025V115.14C184.154 116.771 183.334 117.59 181.731 117.59H178.933C177.3 117.59 176.48 116.771 176.48 115.14L176.474 115.134Z" fill="black"/>
</g>
<defs>
<clipPath id="clip0_108_7">
<rect width="201" height="118" fill="white"/>
</clipPath>
</defs>
</svg>
