<svg width="201" height="117" viewBox="0 0 201 117" fill="none" xmlns="http://www.w3.org/2000/svg">
<g clip-path="url(#clip0_114_43)">
<rect x="119.008" y="8.57764" width="18.8217" height="46.1233" rx="5" fill="white"/>
<path d="M0.710449 54.5739V11.0076C0.710449 9.38365 1.53034 8.57764 3.16408 8.57764H12.0321C19.6703 8.57764 23.4925 12.5599 23.4925 20.5663V25.3307C23.4925 33.3012 19.6764 37.2835 12.0321 37.2835H8.38483V54.5739C8.38483 56.1919 7.56494 57.0039 5.96134 57.0039H3.16408C1.52431 57.0039 0.710449 56.1919 0.710449 54.5739ZM11.9959 30.3578C13.2559 30.3578 14.2145 30.0175 14.8234 29.313C15.4322 28.6085 15.7457 27.4204 15.7457 25.7665V20.023C15.7457 18.3692 15.4383 17.187 14.8234 16.5124C14.2084 15.8377 13.2861 15.4974 12.0261 15.4974H8.3788V30.3936L11.9959 30.3578Z" fill="white"/>
<path d="M27.6522 54.5739V11.0076C27.6522 9.38365 28.4721 8.57764 30.1058 8.57764H32.9031C34.5368 8.57764 35.3567 9.38962 35.3265 11.0076V50.0782H45.5209C47.1607 50.0782 47.9745 50.8902 47.9745 52.5082V54.568C47.9745 56.186 47.1546 56.9979 45.5209 56.9979H30.1058C28.466 56.9979 27.6522 56.186 27.6522 54.568V54.5739Z" fill="white"/>
<path d="M52.3754 57.0039C50.8381 57.0039 50.0905 56.3292 50.1267 54.9441C50.1267 54.8068 50.1629 54.6038 50.193 54.2993L57.5238 10.8046C57.7649 9.31797 58.615 8.57764 60.1161 8.57764H66.0482C67.5493 8.57764 68.3993 9.32394 68.6043 10.8046L75.9351 54.2993C75.9712 54.568 76.0014 54.771 76.0375 54.9441C76.0375 56.3292 75.2538 57.0039 73.7165 57.0039H70.9916C69.388 57.0039 68.5018 56.2636 68.333 54.7769L67.3082 47.3795V47.5169H58.2713L57.2465 54.7769C57.0777 56.2636 56.1915 57.0039 54.5879 57.0039H52.3693H52.3754ZM66.3557 40.9613L62.7747 17.0198H62.636L59.1575 40.9613H66.3557Z" fill="white"/>
<path d="M79.926 54.5739V11.0076C79.926 9.38365 80.7459 8.57764 82.3796 8.57764H87.3894C88.8905 8.57764 89.8129 9.28812 90.1143 10.6733L97.0351 37.588H97.1737V11.0076C97.1737 9.38365 97.9936 8.57764 99.6274 8.57764H101.569C103.202 8.57764 104.022 9.38962 104.022 11.0076V54.5739C104.022 56.1919 103.202 57.0039 101.569 57.0039H98.2951C96.7939 57.0039 95.8716 56.3292 95.5641 54.9441L86.901 21.6469H86.7624V54.5739C86.7624 56.1919 85.9425 57.0039 84.3088 57.0039H82.3676C80.7278 57.0039 79.9139 56.1919 79.9139 54.5739H79.926Z" fill="white"/>
<path d="M128.381 33.8323H126.167V43.3726H129.013C129.866 43.3726 130.505 43.1339 130.922 42.6759C131.338 42.2179 131.553 41.4181 131.553 40.2892V37.58C131.553 36.1674 131.312 35.1934 130.811 34.6515C130.309 34.1097 129.495 33.8259 128.381 33.8259V33.8323Z" fill="#FF5C00"/>
<path d="M130.309 28.6268C130.791 28.1301 131.032 27.2851 131.032 26.1111V24.3759C131.032 22.2537 130.199 21.1894 128.538 21.1636H126.154V29.3815H128.101C129.085 29.3815 129.834 29.1235 130.316 28.6203L130.309 28.6268Z" fill="#FF5C00"/>
<path d="M128.531 0.262451C120.37 0.262451 113.746 6.81612 113.746 14.905V49.8844C113.746 57.9669 120.364 64.527 128.531 64.527C136.692 64.527 143.316 57.9733 143.316 49.8844L143.316 14.905C143.316 6.82257 136.699 0.262451 128.531 0.262451ZM136.464 40.444C136.464 42.8501 135.826 44.6756 134.563 45.9334C133.768 46.7204 132.745 47.2557 131.495 47.5525V48.6555C131.495 49.4424 130.843 50.0875 130.049 50.0875C129.254 50.0875 128.596 49.4424 128.596 48.6555V47.8169H126.154V48.6555C126.154 49.4424 125.503 50.0875 124.708 50.0875C123.913 50.0875 123.262 49.4424 123.262 48.6555V47.8169H122.813C121.764 47.8169 121.236 47.2944 121.236 46.2559V18.2803C121.236 17.2417 121.764 16.7192 122.813 16.7192H123.262V15.1711C123.262 14.3842 123.913 13.7391 124.708 13.7391C125.503 13.7391 126.154 14.3842 126.154 15.1711V16.7192H128.596V15.1711C128.596 14.3842 129.248 13.7391 130.049 13.7391C130.85 13.7391 131.495 14.3842 131.495 15.1711V16.8483C131.495 16.9128 131.482 16.9708 131.475 17.0289C132.628 17.3127 133.553 17.79 134.237 18.4738C135.396 19.6478 135.989 21.4474 135.989 23.8728V25.1113C135.989 28.2978 134.914 30.3362 132.791 31.207V31.2908C135.246 32.1165 136.471 34.2839 136.471 37.7736V40.444H136.464Z" fill="#FF5C00"/>
<path d="M0.716491 113.645V70.0786C0.716491 68.4547 1.53638 67.6486 3.17013 67.6486H8.17987C9.68098 67.6486 10.6034 68.3591 10.9108 69.7443L17.8316 96.659H17.9703V70.0786C17.9703 68.4547 18.7902 67.6486 20.4239 67.6486H22.3651C23.9989 67.6486 24.8188 68.4606 24.8188 70.0786V113.645C24.8188 115.263 23.9989 116.075 22.3651 116.075H19.0916C17.5905 116.075 16.6681 115.4 16.3606 114.015L7.69759 80.7179H7.55893V113.645C7.55893 115.263 6.73904 116.075 5.1053 116.075H3.16409C1.52431 116.075 0.710449 115.263 0.710449 113.645H0.716491Z" fill="white"/>
<path d="M30.5218 113.645V70.0786C30.5218 68.4547 31.3417 67.6486 32.9754 67.6486H49.0355C50.6693 67.6486 51.4892 68.4606 51.459 70.0786V72.1742C51.459 73.7922 50.6391 74.6042 49.0355 74.5744H38.1901V87.375H46.3046C47.9383 87.375 48.7582 88.187 48.7281 89.805V91.8648C48.7281 93.4828 47.9082 94.2947 46.3046 94.2947H38.1901V109.155H49.0355C50.6693 109.155 51.4892 109.967 51.459 111.585V113.645C51.459 115.263 50.6391 116.075 49.0355 116.075H32.9754C31.3417 116.075 30.5218 115.263 30.5218 113.645Z" fill="white"/>
<path d="M61.8583 113.645V74.5684H56.2638C54.6301 74.5684 53.8102 73.7564 53.8403 72.1683V70.0726C53.8403 68.4487 54.6602 67.6427 56.2638 67.6427H75.1212C76.761 67.6427 77.5748 68.4547 77.5748 70.0726V72.1683C77.5748 73.7863 76.755 74.5982 75.1212 74.5684H69.5267V113.645C69.5267 115.263 68.7068 116.075 67.1032 116.075H64.3059C62.6722 116.075 61.8523 115.263 61.8523 113.645H61.8583Z" fill="white"/>
<path d="M84.3992 113.776L79.932 70.7831L79.8657 69.8697C79.8657 68.383 80.6193 67.6427 82.1506 67.6427H84.6765C86.2138 67.6427 87.0638 68.4188 87.2025 69.9413L90.476 104.862H90.6147L94.1293 69.9413C94.268 68.4188 95.0819 67.6427 96.6191 67.6427H100.405C101.942 67.6427 102.792 68.4188 102.931 69.9413L106.41 104.862H106.548L109.822 69.9413C109.96 68.4188 110.81 67.6427 112.348 67.6427H114.084C115.615 67.6427 116.405 68.389 116.405 69.8697L116.339 70.7831L111.871 113.776C111.733 115.299 110.883 116.075 109.345 116.075H104.402C102.798 116.075 101.948 115.299 101.81 113.776L98.5362 83.4166H98.3975L95.0879 113.776C94.9492 115.299 94.0992 116.075 92.5318 116.075H86.9372C85.406 116.075 84.5499 115.299 84.4113 113.776H84.3992Z" fill="white"/>
<path d="M131.428 116.75C127.678 116.75 124.815 115.705 122.801 113.573C120.788 111.442 119.799 108.439 119.799 104.558V79.094C119.799 75.2132 120.788 72.2041 122.801 70.0786C124.815 67.9531 127.715 66.9023 131.464 66.9023C135.214 66.9023 138.114 67.9472 140.127 70.0786C142.141 72.2041 143.16 75.2132 143.16 79.094V104.558C143.16 108.439 142.171 111.448 140.158 113.573C138.144 115.699 135.244 116.75 131.494 116.75H131.428ZM135.419 105.065V78.6581C135.419 75.4819 134.087 73.8937 131.428 73.8937C128.77 73.8937 127.437 75.4819 127.437 78.6581V105.065C127.437 108.272 128.77 109.86 131.428 109.86C134.087 109.86 135.419 108.272 135.419 105.065Z" fill="white"/>
<path d="M150.762 116.075C149.128 116.075 148.308 115.263 148.308 113.645V70.0786C148.308 68.4547 149.128 67.6486 150.762 67.6486H159.696C163.651 67.6486 166.551 68.5621 168.359 70.3831C170.168 72.2041 171.084 75.0102 171.084 78.7895V81.7628C171.084 86.7959 169.414 89.9721 166.038 91.3215V91.4588C169.45 92.5036 171.15 95.9187 171.15 101.692V110.2C171.15 111.716 171.217 112.803 171.355 113.442C171.458 113.884 171.494 114.182 171.494 114.355C171.494 115.502 170.777 116.075 169.378 116.075H166.309C164.676 116.075 163.784 115.4 163.681 114.015C163.542 113.173 163.476 111.89 163.44 110.134V101.286C163.44 99.089 163.096 97.5367 162.385 96.659C161.667 95.7814 160.444 95.3396 158.665 95.3396H156.007V113.645C156.007 115.263 155.187 116.075 153.583 116.075H150.756H150.762ZM158.81 88.4139C160.347 88.4139 161.505 88.0079 162.252 87.2317C163 86.4555 163.38 85.1361 163.38 83.2793V79.5657C163.38 76.258 162.083 74.6042 159.491 74.5684H155.976V88.4139H158.81Z" fill="white"/>
<path d="M176.474 113.645V70.0786C176.474 68.4547 177.294 67.6486 178.927 67.6486H181.725C183.364 67.6486 184.178 68.4606 184.148 70.0786V88.0795L193.324 69.4696C193.938 68.2875 194.891 67.6785 196.187 67.6486H198.538C199.973 67.6486 200.684 68.192 200.721 69.2726C200.721 69.6428 200.582 70.0488 200.347 70.4906L192.468 85.4525L201.058 113.114C201.197 113.52 201.263 113.926 201.263 114.296C201.263 115.478 200.546 116.087 199.117 116.087H196.085C194.65 116.087 193.734 115.412 193.324 114.093L187.223 94.5037L184.154 100.647V113.651C184.154 115.269 183.334 116.081 181.731 116.081H178.933C177.3 116.081 176.48 115.269 176.48 113.651L176.474 113.645Z" fill="white"/>
</g>
<defs>
<clipPath id="clip0_114_43">
<rect width="201" height="117" fill="white"/>
</clipPath>
</defs>
</svg>
