<svg width="201" height="118" viewBox="0 0 201 118" fill="none" xmlns="http://www.w3.org/2000/svg">
<g clip-path="url(#clip0_114_44)">
<rect x="118.56" y="8.65088" width="18.8217" height="46.5176" rx="5" fill="white"/>
<path d="M0.263062 55.0403V11.1016C0.263062 9.46378 1.08295 8.65088 2.71669 8.65088H11.5847C19.2229 8.65088 23.0451 12.6672 23.0451 20.742V25.5471C23.0451 33.5858 19.229 37.6021 11.5847 37.6021H7.93744V55.0403C7.93744 56.6721 7.11756 57.491 5.51395 57.491H2.71669C1.07692 57.491 0.263062 56.6721 0.263062 55.0403ZM11.5486 30.6172C12.8085 30.6172 13.7671 30.274 14.376 29.5635C14.9849 28.8529 15.2983 27.6546 15.2983 25.9867V20.194C15.2983 18.5261 14.9909 17.3338 14.376 16.6534C13.7611 15.973 12.8387 15.6298 11.5787 15.6298H7.93141V30.6533L11.5486 30.6172Z" fill="white"/>
<path d="M27.2048 55.0403V11.1016C27.2048 9.46378 28.0247 8.65088 29.6584 8.65088H32.4557C34.0894 8.65088 34.9093 9.4698 34.8792 11.1016V50.5061H45.0735C46.7133 50.5061 47.5271 51.3251 47.5271 52.9569V55.0343C47.5271 56.6661 46.7072 57.485 45.0735 57.485H29.6584C28.0186 57.485 27.2048 56.6661 27.2048 55.0343V55.0403Z" fill="white"/>
<path d="M51.928 57.491C50.3907 57.491 49.6432 56.8106 49.6793 55.4136C49.6793 55.2751 49.7155 55.0704 49.7456 54.7633L57.0764 10.8969C57.3175 9.39754 58.1676 8.65088 59.6687 8.65088H65.6008C67.1019 8.65088 67.952 9.40356 68.1569 10.8969L75.4877 54.7633C75.5238 55.0343 75.554 55.239 75.5902 55.4136C75.5902 56.8106 74.8064 57.491 73.2692 57.491H70.5442C68.9406 57.491 68.0544 56.7444 67.8856 55.245L66.8608 47.7844V47.9229H57.8239L56.7991 55.245C56.6303 56.7444 55.7441 57.491 54.1405 57.491H51.922H51.928ZM65.9083 41.3113L62.3273 17.1652H62.1886L58.7101 41.3113H65.9083Z" fill="white"/>
<path d="M79.4786 55.0403V11.1016C79.4786 9.46378 80.2985 8.65088 81.9322 8.65088H86.942C88.4431 8.65088 89.3655 9.36743 89.6669 10.7644L96.5877 37.9092H96.7264V11.1016C96.7264 9.46378 97.5462 8.65088 99.18 8.65088H101.121C102.755 8.65088 103.575 9.4698 103.575 11.1016V55.0403C103.575 56.6721 102.755 57.491 101.121 57.491H97.8477C96.3465 57.491 95.4242 56.8106 95.1167 55.4136L86.4537 21.8319H86.315V55.0403C86.315 56.6721 85.4951 57.491 83.8614 57.491H81.9202C80.2804 57.491 79.4665 56.6721 79.4665 55.0403H79.4786Z" fill="white"/>
<path d="M127.934 34.1214H125.72V43.7432H128.566C129.419 43.7432 130.057 43.5025 130.474 43.0406C130.891 42.5787 131.106 41.772 131.106 40.6335V37.9012C131.106 36.4765 130.865 35.4941 130.363 34.9477C129.862 34.4012 129.048 34.1149 127.934 34.1149V34.1214Z" fill="url(#paint0_radial_114_44)"/>
<path d="M129.862 28.8714C130.344 28.3705 130.585 27.5183 130.585 26.3342V24.5842C130.585 22.4439 129.751 21.3705 128.09 21.3445H125.706V29.6326H127.654C128.637 29.6326 129.386 29.3724 129.868 28.8649L129.862 28.8714Z" fill="url(#paint1_radial_114_44)"/>
<path d="M128.084 0.264648C119.923 0.264648 113.299 6.87433 113.299 15.0323V50.3108C113.299 58.4623 119.916 65.0784 128.084 65.0784C136.245 65.0784 142.869 58.4688 142.869 50.3108L142.869 15.0323C142.869 6.88084 136.251 0.264648 128.084 0.264648ZM136.017 40.7897C136.017 43.2163 135.379 45.0573 134.115 46.3259C133.321 47.1196 132.298 47.6596 131.047 47.9588V49.0713C131.047 49.865 130.396 50.5155 129.601 50.5155C128.807 50.5155 128.149 49.865 128.149 49.0713V48.2256H125.706V49.0713C125.706 49.865 125.055 50.5155 124.261 50.5155C123.466 50.5155 122.815 49.865 122.815 49.0713V48.2256H122.365C121.317 48.2256 120.789 47.6986 120.789 46.6512V18.4364C120.789 17.389 121.317 16.8621 122.365 16.8621H122.815V15.3007C122.815 14.5071 123.466 13.8565 124.261 13.8565C125.055 13.8565 125.706 14.5071 125.706 15.3007V16.8621H128.149V15.3007C128.149 14.5071 128.8 13.8565 129.601 13.8565C130.403 13.8565 131.047 14.5071 131.047 15.3007V16.9922C131.047 17.0573 131.034 17.1158 131.028 17.1744C132.181 17.4606 133.106 17.942 133.789 18.6316C134.949 19.8156 135.542 21.6307 135.542 24.0768V25.3259C135.542 28.5396 134.467 30.5954 132.344 31.4737V31.5582C134.799 32.3909 136.024 34.5768 136.024 38.0964V40.7897H136.017Z" fill="url(#paint2_radial_114_44)"/>
<path d="M0.269103 114.616V70.6775C0.269103 69.0397 1.08899 68.2268 2.72274 68.2268H7.73248C9.23359 68.2268 10.156 68.9434 10.4634 70.3403L17.3842 97.4851H17.5229V70.6775C17.5229 69.0397 18.3428 68.2268 19.9765 68.2268H21.9177C23.5515 68.2268 24.3714 69.0457 24.3714 70.6775V114.616C24.3714 116.248 23.5515 117.067 21.9177 117.067H18.6442C17.1431 117.067 16.2207 116.387 15.9133 114.99L7.2502 81.4078H7.11154V114.616C7.11154 116.248 6.29165 117.067 4.65791 117.067H2.7167C1.07692 117.067 0.263062 116.248 0.263062 114.616H0.269103Z" fill="white"/>
<path d="M30.0744 114.616V70.6775C30.0744 69.0397 30.8943 68.2268 32.528 68.2268H48.5882C50.2219 68.2268 51.0418 69.0457 51.0117 70.6775V72.7911C51.0117 74.4229 50.1918 75.2418 48.5882 75.2117H37.7427V88.1218H45.8572C47.491 88.1218 48.3109 88.9407 48.2807 90.5725V92.6499C48.2807 94.2817 47.4608 95.1006 45.8572 95.1006H37.7427V110.088H48.5882C50.2219 110.088 51.0418 110.907 51.0117 112.539V114.616C51.0117 116.248 50.1918 117.067 48.5882 117.067H32.528C30.8943 117.067 30.0744 116.248 30.0744 114.616Z" fill="white"/>
<path d="M61.4109 114.616V75.2057H55.8164C54.1827 75.2057 53.3628 74.3868 53.3929 72.7851V70.6715C53.3929 69.0337 54.2128 68.2208 55.8164 68.2208H74.6738C76.3136 68.2208 77.1274 69.0397 77.1274 70.6715V72.7851C77.1274 74.4169 76.3076 75.2358 74.6738 75.2057H69.0793V114.616C69.0793 116.248 68.2594 117.067 66.6558 117.067H63.8586C62.2248 117.067 61.4049 116.248 61.4049 114.616H61.4109Z" fill="white"/>
<path d="M83.9518 114.749L79.4846 71.3881L79.4183 70.4668C79.4183 68.9674 80.1719 68.2208 81.7032 68.2208H84.2291C85.7664 68.2208 86.6164 69.0036 86.7551 70.5391L90.0286 105.759H90.1673L93.6819 70.5391C93.8206 69.0036 94.6345 68.2208 96.1718 68.2208H99.9577C101.495 68.2208 102.345 69.0036 102.484 70.5391L105.962 105.759H106.101L109.374 70.5391C109.513 69.0036 110.363 68.2208 111.9 68.2208H113.637C115.168 68.2208 115.958 68.9735 115.958 70.4668L115.891 71.3881L111.424 114.749C111.285 116.284 110.435 117.067 108.898 117.067H103.955C102.351 117.067 101.501 116.284 101.362 114.749L98.0888 84.1295H97.9502L94.6405 114.749C94.5018 116.284 93.6518 117.067 92.0844 117.067H86.4899C84.9586 117.067 84.1025 116.284 83.9639 114.749H83.9518Z" fill="white"/>
<path d="M130.981 117.747C127.231 117.747 124.367 116.694 122.354 114.544C120.34 112.394 119.352 109.366 119.352 105.452V79.77C119.352 75.856 120.34 72.8212 122.354 70.6775C124.367 68.5339 127.267 67.4741 131.017 67.4741C134.767 67.4741 137.666 68.5279 139.68 70.6775C141.694 72.8212 142.712 75.856 142.712 79.77V105.452C142.712 109.366 141.724 112.4 139.71 114.544C137.697 116.688 134.797 117.747 131.047 117.747H130.981ZM134.972 105.963V79.3304C134.972 76.127 133.639 74.5253 130.981 74.5253C128.322 74.5253 126.99 76.127 126.99 79.3304V105.963C126.99 109.197 128.322 110.799 130.981 110.799C133.639 110.799 134.972 109.197 134.972 105.963Z" fill="white"/>
<path d="M150.314 117.067C148.681 117.067 147.861 116.248 147.861 114.616V70.6775C147.861 69.0397 148.681 68.2268 150.314 68.2268H159.249C163.204 68.2268 166.103 69.1481 167.912 70.9846C169.72 72.8212 170.637 75.6513 170.637 79.4629V82.4616C170.637 87.5377 168.967 90.7411 165.591 92.1019V92.2404C169.003 93.2942 170.703 96.7385 170.703 102.561V111.142C170.703 112.671 170.769 113.767 170.908 114.412C171.01 114.857 171.047 115.158 171.047 115.333C171.047 116.489 170.329 117.067 168.931 117.067H165.862C164.228 117.067 163.336 116.387 163.234 114.99C163.095 114.141 163.029 112.846 162.992 111.076V102.152C162.992 99.9359 162.649 98.3703 161.937 97.4851C161.22 96.6 159.996 96.1544 158.218 96.1544H155.559V114.616C155.559 116.248 154.739 117.067 153.136 117.067H150.308H150.314ZM158.363 89.1695C159.9 89.1695 161.057 88.76 161.805 87.9772C162.552 87.1944 162.932 85.8637 162.932 83.991V80.2457C162.932 76.9098 161.636 75.2418 159.044 75.2057H155.529V89.1695H158.363Z" fill="white"/>
<path d="M176.026 114.616V70.6775C176.026 69.0397 176.846 68.2268 178.48 68.2268H181.277C182.917 68.2268 183.731 69.0457 183.701 70.6775V88.8323L192.876 70.0634C193.491 68.8711 194.444 68.2569 195.74 68.2268H198.091C199.526 68.2268 200.237 68.7748 200.273 69.8646C200.273 70.238 200.135 70.6474 199.899 71.093L192.02 86.1828L200.611 114.08C200.749 114.49 200.816 114.899 200.816 115.273C200.816 116.465 200.098 117.079 198.67 117.079H195.637C194.202 117.079 193.286 116.399 192.876 115.068L186.775 95.3114L183.707 101.507V114.622C183.707 116.254 182.887 117.073 181.283 117.073H178.486C176.852 117.073 176.032 116.254 176.032 114.622L176.026 114.616Z" fill="white"/>
</g>
<defs>
<radialGradient id="paint0_radial_114_44" cx="0" cy="0" r="1" gradientUnits="userSpaceOnUse" gradientTransform="translate(121.612 8.78598) rotate(85.3859) scale(40.8022 18.5935)">
<stop stop-color="#FF9900"/>
<stop offset="1" stop-color="#FF5C00"/>
</radialGradient>
<radialGradient id="paint1_radial_114_44" cx="0" cy="0" r="1" gradientUnits="userSpaceOnUse" gradientTransform="translate(121.612 8.78598) rotate(85.3859) scale(40.8022 18.5935)">
<stop stop-color="#FF9900"/>
<stop offset="1" stop-color="#FF5C00"/>
</radialGradient>
<radialGradient id="paint2_radial_114_44" cx="0" cy="0" r="1" gradientUnits="userSpaceOnUse" gradientTransform="translate(121.612 8.78598) rotate(85.3859) scale(40.8022 18.5935)">
<stop stop-color="#FF9900"/>
<stop offset="1" stop-color="#FF5C00"/>
</radialGradient>
<clipPath id="clip0_114_44">
<rect width="201" height="118" fill="white"/>
</clipPath>
</defs>
</svg>
