<svg width="353" height="104" viewBox="0 0 353 104" fill="none" xmlns="http://www.w3.org/2000/svg">
<g clip-path="url(#clip0_2828_42494)">
<rect x="121.236" y="51.5936" width="16.2508" height="39.6261" fill="white"/>
<path d="M0.257812 92.9853V50.428C0.257812 48.8417 1.05837 48.0543 2.65359 48.0543H11.3125C18.7706 48.0543 22.5026 51.9444 22.5026 59.7653V64.4194C22.5026 72.2053 18.7765 76.0954 11.3125 76.0954H7.75123V92.9853C7.75123 94.5658 6.95067 95.359 5.38488 95.359H2.65359C1.05248 95.359 0.257812 94.5658 0.257812 92.9853ZM11.2772 69.3301C12.5075 69.3301 13.4434 68.9976 14.0379 68.3094C14.6324 67.6212 14.9385 66.4606 14.9385 64.8451V59.2346C14.9385 57.6191 14.6383 56.4643 14.0379 55.8053C13.4375 55.1462 12.5369 54.8138 11.3066 54.8138H7.74534V69.3651L11.2772 69.3301Z" fill="black"/>
<path d="M26.5642 92.9853V50.428C26.5642 48.8417 27.3648 48.0543 28.96 48.0543H31.6913C33.2865 48.0543 34.0871 48.8475 34.0576 50.428V88.5937H44.0116C45.6127 88.5937 46.4073 89.3869 46.4073 90.9674V92.9795C46.4073 94.56 45.6068 95.3532 44.0116 95.3532H28.96C27.3589 95.3532 26.5642 94.56 26.5642 92.9795V92.9853Z" fill="black"/>
<path d="M50.7044 95.359C49.2034 95.359 48.4735 94.7 48.5088 93.3469C48.5088 93.2128 48.5441 93.0145 48.5736 92.717L55.7314 50.2297C55.9669 48.7775 56.7969 48.0543 58.2626 48.0543H64.0548C65.5205 48.0543 66.3505 48.7834 66.5507 50.2297L73.7086 92.717C73.7439 92.9795 73.7733 93.1778 73.8086 93.3469C73.8086 94.7 73.0434 95.359 71.5424 95.359H68.8817C67.3159 95.359 66.4506 94.6358 66.2858 93.1836L65.2851 85.9576V86.0917H56.4614L55.4607 93.1836C55.2958 94.6358 54.4305 95.359 52.8648 95.359H50.6985H50.7044ZM64.355 79.688L60.8585 56.301H60.7231L57.3267 79.688H64.355Z" fill="black"/>
<path d="M77.6054 92.9853V50.428C77.6054 48.8417 78.4059 48.0543 80.0011 48.0543H84.8928C86.3585 48.0543 87.2591 48.7484 87.5534 50.1014L94.311 76.3928H94.4464V50.428C94.4464 48.8417 95.247 48.0543 96.8422 48.0543H98.7376C100.333 48.0543 101.133 48.8475 101.133 50.428V92.9853C101.133 94.5658 100.333 95.359 98.7376 95.359H95.5413C94.0756 95.359 93.1749 94.7 92.8747 93.3469L84.416 60.8209H84.2806V92.9853C84.2806 94.5658 83.48 95.359 81.8848 95.359H79.9894C78.3883 95.359 77.5936 94.5658 77.5936 92.9853H77.6054Z" fill="black"/>
<path d="M156.024 92.9853V50.428C156.024 48.8417 156.825 48.0543 158.42 48.0543H163.312C164.777 48.0543 165.678 48.7484 165.978 50.1014L172.736 76.3928H172.871V50.428C172.871 48.8417 173.672 48.0543 175.267 48.0543H177.162C178.758 48.0543 179.558 48.8475 179.558 50.428V92.9853C179.558 94.5658 178.758 95.359 177.162 95.359H173.966C172.5 95.359 171.6 94.7 171.3 93.3469L162.841 60.8209H162.705V92.9853C162.705 94.5658 161.905 95.359 160.31 95.359H158.414C156.813 95.359 156.018 94.5658 156.018 92.9853H156.024Z" fill="black"/>
<path d="M185.127 92.9853V50.428C185.127 48.8417 185.927 48.0543 187.522 48.0543H203.204C204.799 48.0543 205.6 48.8475 205.57 50.428V52.4751C205.57 54.0556 204.77 54.8488 203.204 54.8196H192.614V67.3238H200.537C202.133 67.3238 202.933 68.117 202.904 69.6975V71.7096C202.904 73.2901 202.103 74.0833 200.537 74.0833H192.614V88.5995H203.204C204.799 88.5995 205.6 89.3927 205.57 90.9732V92.9853C205.57 94.5658 204.77 95.359 203.204 95.359H187.522C185.927 95.359 185.127 94.5658 185.127 92.9853Z" fill="black"/>
<path d="M215.724 92.9853V54.8138H210.262C208.667 54.8138 207.866 54.0206 207.895 52.4693V50.4222C207.895 48.8358 208.696 48.0485 210.262 48.0485H228.674C230.276 48.0485 231.07 48.8417 231.07 50.4222V52.4693C231.07 54.0498 230.27 54.843 228.674 54.8138H223.212V92.9853C223.212 94.5658 222.411 95.359 220.846 95.359H218.114C216.519 95.359 215.718 94.5658 215.718 92.9853H215.724Z" fill="black"/>
<path d="M237.734 93.1136L233.372 51.1162L233.307 50.2239C233.307 48.7717 234.043 48.0485 235.538 48.0485H238.004C239.505 48.0485 240.335 48.8067 240.471 50.2939L243.667 84.4062H243.803L247.234 50.2939C247.37 48.8067 248.164 48.0485 249.665 48.0485H253.362C254.863 48.0485 255.693 48.8067 255.829 50.2939L259.225 84.4062H259.36L262.557 50.2939C262.692 48.8067 263.522 48.0485 265.023 48.0485H266.718C268.214 48.0485 268.985 48.7775 268.985 50.2239L268.92 51.1162L264.558 93.1136C264.423 94.6008 263.593 95.359 262.092 95.359H257.265C255.699 95.359 254.869 94.6008 254.734 93.1136L251.537 63.4571H251.402L248.17 93.1136C248.035 94.6008 247.205 95.359 245.674 95.359H240.212C238.717 95.359 237.881 94.6008 237.745 93.1136H237.734Z" fill="black"/>
<path d="M283.654 96.018C279.992 96.018 277.196 94.9974 275.23 92.9153C273.264 90.8333 272.299 87.8997 272.299 84.1088V59.2346C272.299 55.4437 273.264 52.5043 275.23 50.428C277.196 48.3518 280.028 47.3253 283.689 47.3253C287.35 47.3253 290.182 48.3459 292.148 50.428C294.114 52.5043 295.109 55.4437 295.109 59.2346V84.1088C295.109 87.8997 294.143 90.8391 292.177 92.9153C290.211 94.9916 287.38 96.018 283.718 96.018H283.654ZM287.55 84.6045V58.8088C287.55 55.7061 286.25 54.1548 283.654 54.1548C281.058 54.1548 279.757 55.7061 279.757 58.8088V84.6045C279.757 87.7364 281.058 89.2877 283.654 89.2877C286.25 89.2877 287.55 87.7364 287.55 84.6045Z" fill="black"/>
<path d="M302.531 95.359C300.936 95.359 300.136 94.5658 300.136 92.9853V50.428C300.136 48.8417 300.936 48.0543 302.531 48.0543H311.255C315.117 48.0543 317.948 48.9467 319.714 50.7255C321.48 52.5043 322.374 55.2454 322.374 58.9372V61.8416C322.374 66.7581 320.744 69.8608 317.448 71.1789V71.313C320.779 72.3336 322.439 75.6696 322.439 81.3093V89.6202C322.439 91.1015 322.504 92.163 322.639 92.787C322.739 93.2186 322.775 93.5102 322.775 93.6793C322.775 94.7991 322.074 95.359 320.709 95.359H317.712C316.117 95.359 315.246 94.7 315.146 93.3469C315.011 92.5246 314.946 91.2707 314.91 89.556V80.9127C314.91 78.7665 314.575 77.2501 313.88 76.3928C313.18 75.5355 311.985 75.1039 310.248 75.1039H307.653V92.9853C307.653 94.5658 306.852 95.359 305.286 95.359H302.525H302.531ZM310.39 68.3386C311.891 68.3386 313.021 67.942 313.751 67.1838C314.481 66.4256 314.852 65.1367 314.852 63.3229V59.6953C314.852 56.4643 313.586 54.8488 311.055 54.8138H307.623V68.3386H310.39Z" fill="black"/>
<path d="M327.637 92.9853V50.428C327.637 48.8417 328.437 48.0543 330.033 48.0543H332.764C334.365 48.0543 335.16 48.8475 335.13 50.428V68.012L344.089 49.8331C344.69 48.6784 345.62 48.0835 346.886 48.0543H349.181C350.582 48.0543 351.277 48.5851 351.312 49.6407C351.312 50.0023 351.177 50.3989 350.947 50.8304L343.254 65.4458L351.642 92.4663C351.777 92.8628 351.842 93.2594 351.842 93.621C351.842 94.7758 351.141 95.3707 349.746 95.3707H346.785C345.385 95.3707 344.49 94.7116 344.089 93.4227L338.132 74.2874L335.136 80.2887V92.9912C335.136 94.5717 334.336 95.3648 332.77 95.3648H330.039C328.443 95.3648 327.643 94.5717 327.643 92.9912L327.637 92.9853Z" fill="black"/>
<path d="M129.271 73.0102H127.269V81.636H129.842C130.613 81.636 131.19 81.4202 131.566 81.0061C131.943 80.592 132.137 79.8688 132.137 78.8482V76.3987C132.137 75.1214 131.92 74.2408 131.466 73.7509C131.013 73.261 130.277 73.0044 129.271 73.0044V73.0102Z" fill="#FF5C00"/>
<path d="M131.013 68.3036C131.449 67.8546 131.667 67.0905 131.667 66.0291V64.4602C131.667 62.5415 130.913 61.5792 129.412 61.5558H127.258V68.986H129.018C129.906 68.986 130.583 68.7527 131.019 68.2978L131.013 68.3036Z" fill="#FF5C00"/>
<path d="M129.406 38.9854C122.03 38.9854 116.044 44.9108 116.044 52.2244V90.3317C116.044 97.6394 122.025 103.571 129.406 103.571C136.782 103.571 142.768 97.6452 142.768 90.3317V52.2244C142.768 44.9167 136.788 38.9854 129.406 38.9854ZM136.576 78.9882C136.576 81.1636 135.999 82.8141 134.857 83.9513C134.139 84.6629 133.215 85.1469 132.084 85.4152V86.4125C132.084 87.124 131.496 87.7072 130.778 87.7072C130.06 87.7072 129.465 87.124 129.465 86.4125V85.6543H127.258V86.4125C127.258 87.124 126.669 87.7072 125.951 87.7072C125.233 87.7072 124.644 87.124 124.644 86.4125V85.6543H124.238C123.29 85.6543 122.813 85.1819 122.813 84.2429V58.9488C122.813 58.0099 123.29 57.5375 124.238 57.5375H124.644V56.1377C124.644 55.4262 125.233 54.843 125.951 54.843C126.669 54.843 127.258 55.4262 127.258 56.1377V57.5375H129.465V56.1377C129.465 55.4262 130.054 54.843 130.778 54.843C131.502 54.843 132.084 55.4262 132.084 56.1377V57.6541C132.084 57.7124 132.073 57.7649 132.067 57.8174C133.109 58.074 133.945 58.5056 134.563 59.1238C135.61 60.1853 136.146 61.8124 136.146 64.0053V65.1251C136.146 68.0062 135.175 69.8492 133.256 70.6365V70.7123C135.475 71.4588 136.582 73.4184 136.582 76.5736V78.9882H136.576Z" fill="#FF5C00"/>
</g>
<path d="M3.6386 23.828H0V1.3524H9.66C13.7816 1.3524 16.1966 4.025 16.1966 8.1144C16.1966 12.2038 13.7816 14.8764 9.66 14.8764H3.6386V23.828ZM3.6386 4.5402V11.6886H9.4346C11.27 11.6886 12.3648 10.6904 12.3648 8.8872V7.3416C12.3648 5.5384 11.27 4.5402 9.4346 4.5402H3.6386Z" fill="black"/>
<path d="M26.5142 24.2144C21.8452 24.2144 18.8184 20.8012 18.8184 15.456C18.8184 10.1108 21.8452 6.6976 26.5142 6.6976C31.1832 6.6976 34.21 10.1108 34.21 15.456C34.21 20.8012 31.1832 24.2144 26.5142 24.2144ZM26.5142 21.3164C28.897 21.3164 30.507 19.8352 30.507 16.8728V14.0392C30.507 11.0768 28.897 9.5956 26.5142 9.5956C24.1314 9.5956 22.5214 11.0768 22.5214 14.0392V16.8728C22.5214 19.8352 24.1314 21.3164 26.5142 21.3164Z" fill="black"/>
<path d="M41.4427 23.828L36.8703 7.084H40.2835L41.9901 14.1036L43.5035 20.447H43.6001L45.3389 14.1036L47.3675 7.084H50.5231L52.5839 14.1036L54.3549 20.447H54.4515L55.9327 14.1036L57.6715 7.084H60.9237L56.4157 23.828H52.4551L48.9131 11.4954H48.8487L47.5285 16.1966L45.3067 23.828H41.4427Z" fill="black"/>
<path d="M71.2596 24.2144C66.494 24.2144 63.5638 20.8012 63.5638 15.456C63.5638 10.1108 66.494 6.6976 71.2596 6.6976C76.1862 6.6976 78.6978 10.4006 78.6978 15.0374V16.3576H67.2024V16.905C67.2024 19.481 68.7802 21.3164 71.6138 21.3164C73.6746 21.3164 75.0592 20.3504 76.0252 18.8048L78.086 20.8334C76.8302 22.862 74.383 24.2144 71.2596 24.2144ZM71.2596 9.4346C68.8446 9.4346 67.2024 11.2378 67.2024 13.8138V14.0392H74.9948V13.7172C74.9948 11.1412 73.578 9.4346 71.2596 9.4346Z" fill="black"/>
<path d="M86.737 23.828H83.2272V7.084H86.737V10.304H86.898C87.381 8.5974 88.83 7.084 91.5026 7.084H92.4364V10.465H91.0518C88.2826 10.465 86.737 11.3988 86.737 13.1376V23.828Z" fill="black"/>
<path d="M102.609 24.2144C97.8437 24.2144 94.9135 20.8012 94.9135 15.456C94.9135 10.1108 97.8437 6.6976 102.609 6.6976C107.536 6.6976 110.048 10.4006 110.048 15.0374V16.3576H98.5521V16.905C98.5521 19.481 100.13 21.3164 102.964 21.3164C105.024 21.3164 106.409 20.3504 107.375 18.8048L109.436 20.8334C108.18 22.862 105.733 24.2144 102.609 24.2144ZM102.609 9.4346C100.194 9.4346 98.5521 11.2378 98.5521 13.8138V14.0392H106.345V13.7172C106.345 11.1412 104.928 9.4346 102.609 9.4346Z" fill="black"/>
<path d="M125.106 23.828V21.0588H124.945C124.237 23.023 122.466 24.2144 120.244 24.2144C116.026 24.2144 113.579 20.9622 113.579 15.456C113.579 9.9498 116.026 6.6976 120.244 6.6976C122.466 6.6976 124.237 7.8568 124.945 9.8532H125.106V0H128.616V23.828H125.106ZM121.307 21.1876C123.432 21.1876 125.106 20.0284 125.106 18.3218V12.5902C125.106 10.8836 123.432 9.7244 121.307 9.7244C118.892 9.7244 117.282 11.431 117.282 14.007V16.905C117.282 19.481 118.892 21.1876 121.307 21.1876Z" fill="black"/>
<path d="M142.531 23.828V0H146.04V9.8532H146.201C146.91 7.8568 148.681 6.6976 150.903 6.6976C155.121 6.6976 157.568 9.9498 157.568 15.456C157.568 20.9622 155.121 24.2144 150.903 24.2144C148.681 24.2144 146.91 23.023 146.201 21.0588H146.04V23.828H142.531ZM149.84 21.1876C152.255 21.1876 153.865 19.481 153.865 16.905V14.007C153.865 11.431 152.255 9.7244 149.84 9.7244C147.715 9.7244 146.04 10.8836 146.04 12.5902V18.3218C146.04 20.0284 147.715 21.1876 149.84 21.1876Z" fill="black"/>
<path d="M168.933 16.9372L172.282 7.084H175.663L168.611 27.1446C167.806 29.3986 166.808 30.268 164.2 30.268H162.171V27.4022H165.005L165.971 24.5686L159.885 7.084H163.395L166.744 16.9372L167.71 20.5758H167.871L168.933 16.9372Z" fill="black"/>
<defs>
<clipPath id="clip0_2828_42494">
<rect width="352.1" height="65.1" fill="white" transform="translate(0 38.728)"/>
</clipPath>
</defs>
</svg>
