<svg width="353" height="118" viewBox="0 0 353 118" fill="none" xmlns="http://www.w3.org/2000/svg">
<g clip-path="url(#clip0_2828_42566)">
<rect x="121.236" y="65.5654" width="16.2508" height="39.6261" fill="white"/>
<path d="M0.257812 106.957V64.3998C0.257812 62.8135 1.05837 62.0261 2.65359 62.0261H11.3125C18.7706 62.0261 22.5026 65.9162 22.5026 73.7371V78.3912C22.5026 86.1771 18.7765 90.0672 11.3125 90.0672H7.75123V106.957C7.75123 108.538 6.95067 109.331 5.38488 109.331H2.65359C1.05248 109.331 0.257812 108.538 0.257812 106.957ZM11.2772 83.3019C12.5075 83.3019 13.4434 82.9694 14.0379 82.2812C14.6324 81.593 14.9385 80.4324 14.9385 78.8169V73.2064C14.9385 71.5909 14.6383 70.4361 14.0379 69.7771C13.4375 69.1181 12.5369 68.7856 11.3066 68.7856H7.74534V83.3369L11.2772 83.3019Z" fill="white"/>
<path d="M26.5642 106.957V64.3998C26.5642 62.8135 27.3648 62.0261 28.96 62.0261H31.6913C33.2865 62.0261 34.0871 62.8193 34.0576 64.3998V102.566H44.0116C45.6127 102.566 46.4073 103.359 46.4073 104.939V106.951C46.4073 108.532 45.6068 109.325 44.0116 109.325H28.96C27.3589 109.325 26.5642 108.532 26.5642 106.951V106.957Z" fill="white"/>
<path d="M50.7044 109.331C49.2034 109.331 48.4735 108.672 48.5088 107.319C48.5088 107.185 48.5441 106.986 48.5736 106.689L55.7314 64.2015C55.9669 62.7493 56.7969 62.0261 58.2626 62.0261H64.0548C65.5205 62.0261 66.3505 62.7552 66.5507 64.2015L73.7086 106.689C73.7439 106.951 73.7733 107.15 73.8086 107.319C73.8086 108.672 73.0434 109.331 71.5424 109.331H68.8817C67.3159 109.331 66.4506 108.608 66.2858 107.155L65.2851 99.9294V100.064H56.4614L55.4607 107.155C55.2958 108.608 54.4305 109.331 52.8648 109.331H50.6985H50.7044ZM64.355 93.6598L60.8585 70.2728H60.7231L57.3267 93.6598H64.355Z" fill="white"/>
<path d="M77.6054 106.957V64.3998C77.6054 62.8135 78.4059 62.0261 80.0011 62.0261H84.8928C86.3585 62.0261 87.2591 62.7202 87.5534 64.0732L94.311 90.3646H94.4464V64.3998C94.4464 62.8135 95.247 62.0261 96.8422 62.0261H98.7376C100.333 62.0261 101.133 62.8193 101.133 64.3998V106.957C101.133 108.538 100.333 109.331 98.7376 109.331H95.5413C94.0756 109.331 93.1749 108.672 92.8747 107.319L84.416 74.7927H84.2806V106.957C84.2806 108.538 83.48 109.331 81.8848 109.331H79.9894C78.3883 109.331 77.5936 108.538 77.5936 106.957H77.6054Z" fill="white"/>
<path d="M156.024 106.957V64.3998C156.024 62.8135 156.825 62.0261 158.42 62.0261H163.312C164.777 62.0261 165.678 62.7202 165.978 64.0732L172.736 90.3646H172.871V64.3998C172.871 62.8135 173.672 62.0261 175.267 62.0261H177.162C178.758 62.0261 179.558 62.8193 179.558 64.3998V106.957C179.558 108.538 178.758 109.331 177.162 109.331H173.966C172.5 109.331 171.6 108.672 171.3 107.319L162.841 74.7927H162.705V106.957C162.705 108.538 161.905 109.331 160.31 109.331H158.414C156.813 109.331 156.018 108.538 156.018 106.957H156.024Z" fill="white"/>
<path d="M185.127 106.957V64.3998C185.127 62.8135 185.927 62.0261 187.522 62.0261H203.204C204.799 62.0261 205.6 62.8193 205.57 64.3998V66.4469C205.57 68.0274 204.77 68.8206 203.204 68.7914H192.614V81.2956H200.537C202.133 81.2956 202.933 82.0888 202.904 83.6693V85.6814C202.904 87.2619 202.103 88.0551 200.537 88.0551H192.614V102.571H203.204C204.799 102.571 205.6 103.365 205.57 104.945V106.957C205.57 108.538 204.77 109.331 203.204 109.331H187.522C185.927 109.331 185.127 108.538 185.127 106.957Z" fill="white"/>
<path d="M215.724 106.957V68.7856H210.262C208.667 68.7856 207.866 67.9924 207.895 66.4411V64.394C207.895 62.8076 208.696 62.0203 210.262 62.0203H228.674C230.276 62.0203 231.07 62.8135 231.07 64.394V66.4411C231.07 68.0216 230.27 68.8148 228.674 68.7856H223.212V106.957C223.212 108.538 222.411 109.331 220.846 109.331H218.114C216.519 109.331 215.718 108.538 215.718 106.957H215.724Z" fill="white"/>
<path d="M237.734 107.085L233.372 65.088L233.307 64.1957C233.307 62.7435 234.043 62.0203 235.538 62.0203H238.004C239.505 62.0203 240.335 62.7785 240.471 64.2657L243.667 98.378H243.803L247.234 64.2657C247.37 62.7785 248.164 62.0203 249.665 62.0203H253.362C254.863 62.0203 255.693 62.7785 255.829 64.2657L259.225 98.378H259.36L262.557 64.2657C262.692 62.7785 263.522 62.0203 265.023 62.0203H266.718C268.214 62.0203 268.985 62.7493 268.985 64.1957L268.92 65.088L264.558 107.085C264.423 108.573 263.593 109.331 262.092 109.331H257.265C255.699 109.331 254.869 108.573 254.734 107.085L251.537 77.4289H251.402L248.17 107.085C248.035 108.573 247.205 109.331 245.674 109.331H240.212C238.717 109.331 237.881 108.573 237.745 107.085H237.734Z" fill="white"/>
<path d="M283.654 109.99C279.992 109.99 277.196 108.969 275.23 106.887C273.264 104.805 272.299 101.871 272.299 98.0806V73.2064C272.299 69.4155 273.264 66.4761 275.23 64.3998C277.196 62.3236 280.028 61.2971 283.689 61.2971C287.35 61.2971 290.182 62.3177 292.148 64.3998C294.114 66.4761 295.109 69.4155 295.109 73.2064V98.0806C295.109 101.871 294.143 104.811 292.177 106.887C290.211 108.963 287.38 109.99 283.718 109.99H283.654ZM287.55 98.5763V72.7807C287.55 69.6779 286.25 68.1266 283.654 68.1266C281.058 68.1266 279.757 69.6779 279.757 72.7807V98.5763C279.757 101.708 281.058 103.26 283.654 103.26C286.25 103.26 287.55 101.708 287.55 98.5763Z" fill="white"/>
<path d="M302.531 109.331C300.936 109.331 300.136 108.538 300.136 106.957V64.3998C300.136 62.8135 300.936 62.0261 302.531 62.0261H311.255C315.117 62.0261 317.948 62.9185 319.714 64.6973C321.48 66.4761 322.374 69.2172 322.374 72.909V75.8134C322.374 80.7299 320.744 83.8326 317.448 85.1507V85.2848C320.779 86.3054 322.439 89.6414 322.439 95.2811V103.592C322.439 105.073 322.504 106.135 322.639 106.759C322.739 107.19 322.775 107.482 322.775 107.651C322.775 108.771 322.074 109.331 320.709 109.331H317.712C316.117 109.331 315.246 108.672 315.146 107.319C315.011 106.496 314.946 105.242 314.91 103.528V94.8846C314.91 92.7383 314.575 91.222 313.88 90.3646C313.18 89.5073 311.985 89.0757 310.248 89.0757H307.653V106.957C307.653 108.538 306.852 109.331 305.286 109.331H302.525H302.531ZM310.39 82.3104C311.891 82.3104 313.021 81.9138 313.751 81.1556C314.481 80.3975 314.852 79.1085 314.852 77.2947V73.6671C314.852 70.4361 313.586 68.8206 311.055 68.7856H307.623V82.3104H310.39Z" fill="white"/>
<path d="M327.637 106.957V64.3998C327.637 62.8135 328.437 62.0261 330.033 62.0261H332.764C334.365 62.0261 335.16 62.8193 335.13 64.3998V81.9838L344.089 63.8049C344.69 62.6502 345.62 62.0553 346.886 62.0261H349.181C350.582 62.0261 351.277 62.5569 351.312 63.6125C351.312 63.9741 351.177 64.3707 350.947 64.8022L343.254 79.4177L351.642 106.438C351.777 106.835 351.842 107.231 351.842 107.593C351.842 108.748 351.141 109.342 349.746 109.342H346.785C345.385 109.342 344.49 108.683 344.089 107.395L338.132 88.2592L335.136 94.2605V106.963C335.136 108.543 334.336 109.337 332.77 109.337H330.039C328.443 109.337 327.643 108.543 327.643 106.963L327.637 106.957Z" fill="white"/>
<path d="M129.271 86.9821H127.269V95.6079H129.842C130.613 95.6079 131.19 95.3921 131.566 94.978C131.943 94.5639 132.137 93.8407 132.137 92.8201V90.3706C132.137 89.0934 131.92 88.2127 131.466 87.7228C131.013 87.2329 130.277 86.9763 129.271 86.9763V86.9821Z" fill="#FF5C00"/>
<path d="M131.013 82.2756C131.449 81.8265 131.667 81.0625 131.667 80.001V78.4322C131.667 76.5134 130.913 75.5511 129.412 75.5277H127.258V82.9579H129.018C129.906 82.9579 130.583 82.7246 131.019 82.2697L131.013 82.2756Z" fill="#FF5C00"/>
<path d="M129.406 52.9573C122.03 52.9573 116.044 58.8828 116.044 66.1963V104.304C116.044 111.611 122.025 117.543 129.406 117.543C136.782 117.543 142.768 111.617 142.768 104.304V66.1963C142.768 58.8886 136.788 52.9573 129.406 52.9573ZM136.576 92.9601C136.576 95.1355 135.999 96.786 134.857 97.9233C134.139 98.6348 133.215 99.1188 132.084 99.3871V100.384C132.084 101.096 131.496 101.679 130.778 101.679C130.06 101.679 129.465 101.096 129.465 100.384V99.6262H127.258V100.384C127.258 101.096 126.669 101.679 125.951 101.679C125.233 101.679 124.644 101.096 124.644 100.384V99.6262H124.238C123.29 99.6262 122.813 99.1538 122.813 98.2149V72.9208C122.813 71.9818 123.29 71.5094 124.238 71.5094H124.644V70.1097C124.644 69.3981 125.233 68.8149 125.951 68.8149C126.669 68.8149 127.258 69.3981 127.258 70.1097V71.5094H129.465V70.1097C129.465 69.3981 130.054 68.8149 130.778 68.8149C131.502 68.8149 132.084 69.3981 132.084 70.1097V71.626C132.084 71.6843 132.073 71.7368 132.067 71.7893C133.109 72.0459 133.945 72.4775 134.563 73.0957C135.61 74.1572 136.146 75.7844 136.146 77.9773V79.097C136.146 81.9781 135.175 83.8211 133.256 84.6084V84.6842C135.475 85.4308 136.582 87.3904 136.582 90.5456V92.9601H136.576Z" fill="#FF5C00"/>
</g>
<path d="M93.9876 22.792H91V1.2936H99.8704C103.751 1.2936 105.969 3.7884 105.969 7.6076C105.969 11.4268 103.751 13.9216 99.8704 13.9216H93.9876V22.792ZM93.9876 3.9424V11.2728H99.7472C101.657 11.2728 102.796 10.2256 102.796 8.3776V6.8376C102.796 4.9896 101.657 3.9424 99.7472 3.9424H93.9876Z" fill="white"/>
<path d="M115.877 23.1616C111.534 23.1616 108.608 19.8968 108.608 14.8148C108.608 9.7328 111.534 6.468 115.877 6.468C120.219 6.468 123.145 9.7328 123.145 14.8148C123.145 19.8968 120.219 23.1616 115.877 23.1616ZM115.877 20.6976C118.371 20.6976 120.096 19.1268 120.096 16.016V13.6136C120.096 10.5028 118.371 8.932 115.877 8.932C113.382 8.932 111.657 10.5028 111.657 13.6136V16.016C111.657 19.1268 113.382 20.6976 115.877 20.6976Z" fill="white"/>
<path d="M130.127 22.792L125.845 6.8376H128.617L131.882 20.2048H131.944L133.761 13.6444L135.732 6.8376H138.289L140.321 13.6444L142.169 20.2048H142.262L143.771 13.6444L145.465 6.8376H148.145L143.894 22.792H140.506L138.35 15.3076L136.995 10.626H136.933L135.609 15.3076L133.453 22.792H130.127Z" fill="white"/>
<path d="M158.104 23.1616C153.669 23.1616 150.866 19.866 150.866 14.8148C150.866 9.7636 153.669 6.468 158.104 6.468C162.57 6.468 165.096 9.856 165.096 14.322V15.5232H153.854V16.17C153.854 18.8188 155.486 20.7284 158.351 20.7284C160.353 20.7284 161.8 19.7736 162.663 18.1412L164.511 19.712C163.402 21.7756 161.092 23.1616 158.104 23.1616ZM158.104 8.778C155.609 8.778 153.854 10.6876 153.854 13.3056V13.5212H162.047V13.2132C162.047 10.5644 160.507 8.778 158.104 8.778Z" fill="white"/>
<path d="M172.48 22.792H169.616V6.8376H172.48V9.8868H172.634C173.158 8.316 174.575 6.8376 177.131 6.8376H178.086V9.702H176.669C174.02 9.702 172.48 10.7492 172.48 12.32V22.792Z" fill="white"/>
<path d="M187.73 23.1616C183.295 23.1616 180.492 19.866 180.492 14.8148C180.492 9.7636 183.295 6.468 187.73 6.468C192.196 6.468 194.722 9.856 194.722 14.322V15.5232H183.48V16.17C183.48 18.8188 185.112 20.7284 187.976 20.7284C189.978 20.7284 191.426 19.7736 192.288 18.1412L194.136 19.712C193.028 21.7756 190.718 23.1616 187.73 23.1616ZM187.73 8.778C185.235 8.778 183.48 10.6876 183.48 13.3056V13.5212H191.672V13.2132C191.672 10.5644 190.132 8.778 187.73 8.778Z" fill="white"/>
<path d="M209.344 22.792V20.174H209.221C208.482 22.1452 206.819 23.1616 204.632 23.1616C200.628 23.1616 198.225 19.9892 198.225 14.8148C198.225 9.6404 200.628 6.468 204.632 6.468C206.819 6.468 208.482 7.4844 209.221 9.4556H209.344V0H212.209V22.792H209.344ZM205.463 20.6668C207.619 20.6668 209.344 19.4348 209.344 17.7408V11.8888C209.344 10.1948 207.619 8.9628 205.463 8.9628C202.907 8.9628 201.275 10.78 201.275 13.4596V16.17C201.275 18.8496 202.907 20.6668 205.463 20.6668Z" fill="white"/>
<path d="M225.769 22.792V0H228.634V9.4556H228.757C229.496 7.4844 231.159 6.468 233.346 6.468C237.35 6.468 239.753 9.6404 239.753 14.8148C239.753 19.9892 237.35 23.1616 233.346 23.1616C231.159 23.1616 229.496 22.1452 228.757 20.174H228.634V22.792H225.769ZM232.515 20.6668C235.071 20.6668 236.703 18.8496 236.703 16.17V13.4596C236.703 10.78 235.071 8.9628 232.515 8.9628C230.359 8.9628 228.634 10.1948 228.634 11.8888V17.7408C228.634 19.4348 230.359 20.6668 232.515 20.6668Z" fill="white"/>
<path d="M250.474 17.0324L254.047 6.8376H256.819L249.889 26.2724C249.15 28.2744 248.38 28.952 245.947 28.952H244.376V26.5188H246.994L248.072 23.4388L242.158 6.8376H245.023L248.565 17.0324L249.396 20.02H249.55L250.474 17.0324Z" fill="white"/>
<defs>
<clipPath id="clip0_2828_42566">
<rect width="352.1" height="65.1" fill="white" transform="translate(0 52.7)"/>
</clipPath>
</defs>
</svg>
