<svg width="353" height="85" viewBox="0 0 353 85" fill="none" xmlns="http://www.w3.org/2000/svg">
<g clip-path="url(#clip0_2828_42455)">
<rect x="121.236" y="31.6615" width="16.2508" height="39.705" fill="white"/>
<path d="M0.257812 73.1357V30.4937C0.257812 28.9041 1.05837 28.1152 2.65359 28.1152H11.3125C18.7706 28.1152 22.5026 32.013 22.5026 39.8496V44.5129C22.5026 52.3143 18.7765 56.2121 11.3125 56.2121H7.75123V73.1357C7.75123 74.7194 6.95067 75.5141 5.38488 75.5141H2.65359C1.05248 75.5141 0.257812 74.7194 0.257812 73.1357ZM11.2772 49.4333C12.5075 49.4333 13.4434 49.1003 14.0379 48.4107C14.6324 47.7211 14.9385 46.5582 14.9385 44.9395V39.3178C14.9385 37.699 14.6383 36.542 14.0379 35.8816C13.4375 35.2213 12.5369 34.8882 11.3066 34.8882H7.74534V49.4684L11.2772 49.4333Z" fill="black"/>
<path d="M26.5642 73.1357V30.4937C26.5642 28.9041 27.3648 28.1152 28.96 28.1152H31.6913C33.2865 28.1152 34.0871 28.91 34.0576 30.4937V68.7354H44.0116C45.6127 68.7354 46.4073 69.5301 46.4073 71.1138V73.1299C46.4073 74.7135 45.6068 75.5083 44.0116 75.5083H28.96C27.3589 75.5083 26.5642 74.7135 26.5642 73.1299V73.1357Z" fill="black"/>
<path d="M50.7044 75.5141C49.2034 75.5141 48.4735 74.8538 48.5088 73.498C48.5088 73.3636 48.5441 73.1649 48.5736 72.8669L55.7314 30.295C55.9669 28.8399 56.7969 28.1152 58.2626 28.1152H64.0548C65.5205 28.1152 66.3505 28.8457 66.5507 30.295L73.7086 72.8669C73.7439 73.1299 73.7733 73.3286 73.8086 73.498C73.8086 74.8538 73.0434 75.5141 71.5424 75.5141H68.8817C67.3159 75.5141 66.4506 74.7895 66.2858 73.3344L65.2851 66.094V66.2284H56.4614L55.4607 73.3344C55.2958 74.7895 54.4305 75.5141 52.8648 75.5141H50.6985H50.7044ZM64.355 59.8119L60.8585 36.3783H60.7231L57.3267 59.8119H64.355Z" fill="black"/>
<path d="M77.6054 73.1357V30.4937C77.6054 28.9041 78.4059 28.1152 80.0011 28.1152H84.8928C86.3585 28.1152 87.2591 28.8106 87.5534 30.1664L94.311 56.5102H94.4464V30.4937C94.4464 28.9041 95.247 28.1152 96.8422 28.1152H98.7376C100.333 28.1152 101.133 28.91 101.133 30.4937V73.1357C101.133 74.7194 100.333 75.5141 98.7376 75.5141H95.5413C94.0756 75.5141 93.1749 74.8538 92.8747 73.498L84.416 40.9073H84.2806V73.1357C84.2806 74.7194 83.48 75.5141 81.8848 75.5141H79.9894C78.3883 75.5141 77.5936 74.7194 77.5936 73.1357H77.6054Z" fill="black"/>
<path d="M156.024 73.1357V30.4937C156.024 28.9041 156.825 28.1152 158.42 28.1152H163.312C164.777 28.1152 165.678 28.8106 165.978 30.1664L172.736 56.5102H172.871V30.4937C172.871 28.9041 173.672 28.1152 175.267 28.1152H177.162C178.758 28.1152 179.558 28.91 179.558 30.4937V73.1357C179.558 74.7194 178.758 75.5141 177.162 75.5141H173.966C172.5 75.5141 171.6 74.8538 171.3 73.498L162.841 40.9073H162.705V73.1357C162.705 74.7194 161.905 75.5141 160.31 75.5141H158.414C156.813 75.5141 156.018 74.7194 156.018 73.1357H156.024Z" fill="black"/>
<path d="M185.127 73.1357V30.4937C185.127 28.9041 185.927 28.1152 187.522 28.1152H203.204C204.799 28.1152 205.6 28.91 205.57 30.4937V32.5448C205.57 34.1285 204.77 34.9232 203.204 34.894H192.614V47.4231H200.537C202.133 47.4231 202.933 48.2178 202.904 49.8015V51.8176C202.904 53.4013 202.103 54.196 200.537 54.196H192.614V68.7412H203.204C204.799 68.7412 205.6 69.536 205.57 71.1196V73.1357C205.57 74.7194 204.77 75.5141 203.204 75.5141H187.522C185.927 75.5141 185.127 74.7194 185.127 73.1357Z" fill="black"/>
<path d="M215.724 73.1357V34.8882H210.262C208.667 34.8882 207.866 34.0934 207.895 32.539V30.4878C207.895 28.8983 208.696 28.1094 210.262 28.1094H228.674C230.276 28.1094 231.07 28.9041 231.07 30.4878V32.539C231.07 34.1226 230.27 34.9174 228.674 34.8882H223.212V73.1357C223.212 74.7194 222.411 75.5141 220.846 75.5141H218.114C216.519 75.5141 215.718 74.7194 215.718 73.1357H215.724Z" fill="black"/>
<path d="M237.734 73.2643L233.372 31.1832L233.307 30.2891C233.307 28.834 234.043 28.1094 235.538 28.1094H238.004C239.505 28.1094 240.335 28.8691 240.471 30.3592L243.667 64.5395H243.803L247.234 30.3592C247.37 28.8691 248.164 28.1094 249.665 28.1094H253.362C254.863 28.1094 255.693 28.8691 255.829 30.3592L259.225 64.5395H259.36L262.557 30.3592C262.692 28.8691 263.522 28.1094 265.023 28.1094H266.718C268.214 28.1094 268.985 28.8399 268.985 30.2891L268.92 31.1832L264.558 73.2643C264.423 74.7545 263.593 75.5141 262.092 75.5141H257.265C255.699 75.5141 254.869 74.7545 254.734 73.2643L251.537 43.5487H251.402L248.17 73.2643C248.035 74.7545 247.205 75.5141 245.674 75.5141H240.212C238.717 75.5141 237.881 74.7545 237.745 73.2643H237.734Z" fill="black"/>
<path d="M283.654 76.1745C279.992 76.1745 277.196 75.1518 275.23 73.0656C273.264 70.9794 272.299 68.04 272.299 64.2415V39.3178C272.299 35.5193 273.264 32.574 275.23 30.4937C277.196 28.4133 280.028 27.3848 283.689 27.3848C287.35 27.3848 290.182 28.4074 292.148 30.4937C294.114 32.574 295.109 35.5193 295.109 39.3178V64.2415C295.109 68.04 294.143 70.9852 292.177 73.0656C290.211 75.146 287.38 76.1745 283.718 76.1745H283.654ZM287.55 64.7382V38.8912C287.55 35.7823 286.25 34.2278 283.654 34.2278C281.058 34.2278 279.757 35.7823 279.757 38.8912V64.7382C279.757 67.8763 281.058 69.4308 283.654 69.4308C286.25 69.4308 287.55 67.8763 287.55 64.7382Z" fill="black"/>
<path d="M302.531 75.5141C300.936 75.5141 300.136 74.7194 300.136 73.1357V30.4937C300.136 28.9041 300.936 28.1152 302.531 28.1152H311.255C315.117 28.1152 317.948 29.0093 319.714 30.7917C321.48 32.574 322.374 35.3206 322.374 39.0197V41.9299C322.374 46.8562 320.744 49.9651 317.448 51.2858V51.4202C320.779 52.4429 322.439 55.7855 322.439 61.4365V69.7639C322.439 71.2482 322.504 72.3117 322.639 72.937C322.739 73.3695 322.775 73.6617 322.775 73.8311C322.775 74.9531 322.074 75.5141 320.709 75.5141H317.712C316.117 75.5141 315.246 74.8538 315.146 73.498C315.011 72.6741 314.946 71.4177 314.91 69.6996V61.0391C314.91 58.8886 314.575 57.3692 313.88 56.5102C313.18 55.6511 311.985 55.2187 310.248 55.2187H307.653V73.1357C307.653 74.7194 306.852 75.5141 305.286 75.5141H302.525H302.531ZM310.39 48.4399C311.891 48.4399 313.021 48.0425 313.751 47.2828C314.481 46.5231 314.852 45.2317 314.852 43.4143V39.7794C314.852 36.542 313.586 34.9232 311.055 34.8882H307.623V48.4399H310.39Z" fill="black"/>
<path d="M327.637 73.1357V30.4937C327.637 28.9041 328.437 28.1152 330.033 28.1152H332.764C334.365 28.1152 335.16 28.91 335.13 30.4937V48.1127L344.089 29.8976C344.69 28.7405 345.62 28.1445 346.886 28.1152H349.181C350.582 28.1152 351.277 28.647 351.312 29.7047C351.312 30.0671 351.177 30.4644 350.947 30.8969L343.254 45.5414L351.642 72.6156C351.777 73.013 351.842 73.4104 351.842 73.7727C351.842 74.9298 351.141 75.5258 349.746 75.5258H346.785C345.385 75.5258 344.49 74.8655 344.089 73.574L338.132 54.4006L335.136 60.4138V73.1416C335.136 74.7252 334.336 75.52 332.77 75.52H330.039C328.443 75.52 327.643 74.7252 327.643 73.1416L327.637 73.1357Z" fill="black"/>
<path d="M129.271 53.1207H127.269V61.7636H129.842C130.613 61.7636 131.19 61.5474 131.566 61.1325C131.943 60.7176 132.137 59.993 132.137 58.9703V56.5159C132.137 55.2361 131.92 54.3537 131.466 53.8629C131.013 53.372 130.277 53.1149 129.271 53.1149V53.1207Z" fill="url(#paint0_radial_2828_42455)"/>
<path d="M131.013 48.4048C131.449 47.9548 131.667 47.1893 131.667 46.1257V44.5537C131.667 42.6311 130.913 41.6669 129.412 41.6435H127.258V49.0885H129.018C129.906 49.0885 130.583 48.8547 131.019 48.3989L131.013 48.4048Z" fill="url(#paint1_radial_2828_42455)"/>
<path d="M129.406 19.0281C122.03 19.0281 116.044 24.9654 116.044 32.2935V70.4767C116.044 77.799 122.025 83.7421 129.406 83.7421C136.782 83.7421 142.768 77.8048 142.768 70.4767V32.2935C142.768 24.9712 136.788 19.0281 129.406 19.0281ZM136.576 59.1106C136.576 61.2903 135.999 62.9441 134.857 64.0836C134.139 64.7966 133.215 65.2816 132.084 65.5504V66.5497C132.084 67.2626 131.496 67.847 130.778 67.847C130.06 67.847 129.465 67.2626 129.465 66.5497V65.79H127.258V66.5497C127.258 67.2626 126.669 67.847 125.951 67.847C125.233 67.847 124.644 67.2626 124.644 66.5497V65.79H124.238C123.29 65.79 122.813 65.3167 122.813 64.3758V39.0313C122.813 38.0905 123.29 37.6171 124.238 37.6171H124.644V36.2146C124.644 35.5017 125.233 34.9173 125.951 34.9173C126.669 34.9173 127.258 35.5017 127.258 36.2146V37.6171H129.465V36.2146C129.465 35.5017 130.054 34.9173 130.778 34.9173C131.502 34.9173 132.084 35.5017 132.084 36.2146V37.734C132.084 37.7925 132.073 37.8451 132.067 37.8976C133.109 38.1548 133.945 38.5872 134.563 39.2067C135.61 40.2702 136.146 41.9006 136.146 44.0979V45.2199C136.146 48.1067 135.175 49.9534 133.256 50.7423V50.8182C135.475 51.5662 136.582 53.5298 136.582 56.6912V59.1106H136.576Z" fill="url(#paint2_radial_2828_42455)"/>
</g>
<path d="M3.62154 13.468H1.56494V0.7644H7.02494C9.35454 0.7644 10.7195 2.275 10.7195 4.5864C10.7195 6.8978 9.35454 8.4084 7.02494 8.4084H3.62154V13.468ZM3.62154 2.5662V6.6066H6.89754C7.93494 6.6066 8.55374 6.0424 8.55374 5.0232V4.1496C8.55374 3.1304 7.93494 2.5662 6.89754 2.5662H3.62154Z" fill="black"/>
<path d="M16.5512 13.6864C13.9122 13.6864 12.2014 11.7572 12.2014 8.736C12.2014 5.7148 13.9122 3.7856 16.5512 3.7856C19.1902 3.7856 20.901 5.7148 20.901 8.736C20.901 11.7572 19.1902 13.6864 16.5512 13.6864ZM16.5512 12.0484C17.898 12.0484 18.808 11.2112 18.808 9.5368V7.9352C18.808 6.2608 17.898 5.4236 16.5512 5.4236C15.2044 5.4236 14.2944 6.2608 14.2944 7.9352V9.5368C14.2944 11.2112 15.2044 12.0484 16.5512 12.0484Z" fill="black"/>
<path d="M24.9891 13.468L22.4047 4.004H24.3339L25.2985 7.9716L26.1539 11.557H26.2085L27.1913 7.9716L28.3379 4.004H30.1215L31.2863 7.9716L32.2873 11.557H32.3419L33.1791 7.9716L34.1619 4.004H36.0001L33.4521 13.468H31.2135L29.2115 6.4974H29.1751L28.4289 9.1546L27.1731 13.468H24.9891Z" fill="black"/>
<path d="M41.8421 13.6864C39.1485 13.6864 37.4923 11.7572 37.4923 8.736C37.4923 5.7148 39.1485 3.7856 41.8421 3.7856C44.6267 3.7856 46.0463 5.8786 46.0463 8.4994V9.2456H39.5489V9.555C39.5489 11.011 40.4407 12.0484 42.0423 12.0484C43.2071 12.0484 43.9897 11.5024 44.5357 10.6288L45.7005 11.7754C44.9907 12.922 43.6075 13.6864 41.8421 13.6864ZM41.8421 5.3326C40.4771 5.3326 39.5489 6.3518 39.5489 7.8078V7.9352H43.9533V7.7532C43.9533 6.2972 43.1525 5.3326 41.8421 5.3326Z" fill="black"/>
<path d="M50.5902 13.468H48.6064V4.004H50.5902V5.824H50.6812C50.9542 4.8594 51.7732 4.004 53.2838 4.004H53.8116V5.915H53.029C51.4638 5.915 50.5902 6.4428 50.5902 7.4256V13.468Z" fill="black"/>
<path d="M59.5615 13.6864C56.8679 13.6864 55.2117 11.7572 55.2117 8.736C55.2117 5.7148 56.8679 3.7856 59.5615 3.7856C62.3461 3.7856 63.7657 5.8786 63.7657 8.4994V9.2456H57.2683V9.555C57.2683 11.011 58.1601 12.0484 59.7617 12.0484C60.9265 12.0484 61.7091 11.5024 62.2551 10.6288L63.4199 11.7754C62.7101 12.922 61.3269 13.6864 59.5615 13.6864ZM59.5615 5.3326C58.1965 5.3326 57.2683 6.3518 57.2683 7.8078V7.9352H61.6727V7.7532C61.6727 6.2972 60.8719 5.3326 59.5615 5.3326Z" fill="black"/>
<path d="M72.2772 13.468V11.9028H72.1862C71.7858 13.013 70.7848 13.6864 69.529 13.6864C67.1448 13.6864 65.7616 11.8482 65.7616 8.736C65.7616 5.6238 67.1448 3.7856 69.529 3.7856C70.7848 3.7856 71.7858 4.4408 72.1862 5.5692H72.2772V0H74.261V13.468H72.2772ZM70.1296 11.9756C71.3308 11.9756 72.2772 11.3204 72.2772 10.3558V7.1162C72.2772 6.1516 71.3308 5.4964 70.1296 5.4964C68.7646 5.4964 67.8546 6.461 67.8546 7.917V9.555C67.8546 11.011 68.7646 11.9756 70.1296 11.9756Z" fill="black"/>
<path d="M82.1257 13.468V0H84.1095V5.5692H84.2005C84.6009 4.4408 85.6019 3.7856 86.8577 3.7856C89.2419 3.7856 90.6251 5.6238 90.6251 8.736C90.6251 11.8482 89.2419 13.6864 86.8577 13.6864C85.6019 13.6864 84.6009 13.013 84.2005 11.9028H84.1095V13.468H82.1257ZM86.2571 11.9756C87.6221 11.9756 88.5321 11.011 88.5321 9.555V7.917C88.5321 6.461 87.6221 5.4964 86.2571 5.4964C85.0559 5.4964 84.1095 6.1516 84.1095 7.1162V10.3558C84.1095 11.3204 85.0559 11.9756 86.2571 11.9756Z" fill="black"/>
<path d="M97.049 9.5732L98.9418 4.004H100.853L96.867 15.3426C96.412 16.6166 95.8478 17.108 94.3736 17.108H93.227V15.4882H94.8286L95.3746 13.8866L91.9348 4.004H93.9186L95.8114 9.5732L96.3574 11.6298H96.4484L97.049 9.5732Z" fill="black"/>
<defs>
<radialGradient id="paint0_radial_2828_42455" cx="0" cy="0" r="1" gradientUnits="userSpaceOnUse" gradientTransform="translate(123.558 27.5363) rotate(85.8219) scale(40.7156 16.8139)">
<stop stop-color="#FF9900"/>
<stop offset="1" stop-color="#FF5C00"/>
</radialGradient>
<radialGradient id="paint1_radial_2828_42455" cx="0" cy="0" r="1" gradientUnits="userSpaceOnUse" gradientTransform="translate(123.558 27.5363) rotate(85.8219) scale(40.7156 16.8139)">
<stop stop-color="#FF9900"/>
<stop offset="1" stop-color="#FF5C00"/>
</radialGradient>
<radialGradient id="paint2_radial_2828_42455" cx="0" cy="0" r="1" gradientUnits="userSpaceOnUse" gradientTransform="translate(123.558 27.5363) rotate(85.8219) scale(40.7156 16.8139)">
<stop stop-color="#FF9900"/>
<stop offset="1" stop-color="#FF5C00"/>
</radialGradient>
<clipPath id="clip0_2828_42455">
<rect width="352.1" height="65.2297" fill="white" transform="translate(0 18.7703)"/>
</clipPath>
</defs>
</svg>
