<svg width="353" height="85" viewBox="0 0 353 85" fill="none" xmlns="http://www.w3.org/2000/svg">
<g clip-path="url(#clip0_2828_42457)">
<path d="M0.257812 73.1356V30.4936C0.257812 28.9041 1.05837 28.1152 2.65359 28.1152H11.3125C18.7706 28.1152 22.5026 32.013 22.5026 39.8495V44.5128C22.5026 52.3143 18.7765 56.2121 11.3125 56.2121H7.75123V73.1356C7.75123 74.7193 6.95067 75.5141 5.38488 75.5141H2.65359C1.05248 75.5141 0.257812 74.7193 0.257812 73.1356ZM11.2772 49.4333C12.5075 49.4333 13.4434 49.1002 14.0379 48.4106C14.6324 47.721 14.9385 46.5581 14.9385 44.9394V39.3177C14.9385 37.699 14.6383 36.5419 14.0379 35.8815C13.4375 35.2212 12.5369 34.8881 11.3066 34.8881H7.74534V49.4683L11.2772 49.4333Z" fill="black"/>
<path d="M26.5642 73.1356V30.4936C26.5642 28.9041 27.3648 28.1152 28.96 28.1152H31.6913C33.2865 28.1152 34.0871 28.9099 34.0576 30.4936V68.7353H44.0116C45.6127 68.7353 46.4073 69.53 46.4073 71.1137V73.1298C46.4073 74.7135 45.6068 75.5082 44.0116 75.5082H28.96C27.3589 75.5082 26.5642 74.7135 26.5642 73.1298V73.1356Z" fill="black"/>
<path d="M50.7044 75.5141C49.2034 75.5141 48.4735 74.8537 48.5088 73.498C48.5088 73.3635 48.5441 73.1649 48.5736 72.8668L55.7314 30.2949C55.9669 28.8398 56.7969 28.1152 58.2626 28.1152H64.0548C65.5205 28.1152 66.3505 28.8456 66.5507 30.2949L73.7086 72.8668C73.7439 73.1298 73.7733 73.3285 73.8086 73.498C73.8086 74.8537 73.0434 75.5141 71.5424 75.5141H68.8817C67.3159 75.5141 66.4506 74.7894 66.2858 73.3343L65.2851 66.0939V66.2283H56.4614L55.4607 73.3343C55.2958 74.7894 54.4305 75.5141 52.8648 75.5141H50.6985H50.7044ZM64.355 59.8118L60.8585 36.3783H60.7231L57.3267 59.8118H64.355Z" fill="black"/>
<path d="M77.6054 73.1356V30.4936C77.6054 28.9041 78.4059 28.1152 80.0011 28.1152H84.8928C86.3585 28.1152 87.2591 28.8106 87.5534 30.1663L94.311 56.5101H94.4464V30.4936C94.4464 28.9041 95.247 28.1152 96.8422 28.1152H98.7376C100.333 28.1152 101.133 28.9099 101.133 30.4936V73.1356C101.133 74.7193 100.333 75.5141 98.7376 75.5141H95.5413C94.0756 75.5141 93.1749 74.8537 92.8747 73.498L84.416 40.9072H84.2806V73.1356C84.2806 74.7193 83.48 75.5141 81.8848 75.5141H79.9894C78.3883 75.5141 77.5936 74.7193 77.5936 73.1356H77.6054Z" fill="black"/>
<path d="M156.024 73.1356V30.4936C156.024 28.9041 156.825 28.1152 158.42 28.1152H163.312C164.777 28.1152 165.678 28.8106 165.978 30.1663L172.736 56.5101H172.871V30.4936C172.871 28.9041 173.672 28.1152 175.267 28.1152H177.162C178.758 28.1152 179.558 28.9099 179.558 30.4936V73.1356C179.558 74.7193 178.758 75.5141 177.162 75.5141H173.966C172.5 75.5141 171.6 74.8537 171.3 73.498L162.841 40.9072H162.705V73.1356C162.705 74.7193 161.905 75.5141 160.31 75.5141H158.414C156.813 75.5141 156.018 74.7193 156.018 73.1356H156.024Z" fill="black"/>
<path d="M185.127 73.1356V30.4936C185.127 28.9041 185.927 28.1152 187.522 28.1152H203.204C204.799 28.1152 205.6 28.9099 205.57 30.4936V32.5447C205.57 34.1284 204.77 34.9232 203.204 34.8939H192.614V47.423H200.537C202.133 47.423 202.933 48.2178 202.904 49.8014V51.8175C202.904 53.4012 202.103 54.1959 200.537 54.1959H192.614V68.7411H203.204C204.799 68.7411 205.6 69.5359 205.57 71.1195V73.1356C205.57 74.7193 204.77 75.5141 203.204 75.5141H187.522C185.927 75.5141 185.127 74.7193 185.127 73.1356Z" fill="black"/>
<path d="M215.724 73.1356V34.8881H210.262C208.667 34.8881 207.866 34.0933 207.895 32.5389V30.4877C207.895 28.8982 208.696 28.1093 210.262 28.1093H228.674C230.276 28.1093 231.07 28.9041 231.07 30.4877V32.5389C231.07 34.1226 230.27 34.9173 228.674 34.8881H223.212V73.1356C223.212 74.7193 222.411 75.5141 220.846 75.5141H218.114C216.519 75.5141 215.718 74.7193 215.718 73.1356H215.724Z" fill="black"/>
<path d="M237.734 73.2642L233.372 31.1831L233.307 30.289C233.307 28.8339 234.043 28.1093 235.538 28.1093H238.004C239.505 28.1093 240.335 28.869 240.471 30.3592L243.667 64.5394H243.803L247.234 30.3592C247.37 28.869 248.164 28.1093 249.665 28.1093H253.362C254.863 28.1093 255.693 28.869 255.829 30.3592L259.225 64.5394H259.36L262.557 30.3592C262.692 28.869 263.522 28.1093 265.023 28.1093H266.718C268.214 28.1093 268.985 28.8398 268.985 30.289L268.92 31.1831L264.558 73.2642C264.423 74.7544 263.593 75.5141 262.092 75.5141H257.265C255.699 75.5141 254.869 74.7544 254.734 73.2642L251.537 43.5486H251.402L248.17 73.2642C248.035 74.7544 247.205 75.5141 245.674 75.5141H240.212C238.717 75.5141 237.881 74.7544 237.745 73.2642H237.734Z" fill="black"/>
<path d="M283.654 76.1744C279.992 76.1744 277.196 75.1517 275.23 73.0655C273.264 70.9793 272.299 68.0399 272.299 64.2414V39.3177C272.299 35.5192 273.264 32.574 275.23 30.4936C277.196 28.4132 280.028 27.3847 283.689 27.3847C287.35 27.3847 290.182 28.4073 292.148 30.4936C294.114 32.574 295.109 35.5192 295.109 39.3177V64.2414C295.109 68.0399 294.143 70.9851 292.177 73.0655C290.211 75.1459 287.38 76.1744 283.718 76.1744H283.654ZM287.55 64.7381V38.8911C287.55 35.7822 286.25 34.2277 283.654 34.2277C281.058 34.2277 279.757 35.7822 279.757 38.8911V64.7381C279.757 67.8762 281.058 69.4307 283.654 69.4307C286.25 69.4307 287.55 67.8762 287.55 64.7381Z" fill="black"/>
<path d="M302.531 75.5141C300.936 75.5141 300.136 74.7193 300.136 73.1356V30.4936C300.136 28.9041 300.936 28.1152 302.531 28.1152H311.255C315.117 28.1152 317.948 29.0093 319.714 30.7916C321.48 32.574 322.374 35.3205 322.374 39.0196V41.9299C322.374 46.8562 320.744 49.9651 317.448 51.2857V51.4202C320.779 52.4428 322.439 55.7855 322.439 61.4364V69.7638C322.439 71.2481 322.504 72.3117 322.639 72.937C322.739 73.3694 322.775 73.6616 322.775 73.8311C322.775 74.9531 322.074 75.5141 320.709 75.5141H317.712C316.117 75.5141 315.246 74.8537 315.146 73.498C315.011 72.674 314.946 71.4176 314.91 69.6995V61.039C314.91 58.8885 314.575 57.3691 313.88 56.5101C313.18 55.651 311.985 55.2186 310.248 55.2186H307.653V73.1356C307.653 74.7193 306.852 75.5141 305.286 75.5141H302.525H302.531ZM310.39 48.4398C311.891 48.4398 313.021 48.0424 313.751 47.2828C314.481 46.5231 314.852 45.2316 314.852 43.4142V39.7793C314.852 36.5419 313.586 34.9232 311.055 34.8881H307.623V48.4398H310.39Z" fill="black"/>
<path d="M327.637 73.1356V30.4936C327.637 28.9041 328.437 28.1152 330.033 28.1152H332.764C334.365 28.1152 335.16 28.9099 335.13 30.4936V48.1126L344.089 29.8975C344.69 28.7404 345.62 28.1444 346.886 28.1152H349.181C350.582 28.1152 351.277 28.6469 351.312 29.7047C351.312 30.067 351.177 30.4644 350.947 30.8968L343.254 45.5413L351.642 72.6155C351.777 73.0129 351.842 73.4103 351.842 73.7726C351.842 74.9297 351.141 75.5257 349.746 75.5257H346.785C345.385 75.5257 344.49 74.8654 344.089 73.5739L338.132 54.4005L335.136 60.4137V73.1415C335.136 74.7251 334.336 75.5199 332.77 75.5199H330.039C328.443 75.5199 327.643 74.7251 327.643 73.1415L327.637 73.1356Z" fill="black"/>
<path d="M129.27 53.1207H127.269V61.7636H129.841C130.613 61.7636 131.189 61.5474 131.566 61.1325C131.943 60.7176 132.137 59.993 132.137 58.9703V56.5159C132.137 55.2361 131.919 54.3537 131.466 53.8629C131.013 53.372 130.277 53.1149 129.27 53.1149V53.1207Z" fill="black"/>
<path d="M131.013 48.4048C131.448 47.9548 131.666 47.1893 131.666 46.1257V44.5537C131.666 42.6311 130.913 41.6669 129.412 41.6435H127.257V49.0885H129.017C129.906 49.0885 130.583 48.8547 131.019 48.3989L131.013 48.4048Z" fill="black"/>
<path d="M129.406 19.0281C122.03 19.0281 116.044 24.9654 116.044 32.2935V70.4767C116.044 77.799 122.024 83.7421 129.406 83.7421C136.782 83.7421 142.768 77.8048 142.768 70.4767V32.2935C142.768 24.9712 136.787 19.0281 129.406 19.0281ZM136.576 59.1106C136.576 61.2903 135.999 62.9441 134.857 64.0836C134.139 64.7966 133.214 65.2816 132.084 65.5504V66.5497C132.084 67.2626 131.496 67.847 130.777 67.847C130.059 67.847 129.465 67.2626 129.465 66.5497V65.79H127.257V66.5497C127.257 67.2626 126.669 67.847 125.951 67.847C125.232 67.847 124.644 67.2626 124.644 66.5497V65.79H124.238C123.29 65.79 122.813 65.3167 122.813 64.3758V39.0313C122.813 38.0905 123.29 37.6171 124.238 37.6171H124.644V36.2146C124.644 35.5017 125.232 34.9173 125.951 34.9173C126.669 34.9173 127.257 35.5017 127.257 36.2146V37.6171H129.465V36.2146C129.465 35.5017 130.053 34.9173 130.777 34.9173C131.501 34.9173 132.084 35.5017 132.084 36.2146V37.734C132.084 37.7925 132.072 37.8451 132.067 37.8976C133.108 38.1548 133.944 38.5872 134.562 39.2067C135.61 40.2702 136.146 41.9006 136.146 44.0979V45.2199C136.146 48.1067 135.175 49.9534 133.256 50.7423V50.8182C135.475 51.5662 136.581 53.5298 136.581 56.6912V59.1106H136.576Z" fill="black"/>
</g>
<path d="M3.62154 13.468H1.56494V0.7644H7.02494C9.35454 0.7644 10.7195 2.275 10.7195 4.5864C10.7195 6.8978 9.35454 8.4084 7.02494 8.4084H3.62154V13.468ZM3.62154 2.5662V6.6066H6.89754C7.93494 6.6066 8.55374 6.0424 8.55374 5.0232V4.1496C8.55374 3.1304 7.93494 2.5662 6.89754 2.5662H3.62154Z" fill="black"/>
<path d="M16.5512 13.6864C13.9122 13.6864 12.2014 11.7572 12.2014 8.736C12.2014 5.7148 13.9122 3.7856 16.5512 3.7856C19.1902 3.7856 20.901 5.7148 20.901 8.736C20.901 11.7572 19.1902 13.6864 16.5512 13.6864ZM16.5512 12.0484C17.898 12.0484 18.808 11.2112 18.808 9.5368V7.9352C18.808 6.2608 17.898 5.4236 16.5512 5.4236C15.2044 5.4236 14.2944 6.2608 14.2944 7.9352V9.5368C14.2944 11.2112 15.2044 12.0484 16.5512 12.0484Z" fill="black"/>
<path d="M24.9891 13.468L22.4047 4.004H24.3339L25.2985 7.9716L26.1539 11.557H26.2085L27.1913 7.9716L28.3379 4.004H30.1215L31.2863 7.9716L32.2873 11.557H32.3419L33.1791 7.9716L34.1619 4.004H36.0001L33.4521 13.468H31.2135L29.2115 6.4974H29.1751L28.4289 9.1546L27.1731 13.468H24.9891Z" fill="black"/>
<path d="M41.8421 13.6864C39.1485 13.6864 37.4923 11.7572 37.4923 8.736C37.4923 5.7148 39.1485 3.7856 41.8421 3.7856C44.6267 3.7856 46.0463 5.8786 46.0463 8.4994V9.2456H39.5489V9.555C39.5489 11.011 40.4407 12.0484 42.0423 12.0484C43.2071 12.0484 43.9897 11.5024 44.5357 10.6288L45.7005 11.7754C44.9907 12.922 43.6075 13.6864 41.8421 13.6864ZM41.8421 5.3326C40.4771 5.3326 39.5489 6.3518 39.5489 7.8078V7.9352H43.9533V7.7532C43.9533 6.2972 43.1525 5.3326 41.8421 5.3326Z" fill="black"/>
<path d="M50.5902 13.468H48.6064V4.004H50.5902V5.824H50.6812C50.9542 4.8594 51.7732 4.004 53.2838 4.004H53.8116V5.915H53.029C51.4638 5.915 50.5902 6.4428 50.5902 7.4256V13.468Z" fill="black"/>
<path d="M59.5615 13.6864C56.8679 13.6864 55.2117 11.7572 55.2117 8.736C55.2117 5.7148 56.8679 3.7856 59.5615 3.7856C62.3461 3.7856 63.7657 5.8786 63.7657 8.4994V9.2456H57.2683V9.555C57.2683 11.011 58.1601 12.0484 59.7617 12.0484C60.9265 12.0484 61.7091 11.5024 62.2551 10.6288L63.4199 11.7754C62.7101 12.922 61.3269 13.6864 59.5615 13.6864ZM59.5615 5.3326C58.1965 5.3326 57.2683 6.3518 57.2683 7.8078V7.9352H61.6727V7.7532C61.6727 6.2972 60.8719 5.3326 59.5615 5.3326Z" fill="black"/>
<path d="M72.2772 13.468V11.9028H72.1862C71.7858 13.013 70.7848 13.6864 69.529 13.6864C67.1448 13.6864 65.7616 11.8482 65.7616 8.736C65.7616 5.6238 67.1448 3.7856 69.529 3.7856C70.7848 3.7856 71.7858 4.4408 72.1862 5.5692H72.2772V0H74.261V13.468H72.2772ZM70.1296 11.9756C71.3308 11.9756 72.2772 11.3204 72.2772 10.3558V7.1162C72.2772 6.1516 71.3308 5.4964 70.1296 5.4964C68.7646 5.4964 67.8546 6.461 67.8546 7.917V9.555C67.8546 11.011 68.7646 11.9756 70.1296 11.9756Z" fill="black"/>
<path d="M82.1257 13.468V0H84.1095V5.5692H84.2005C84.6009 4.4408 85.6019 3.7856 86.8577 3.7856C89.2419 3.7856 90.6251 5.6238 90.6251 8.736C90.6251 11.8482 89.2419 13.6864 86.8577 13.6864C85.6019 13.6864 84.6009 13.013 84.2005 11.9028H84.1095V13.468H82.1257ZM86.2571 11.9756C87.6221 11.9756 88.5321 11.011 88.5321 9.555V7.917C88.5321 6.461 87.6221 5.4964 86.2571 5.4964C85.0559 5.4964 84.1095 6.1516 84.1095 7.1162V10.3558C84.1095 11.3204 85.0559 11.9756 86.2571 11.9756Z" fill="black"/>
<path d="M97.049 9.5732L98.9418 4.004H100.853L96.867 15.3426C96.412 16.6166 95.8478 17.108 94.3736 17.108H93.227V15.4882H94.8286L95.3746 13.8866L91.9348 4.004H93.9186L95.8114 9.5732L96.3574 11.6298H96.4484L97.049 9.5732Z" fill="black"/>
<defs>
<clipPath id="clip0_2828_42457">
<rect width="352.1" height="65.2297" fill="white" transform="translate(0 18.7703)"/>
</clipPath>
</defs>
</svg>
