<svg width="353" height="84" viewBox="0 0 353 84" fill="none" xmlns="http://www.w3.org/2000/svg">
<rect x="121.236" y="31.7656" width="16.2508" height="39.6261" fill="white"/>
<path d="M0.257812 73.1573V30.6C0.257812 29.0137 1.05837 28.2263 2.65359 28.2263H11.3125C18.7706 28.2263 22.5026 32.1164 22.5026 39.9373V44.5914C22.5026 52.3773 18.7765 56.2674 11.3125 56.2674H7.75123V73.1573C7.75123 74.7378 6.95067 75.531 5.38488 75.531H2.65359C1.05248 75.531 0.257812 74.7378 0.257812 73.1573ZM11.2772 49.5021C12.5075 49.5021 13.4434 49.1696 14.0379 48.4814C14.6324 47.7932 14.9385 46.6326 14.9385 45.0171V39.4066C14.9385 37.7911 14.6383 36.6363 14.0379 35.9773C13.4375 35.3182 12.5369 34.9858 11.3066 34.9858H7.74534V49.5371L11.2772 49.5021Z" fill="black"/>
<path d="M26.5642 73.1573V30.6C26.5642 29.0137 27.3648 28.2263 28.96 28.2263H31.6913C33.2865 28.2263 34.0871 29.0195 34.0576 30.6V68.7657H44.0116C45.6127 68.7657 46.4073 69.5589 46.4073 71.1394V73.1515C46.4073 74.732 45.6068 75.5252 44.0116 75.5252H28.96C27.3589 75.5252 26.5642 74.732 26.5642 73.1515V73.1573Z" fill="black"/>
<path d="M50.7044 75.531C49.2034 75.531 48.4735 74.872 48.5088 73.5189C48.5088 73.3848 48.5441 73.1865 48.5736 72.889L55.7314 30.4017C55.9669 28.9495 56.7969 28.2263 58.2626 28.2263H64.0548C65.5205 28.2263 66.3505 28.9554 66.5507 30.4017L73.7086 72.889C73.7439 73.1515 73.7733 73.3498 73.8086 73.5189C73.8086 74.872 73.0434 75.531 71.5424 75.531H68.8817C67.3159 75.531 66.4506 74.8078 66.2858 73.3556L65.2851 66.1296V66.2637H56.4614L55.4607 73.3556C55.2958 74.8078 54.4305 75.531 52.8648 75.531H50.6985H50.7044ZM64.355 59.86L60.8585 36.473H60.7231L57.3267 59.86H64.355Z" fill="black"/>
<path d="M77.6054 73.1573V30.6C77.6054 29.0137 78.4059 28.2263 80.0011 28.2263H84.8928C86.3585 28.2263 87.2591 28.9204 87.5534 30.2734L94.311 56.5648H94.4464V30.6C94.4464 29.0137 95.247 28.2263 96.8422 28.2263H98.7376C100.333 28.2263 101.133 29.0195 101.133 30.6V73.1573C101.133 74.7378 100.333 75.531 98.7376 75.531H95.5413C94.0756 75.531 93.1749 74.872 92.8747 73.5189L84.416 40.9929H84.2806V73.1573C84.2806 74.7378 83.48 75.531 81.8848 75.531H79.9894C78.3883 75.531 77.5936 74.7378 77.5936 73.1573H77.6054Z" fill="black"/>
<path d="M156.024 73.1573V30.6C156.024 29.0137 156.825 28.2263 158.42 28.2263H163.312C164.777 28.2263 165.678 28.9204 165.978 30.2734L172.736 56.5648H172.871V30.6C172.871 29.0137 173.672 28.2263 175.267 28.2263H177.162C178.758 28.2263 179.558 29.0195 179.558 30.6V73.1573C179.558 74.7378 178.758 75.531 177.162 75.531H173.966C172.5 75.531 171.6 74.872 171.3 73.5189L162.841 40.9929H162.705V73.1573C162.705 74.7378 161.905 75.531 160.31 75.531H158.414C156.813 75.531 156.018 74.7378 156.018 73.1573H156.024Z" fill="black"/>
<path d="M185.127 73.1573V30.6C185.127 29.0137 185.927 28.2263 187.522 28.2263H203.204C204.799 28.2263 205.6 29.0195 205.57 30.6V32.6471C205.57 34.2276 204.77 35.0208 203.204 34.9916H192.614V47.4958H200.537C202.133 47.4958 202.933 48.289 202.904 49.8695V51.8816C202.904 53.4621 202.103 54.2553 200.537 54.2553H192.614V68.7715H203.204C204.799 68.7715 205.6 69.5647 205.57 71.1452V73.1573C205.57 74.7378 204.77 75.531 203.204 75.531H187.522C185.927 75.531 185.127 74.7378 185.127 73.1573Z" fill="black"/>
<path d="M215.724 73.1573V34.9858H210.262C208.667 34.9858 207.866 34.1926 207.895 32.6413V30.5942C207.895 29.0078 208.696 28.2205 210.262 28.2205H228.674C230.276 28.2205 231.07 29.0137 231.07 30.5942V32.6413C231.07 34.2218 230.27 35.015 228.674 34.9858H223.212V73.1573C223.212 74.7378 222.411 75.531 220.846 75.531H218.114C216.519 75.531 215.718 74.7378 215.718 73.1573H215.724Z" fill="black"/>
<path d="M237.734 73.2856L233.372 31.2882L233.307 30.3959C233.307 28.9437 234.043 28.2205 235.538 28.2205H238.004C239.505 28.2205 240.335 28.9787 240.471 30.4659L243.667 64.5782H243.803L247.234 30.4659C247.37 28.9787 248.164 28.2205 249.665 28.2205H253.362C254.863 28.2205 255.693 28.9787 255.829 30.4659L259.225 64.5782H259.36L262.557 30.4659C262.692 28.9787 263.522 28.2205 265.023 28.2205H266.718C268.214 28.2205 268.985 28.9495 268.985 30.3959L268.92 31.2882L264.558 73.2856C264.423 74.7728 263.593 75.531 262.092 75.531H257.265C255.699 75.531 254.869 74.7728 254.734 73.2856L251.537 43.6291H251.402L248.17 73.2856C248.035 74.7728 247.205 75.531 245.674 75.531H240.212C238.717 75.531 237.881 74.7728 237.745 73.2856H237.734Z" fill="black"/>
<path d="M283.654 76.19C279.992 76.19 277.196 75.1694 275.23 73.0873C273.264 71.0053 272.299 68.0717 272.299 64.2808V39.4066C272.299 35.6157 273.264 32.6763 275.23 30.6C277.196 28.5238 280.028 27.4973 283.689 27.4973C287.35 27.4973 290.182 28.5179 292.148 30.6C294.114 32.6763 295.109 35.6157 295.109 39.4066V64.2808C295.109 68.0717 294.143 71.0111 292.177 73.0873C290.211 75.1636 287.38 76.19 283.718 76.19H283.654ZM287.55 64.7765V38.9808C287.55 35.8781 286.25 34.3268 283.654 34.3268C281.058 34.3268 279.757 35.8781 279.757 38.9808V64.7765C279.757 67.9084 281.058 69.4597 283.654 69.4597C286.25 69.4597 287.55 67.9084 287.55 64.7765Z" fill="black"/>
<path d="M302.531 75.531C300.936 75.531 300.136 74.7378 300.136 73.1573V30.6C300.136 29.0137 300.936 28.2263 302.531 28.2263H311.255C315.117 28.2263 317.948 29.1187 319.714 30.8975C321.48 32.6763 322.374 35.4174 322.374 39.1091V42.0136C322.374 46.9301 320.744 50.0328 317.448 51.3509V51.485C320.779 52.5056 322.439 55.8416 322.439 61.4813V69.7922C322.439 71.2735 322.504 72.335 322.639 72.959C322.739 73.3906 322.775 73.6822 322.775 73.8513C322.775 74.9711 322.074 75.531 320.709 75.531H317.712C316.117 75.531 315.246 74.872 315.146 73.5189C315.011 72.6966 314.946 71.4427 314.91 69.728V61.0847C314.91 58.9385 314.575 57.4221 313.88 56.5648C313.18 55.7075 311.985 55.2759 310.248 55.2759H307.653V73.1573C307.653 74.7378 306.852 75.531 305.286 75.531H302.525H302.531ZM310.39 48.5106C311.891 48.5106 313.021 48.114 313.751 47.3558C314.481 46.5976 314.852 45.3087 314.852 43.4949V39.8673C314.852 36.6363 313.586 35.0208 311.055 34.9858H307.623V48.5106H310.39Z" fill="black"/>
<path d="M327.637 73.1573V30.6C327.637 29.0137 328.437 28.2263 330.033 28.2263H332.764C334.365 28.2263 335.16 29.0195 335.13 30.6V48.184L344.089 30.0051C344.69 28.8504 345.62 28.2555 346.886 28.2263H349.181C350.582 28.2263 351.277 28.7571 351.312 29.8127C351.312 30.1743 351.177 30.5709 350.947 31.0024L343.254 45.6178L351.642 72.6383C351.777 73.0348 351.842 73.4314 351.842 73.793C351.842 74.9478 351.141 75.5427 349.746 75.5427H346.785C345.385 75.5427 344.49 74.8836 344.089 73.5947L338.132 54.4594L335.136 60.4607V73.1631C335.136 74.7437 334.336 75.5368 332.77 75.5368H330.039C328.443 75.5368 327.643 74.7437 327.643 73.1631L327.637 73.1573Z" fill="black"/>
<path d="M129.271 53.1821H127.269V61.8078H129.842C130.613 61.8078 131.19 61.592 131.566 61.178C131.943 60.7639 132.137 60.0407 132.137 59.0201V56.5706C132.137 55.2933 131.92 54.4127 131.466 53.9227C131.013 53.4328 130.277 53.1762 129.271 53.1762V53.1821Z" fill="#FF5C00"/>
<path d="M131.013 48.4755C131.449 48.0264 131.667 47.2624 131.667 46.201V44.6321C131.667 42.7133 130.913 41.751 129.412 41.7277H127.258V49.1579H129.018C129.906 49.1579 130.583 48.9246 131.019 48.4697L131.013 48.4755Z" fill="#FF5C00"/>
<path d="M129.406 19.1572C122.03 19.1572 116.044 25.0827 116.044 32.3962V70.5036C116.044 77.8113 122.025 83.7426 129.406 83.7426C136.782 83.7426 142.768 77.8171 142.768 70.5036V32.3962C142.768 25.0885 136.788 19.1572 129.406 19.1572ZM136.576 59.16C136.576 61.3354 135.999 62.9859 134.857 64.1232C134.139 64.8347 133.215 65.3188 132.084 65.5871V66.5844C132.084 67.2959 131.496 67.8791 130.778 67.8791C130.06 67.8791 129.465 67.2959 129.465 66.5844V65.8262H127.258V66.5844C127.258 67.2959 126.669 67.8791 125.951 67.8791C125.233 67.8791 124.644 67.2959 124.644 66.5844V65.8262H124.238C123.29 65.8262 122.813 65.3538 122.813 64.4148V39.1207C122.813 38.1817 123.29 37.7093 124.238 37.7093H124.644V36.3096C124.644 35.5981 125.233 35.0149 125.951 35.0149C126.669 35.0149 127.258 35.5981 127.258 36.3096V37.7093H129.465V36.3096C129.465 35.5981 130.054 35.0149 130.778 35.0149C131.502 35.0149 132.084 35.5981 132.084 36.3096V37.826C132.084 37.8843 132.073 37.9368 132.067 37.9893C133.109 38.2459 133.945 38.6775 134.563 39.2957C135.61 40.3571 136.146 41.9843 136.146 44.1772V45.297C136.146 48.1781 135.175 50.021 133.256 50.8084V50.8842C135.475 51.6307 136.582 53.5903 136.582 56.7455V59.16H136.576Z" fill="#FF5C00"/>
<path d="M3.62154 13.468H1.56494V0.7644H7.02494C9.35454 0.7644 10.7195 2.275 10.7195 4.5864C10.7195 6.8978 9.35454 8.4084 7.02494 8.4084H3.62154V13.468ZM3.62154 2.5662V6.6066H6.89754C7.93494 6.6066 8.55374 6.0424 8.55374 5.0232V4.1496C8.55374 3.1304 7.93494 2.5662 6.89754 2.5662H3.62154Z" fill="black"/>
<path d="M16.5512 13.6864C13.9122 13.6864 12.2014 11.7572 12.2014 8.736C12.2014 5.7148 13.9122 3.7856 16.5512 3.7856C19.1902 3.7856 20.901 5.7148 20.901 8.736C20.901 11.7572 19.1902 13.6864 16.5512 13.6864ZM16.5512 12.0484C17.898 12.0484 18.808 11.2112 18.808 9.5368V7.9352C18.808 6.2608 17.898 5.4236 16.5512 5.4236C15.2044 5.4236 14.2944 6.2608 14.2944 7.9352V9.5368C14.2944 11.2112 15.2044 12.0484 16.5512 12.0484Z" fill="black"/>
<path d="M24.9891 13.468L22.4047 4.004H24.3339L25.2985 7.9716L26.1539 11.557H26.2085L27.1913 7.9716L28.3379 4.004H30.1215L31.2863 7.9716L32.2873 11.557H32.3419L33.1791 7.9716L34.1619 4.004H36.0001L33.4521 13.468H31.2135L29.2115 6.4974H29.1751L28.4289 9.1546L27.1731 13.468H24.9891Z" fill="black"/>
<path d="M41.8421 13.6864C39.1485 13.6864 37.4923 11.7572 37.4923 8.736C37.4923 5.7148 39.1485 3.7856 41.8421 3.7856C44.6267 3.7856 46.0463 5.8786 46.0463 8.4994V9.2456H39.5489V9.555C39.5489 11.011 40.4407 12.0484 42.0423 12.0484C43.2071 12.0484 43.9897 11.5024 44.5357 10.6288L45.7005 11.7754C44.9907 12.922 43.6075 13.6864 41.8421 13.6864ZM41.8421 5.3326C40.4771 5.3326 39.5489 6.3518 39.5489 7.8078V7.9352H43.9533V7.7532C43.9533 6.2972 43.1525 5.3326 41.8421 5.3326Z" fill="black"/>
<path d="M50.5902 13.468H48.6064V4.004H50.5902V5.824H50.6812C50.9542 4.8594 51.7732 4.004 53.2838 4.004H53.8116V5.915H53.029C51.4638 5.915 50.5902 6.4428 50.5902 7.4256V13.468Z" fill="black"/>
<path d="M59.5615 13.6864C56.8679 13.6864 55.2117 11.7572 55.2117 8.736C55.2117 5.7148 56.8679 3.7856 59.5615 3.7856C62.3461 3.7856 63.7657 5.8786 63.7657 8.4994V9.2456H57.2683V9.555C57.2683 11.011 58.1601 12.0484 59.7617 12.0484C60.9265 12.0484 61.7091 11.5024 62.2551 10.6288L63.4199 11.7754C62.7101 12.922 61.3269 13.6864 59.5615 13.6864ZM59.5615 5.3326C58.1965 5.3326 57.2683 6.3518 57.2683 7.8078V7.9352H61.6727V7.7532C61.6727 6.2972 60.8719 5.3326 59.5615 5.3326Z" fill="black"/>
<path d="M72.2772 13.468V11.9028H72.1862C71.7858 13.013 70.7848 13.6864 69.529 13.6864C67.1448 13.6864 65.7616 11.8482 65.7616 8.736C65.7616 5.6238 67.1448 3.7856 69.529 3.7856C70.7848 3.7856 71.7858 4.4408 72.1862 5.5692H72.2772V0H74.261V13.468H72.2772ZM70.1296 11.9756C71.3308 11.9756 72.2772 11.3204 72.2772 10.3558V7.1162C72.2772 6.1516 71.3308 5.4964 70.1296 5.4964C68.7646 5.4964 67.8546 6.461 67.8546 7.917V9.555C67.8546 11.011 68.7646 11.9756 70.1296 11.9756Z" fill="black"/>
<path d="M82.1257 13.468V0H84.1095V5.5692H84.2005C84.6009 4.4408 85.6019 3.7856 86.8577 3.7856C89.2419 3.7856 90.6251 5.6238 90.6251 8.736C90.6251 11.8482 89.2419 13.6864 86.8577 13.6864C85.6019 13.6864 84.6009 13.013 84.2005 11.9028H84.1095V13.468H82.1257ZM86.2571 11.9756C87.6221 11.9756 88.5321 11.011 88.5321 9.555V7.917C88.5321 6.461 87.6221 5.4964 86.2571 5.4964C85.0559 5.4964 84.1095 6.1516 84.1095 7.1162V10.3558C84.1095 11.3204 85.0559 11.9756 86.2571 11.9756Z" fill="black"/>
<path d="M97.049 9.5732L98.9418 4.004H100.853L96.867 15.3426C96.412 16.6166 95.8478 17.108 94.3736 17.108H93.227V15.4882H94.8286L95.3746 13.8866L91.9348 4.004H93.9186L95.8114 9.5732L96.3574 11.6298H96.4484L97.049 9.5732Z" fill="black"/>
</svg>
