<svg width="353" height="118" viewBox="0 0 353 118" fill="none" xmlns="http://www.w3.org/2000/svg">
<g clip-path="url(#clip0_2828_42568)">
<rect x="121.494" y="65.7195" width="16.2508" height="39.705" fill="white"/>
<path d="M0.257812 106.936V64.2937C0.257812 62.7042 1.05837 61.9153 2.65359 61.9153H11.3125C18.7706 61.9153 22.5026 65.8131 22.5026 73.6496V78.3129C22.5026 86.1144 18.7765 90.0122 11.3125 90.0122H7.75123V106.936C7.75123 108.519 6.95067 109.314 5.38488 109.314H2.65359C1.05248 109.314 0.257812 108.519 0.257812 106.936ZM11.2772 83.2334C12.5075 83.2334 13.4434 82.9003 14.0379 82.2107C14.6324 81.5212 14.9385 80.3583 14.9385 78.7395V73.1178C14.9385 71.4991 14.6383 70.342 14.0379 69.6817C13.4375 69.0213 12.5369 68.6882 11.3066 68.6882H7.74534V83.2685L11.2772 83.2334Z" fill="white"/>
<path d="M26.5642 106.936V64.2937C26.5642 62.7042 27.3648 61.9153 28.96 61.9153H31.6913C33.2865 61.9153 34.0871 62.71 34.0576 64.2937V102.535H44.0116C45.6127 102.535 46.4073 103.33 46.4073 104.914V106.93C46.4073 108.514 45.6068 109.308 44.0116 109.308H28.96C27.3589 109.308 26.5642 108.514 26.5642 106.93V106.936Z" fill="white"/>
<path d="M50.7044 109.314C49.2034 109.314 48.4735 108.654 48.5088 107.298C48.5088 107.164 48.5441 106.965 48.5736 106.667L55.7314 64.095C55.9669 62.6399 56.7969 61.9153 58.2626 61.9153H64.0548C65.5205 61.9153 66.3505 62.6458 66.5507 64.095L73.7086 106.667C73.7439 106.93 73.7733 107.129 73.8086 107.298C73.8086 108.654 73.0434 109.314 71.5424 109.314H68.8817C67.3159 109.314 66.4506 108.59 66.2858 107.134L65.2851 99.894V100.028H56.4614L55.4607 107.134C55.2958 108.59 54.4305 109.314 52.8648 109.314H50.6985H50.7044ZM64.355 93.612L60.8585 70.1784H60.7231L57.3267 93.612H64.355Z" fill="white"/>
<path d="M77.6054 106.936V64.2937C77.6054 62.7042 78.4059 61.9153 80.0011 61.9153H84.8928C86.3585 61.9153 87.2591 62.6107 87.5534 63.9665L94.311 90.3102H94.4464V64.2937C94.4464 62.7042 95.247 61.9153 96.8422 61.9153H98.7376C100.333 61.9153 101.133 62.71 101.133 64.2937V106.936C101.133 108.519 100.333 109.314 98.7376 109.314H95.5413C94.0756 109.314 93.1749 108.654 92.8747 107.298L84.416 74.7073H84.2806V106.936C84.2806 108.519 83.48 109.314 81.8848 109.314H79.9894C78.3883 109.314 77.5936 108.519 77.5936 106.936H77.6054Z" fill="white"/>
<path d="M156.024 106.936V64.2937C156.024 62.7042 156.825 61.9153 158.42 61.9153H163.312C164.777 61.9153 165.678 62.6107 165.978 63.9665L172.736 90.3102H172.871V64.2937C172.871 62.7042 173.672 61.9153 175.267 61.9153H177.162C178.758 61.9153 179.558 62.71 179.558 64.2937V106.936C179.558 108.519 178.758 109.314 177.162 109.314H173.966C172.5 109.314 171.6 108.654 171.3 107.298L162.841 74.7073H162.705V106.936C162.705 108.519 161.905 109.314 160.31 109.314H158.414C156.813 109.314 156.018 108.519 156.018 106.936H156.024Z" fill="white"/>
<path d="M185.127 106.936V64.2937C185.127 62.7042 185.927 61.9153 187.522 61.9153H203.204C204.799 61.9153 205.6 62.71 205.57 64.2937V66.3449C205.57 67.9285 204.77 68.7233 203.204 68.6941H192.614V81.2231H200.537C202.133 81.2231 202.933 82.0179 202.904 83.6016V85.6177C202.904 87.2013 202.103 87.9961 200.537 87.9961H192.614V102.541H203.204C204.799 102.541 205.6 103.336 205.57 104.92V106.936C205.57 108.519 204.77 109.314 203.204 109.314H187.522C185.927 109.314 185.127 108.519 185.127 106.936Z" fill="white"/>
<path d="M215.724 106.936V68.6882H210.262C208.667 68.6882 207.866 67.8935 207.895 66.339V64.2879C207.895 62.6984 208.696 61.9094 210.262 61.9094H228.674C230.276 61.9094 231.07 62.7042 231.07 64.2879V66.339C231.07 67.9227 230.27 68.7174 228.674 68.6882H223.212V106.936C223.212 108.519 222.411 109.314 220.846 109.314H218.114C216.519 109.314 215.718 108.519 215.718 106.936H215.724Z" fill="white"/>
<path d="M237.734 107.064L233.372 64.9833L233.307 64.0892C233.307 62.6341 234.043 61.9094 235.538 61.9094H238.004C239.505 61.9094 240.335 62.6691 240.471 64.1593L243.667 98.3396H243.803L247.234 64.1593C247.37 62.6691 248.164 61.9094 249.665 61.9094H253.362C254.863 61.9094 255.693 62.6691 255.829 64.1593L259.225 98.3396H259.36L262.557 64.1593C262.692 62.6691 263.522 61.9094 265.023 61.9094H266.718C268.214 61.9094 268.985 62.6399 268.985 64.0892L268.92 64.9833L264.558 107.064C264.423 108.555 263.593 109.314 262.092 109.314H257.265C255.699 109.314 254.869 108.555 254.734 107.064L251.537 77.3487H251.402L248.17 107.064C248.035 108.555 247.205 109.314 245.674 109.314H240.212C238.717 109.314 237.881 108.555 237.745 107.064H237.734Z" fill="white"/>
<path d="M283.654 109.975C279.992 109.975 277.196 108.952 275.23 106.866C273.264 104.779 272.299 101.84 272.299 98.0415V73.1178C272.299 69.3194 273.264 66.3741 275.23 64.2937C277.196 62.2133 280.028 61.1848 283.689 61.1848C287.35 61.1848 290.182 62.2075 292.148 64.2937C294.114 66.3741 295.109 69.3194 295.109 73.1178V98.0415C295.109 101.84 294.143 104.785 292.177 106.866C290.211 108.946 287.38 109.975 283.718 109.975H283.654ZM287.55 98.5383V72.6912C287.55 69.5823 286.25 68.0279 283.654 68.0279C281.058 68.0279 279.757 69.5823 279.757 72.6912V98.5383C279.757 101.676 281.058 103.231 283.654 103.231C286.25 103.231 287.55 101.676 287.55 98.5383Z" fill="white"/>
<path d="M302.531 109.314C300.936 109.314 300.136 108.519 300.136 106.936V64.2937C300.136 62.7042 300.936 61.9153 302.531 61.9153H311.255C315.117 61.9153 317.948 62.8094 319.714 64.5917C321.48 66.3741 322.374 69.1207 322.374 72.8198V75.73C322.374 80.6563 320.744 83.7652 317.448 85.0859V85.2203C320.779 86.2429 322.439 89.5856 322.439 95.2365V103.564C322.439 105.048 322.504 106.112 322.639 106.737C322.739 107.17 322.775 107.462 322.775 107.631C322.775 108.753 322.074 109.314 320.709 109.314H317.712C316.117 109.314 315.246 108.654 315.146 107.298C315.011 106.474 314.946 105.218 314.91 103.5V94.8392C314.91 92.6886 314.575 91.1693 313.88 90.3102C313.18 89.4512 311.985 89.0187 310.248 89.0187H307.653V106.936C307.653 108.519 306.852 109.314 305.286 109.314H302.525H302.531ZM310.39 82.24C311.891 82.24 313.021 81.8426 313.751 81.0829C314.481 80.3232 314.852 79.0317 314.852 77.2143V73.5795C314.852 70.342 313.586 68.7233 311.055 68.6882H307.623V82.24H310.39Z" fill="white"/>
<path d="M327.637 106.936V64.2937C327.637 62.7042 328.437 61.9153 330.033 61.9153H332.764C334.365 61.9153 335.16 62.71 335.13 64.2937V81.9127L344.089 63.6976C344.69 62.5406 345.62 61.9445 346.886 61.9153H349.181C350.582 61.9153 351.277 62.4471 351.312 63.5048C351.312 63.8671 351.177 64.2645 350.947 64.6969L343.254 79.3414L351.642 106.416C351.777 106.813 351.842 107.21 351.842 107.573C351.842 108.73 351.141 109.326 349.746 109.326H346.785C345.385 109.326 344.49 108.666 344.089 107.374L338.132 88.2006L335.136 94.2139V106.942C335.136 108.525 334.336 109.32 332.77 109.32H330.039C328.443 109.32 327.643 108.525 327.643 106.942L327.637 106.936Z" fill="white"/>
<path d="M129.271 86.921H127.269V95.5639H129.842C130.613 95.5639 131.19 95.3477 131.566 94.9328C131.943 94.5179 132.137 93.7933 132.137 92.7706V90.3162C132.137 89.0364 131.92 88.154 131.466 87.6631C131.013 87.1723 130.277 86.9151 129.271 86.9151V86.921Z" fill="url(#paint0_radial_2828_42568)"/>
<path d="M131.013 82.2051C131.449 81.7551 131.667 80.9895 131.667 79.926V78.354C131.667 76.4314 130.913 75.4672 129.412 75.4438H127.258V82.8888H129.018C129.906 82.8888 130.583 82.655 131.019 82.1992L131.013 82.2051Z" fill="url(#paint1_radial_2828_42568)"/>
<path d="M129.406 52.8284C122.03 52.8284 116.044 58.7657 116.044 66.0938V104.277C116.044 111.599 122.025 117.542 129.406 117.542C136.782 117.542 142.768 111.605 142.768 104.277V66.0938C142.768 58.7715 136.788 52.8284 129.406 52.8284ZM136.576 92.9109C136.576 95.0906 135.999 96.7444 134.857 97.8839C134.139 98.5969 133.215 99.0819 132.084 99.3507V100.35C132.084 101.063 131.496 101.647 130.778 101.647C130.06 101.647 129.465 101.063 129.465 100.35V99.5903H127.258V100.35C127.258 101.063 126.669 101.647 125.951 101.647C125.233 101.647 124.644 101.063 124.644 100.35V99.5903H124.238C123.29 99.5903 122.813 99.117 122.813 98.1761V72.8316C122.813 71.8908 123.29 71.4174 124.238 71.4174H124.644V70.0149C124.644 69.302 125.233 68.7176 125.951 68.7176C126.669 68.7176 127.258 69.302 127.258 70.0149V71.4174H129.465V70.0149C129.465 69.302 130.054 68.7176 130.778 68.7176C131.502 68.7176 132.084 69.302 132.084 70.0149V71.5343C132.084 71.5927 132.073 71.6453 132.067 71.6979C133.109 71.9551 133.945 72.3875 134.563 73.0069C135.61 74.0705 136.146 75.7009 136.146 77.8982V79.0202C136.146 81.907 135.175 83.7537 133.256 84.5426V84.6185C135.475 85.3665 136.582 87.3301 136.582 90.4915V92.9109H136.576Z" fill="url(#paint2_radial_2828_42568)"/>
</g>
<path d="M93.9876 22.792H91V1.2936H99.8704C103.751 1.2936 105.969 3.7884 105.969 7.6076C105.969 11.4268 103.751 13.9216 99.8704 13.9216H93.9876V22.792ZM93.9876 3.9424V11.2728H99.7472C101.657 11.2728 102.796 10.2256 102.796 8.3776V6.8376C102.796 4.9896 101.657 3.9424 99.7472 3.9424H93.9876Z" fill="white"/>
<path d="M115.877 23.1616C111.534 23.1616 108.608 19.8968 108.608 14.8148C108.608 9.7328 111.534 6.468 115.877 6.468C120.219 6.468 123.145 9.7328 123.145 14.8148C123.145 19.8968 120.219 23.1616 115.877 23.1616ZM115.877 20.6976C118.371 20.6976 120.096 19.1268 120.096 16.016V13.6136C120.096 10.5028 118.371 8.932 115.877 8.932C113.382 8.932 111.657 10.5028 111.657 13.6136V16.016C111.657 19.1268 113.382 20.6976 115.877 20.6976Z" fill="white"/>
<path d="M130.127 22.792L125.845 6.8376H128.617L131.882 20.2048H131.944L133.761 13.6444L135.732 6.8376H138.289L140.321 13.6444L142.169 20.2048H142.262L143.771 13.6444L145.465 6.8376H148.145L143.894 22.792H140.506L138.35 15.3076L136.995 10.626H136.933L135.609 15.3076L133.453 22.792H130.127Z" fill="white"/>
<path d="M158.104 23.1616C153.669 23.1616 150.866 19.866 150.866 14.8148C150.866 9.7636 153.669 6.468 158.104 6.468C162.57 6.468 165.096 9.856 165.096 14.322V15.5232H153.854V16.17C153.854 18.8188 155.486 20.7284 158.351 20.7284C160.353 20.7284 161.8 19.7736 162.663 18.1412L164.511 19.712C163.402 21.7756 161.092 23.1616 158.104 23.1616ZM158.104 8.778C155.609 8.778 153.854 10.6876 153.854 13.3056V13.5212H162.047V13.2132C162.047 10.5644 160.507 8.778 158.104 8.778Z" fill="white"/>
<path d="M172.48 22.792H169.616V6.8376H172.48V9.8868H172.634C173.158 8.316 174.575 6.8376 177.131 6.8376H178.086V9.702H176.669C174.02 9.702 172.48 10.7492 172.48 12.32V22.792Z" fill="white"/>
<path d="M187.73 23.1616C183.295 23.1616 180.492 19.866 180.492 14.8148C180.492 9.7636 183.295 6.468 187.73 6.468C192.196 6.468 194.722 9.856 194.722 14.322V15.5232H183.48V16.17C183.48 18.8188 185.112 20.7284 187.976 20.7284C189.978 20.7284 191.426 19.7736 192.288 18.1412L194.136 19.712C193.028 21.7756 190.718 23.1616 187.73 23.1616ZM187.73 8.778C185.235 8.778 183.48 10.6876 183.48 13.3056V13.5212H191.672V13.2132C191.672 10.5644 190.132 8.778 187.73 8.778Z" fill="white"/>
<path d="M209.344 22.792V20.174H209.221C208.482 22.1452 206.819 23.1616 204.632 23.1616C200.628 23.1616 198.225 19.9892 198.225 14.8148C198.225 9.6404 200.628 6.468 204.632 6.468C206.819 6.468 208.482 7.4844 209.221 9.4556H209.344V0H212.209V22.792H209.344ZM205.463 20.6668C207.619 20.6668 209.344 19.4348 209.344 17.7408V11.8888C209.344 10.1948 207.619 8.9628 205.463 8.9628C202.907 8.9628 201.275 10.78 201.275 13.4596V16.17C201.275 18.8496 202.907 20.6668 205.463 20.6668Z" fill="white"/>
<path d="M225.769 22.792V0H228.634V9.4556H228.757C229.496 7.4844 231.159 6.468 233.346 6.468C237.35 6.468 239.753 9.6404 239.753 14.8148C239.753 19.9892 237.35 23.1616 233.346 23.1616C231.159 23.1616 229.496 22.1452 228.757 20.174H228.634V22.792H225.769ZM232.515 20.6668C235.071 20.6668 236.703 18.8496 236.703 16.17V13.4596C236.703 10.78 235.071 8.9628 232.515 8.9628C230.359 8.9628 228.634 10.1948 228.634 11.8888V17.7408C228.634 19.4348 230.359 20.6668 232.515 20.6668Z" fill="white"/>
<path d="M250.474 17.0324L254.047 6.8376H256.819L249.889 26.2724C249.15 28.2744 248.38 28.952 245.947 28.952H244.376V26.5188H246.994L248.072 23.4388L242.158 6.8376H245.023L248.565 17.0324L249.396 20.02H249.55L250.474 17.0324Z" fill="white"/>
<defs>
<radialGradient id="paint0_radial_2828_42568" cx="0" cy="0" r="1" gradientUnits="userSpaceOnUse" gradientTransform="translate(123.558 61.3366) rotate(85.8219) scale(40.7156 16.8139)">
<stop stop-color="#FF9900"/>
<stop offset="1" stop-color="#FF5C00"/>
</radialGradient>
<radialGradient id="paint1_radial_2828_42568" cx="0" cy="0" r="1" gradientUnits="userSpaceOnUse" gradientTransform="translate(123.558 61.3366) rotate(85.8219) scale(40.7156 16.8139)">
<stop stop-color="#FF9900"/>
<stop offset="1" stop-color="#FF5C00"/>
</radialGradient>
<radialGradient id="paint2_radial_2828_42568" cx="0" cy="0" r="1" gradientUnits="userSpaceOnUse" gradientTransform="translate(123.558 61.3366) rotate(85.8219) scale(40.7156 16.8139)">
<stop stop-color="#FF9900"/>
<stop offset="1" stop-color="#FF5C00"/>
</radialGradient>
<clipPath id="clip0_2828_42568">
<rect width="352.1" height="65.2297" fill="white" transform="translate(0 52.5703)"/>
</clipPath>
</defs>
</svg>
