<svg width="48" height="116" viewBox="0 0 48 116" fill="none" xmlns="http://www.w3.org/2000/svg">
<g clip-path="url(#clip0_108_9)">
<path d="M23.7639 61.1111H20.1681V76.6036H24.7898C26.1752 76.6036 27.2116 76.216 27.8885 75.4723C28.5653 74.7286 28.9143 73.4297 28.9143 71.5965V67.197C28.9143 64.903 28.523 63.3213 27.7087 62.4414C26.8943 61.5615 25.5724 61.1006 23.7639 61.1006V61.1111Z" fill="black"/>
<path d="M26.8944 52.6578C27.677 51.8512 28.0683 50.479 28.0683 48.5725V45.7547C28.0683 42.3085 26.7146 40.5801 24.0177 40.5382H20.147V53.8833H23.3092C24.9061 53.8833 26.1223 53.4643 26.9049 52.6473L26.8944 52.6578Z" fill="black"/>
<path d="M24.0071 0C10.7556 0 0 10.6426 0 23.7782V92.2218C0 105.347 10.745 116 24.0071 116C37.2587 116 48.0143 105.357 48.0143 92.2218V23.7782C48.0143 10.6531 37.2692 0 24.0071 0ZM36.8885 71.8479C36.8885 75.7551 35.8521 78.7195 33.8004 80.7622C32.5101 82.0401 30.8497 82.9095 28.8192 83.3914V85.1826C28.8192 86.4605 27.7616 87.508 26.4713 87.508C25.1811 87.508 24.1129 86.4605 24.1129 85.1826V83.8208H20.147V85.1826C20.147 86.4605 19.0894 87.508 17.7991 87.508C16.5089 87.508 15.4513 86.4605 15.4513 85.1826V83.8208H14.7216C13.0189 83.8208 12.1622 82.9724 12.1622 81.2859V35.8559C12.1622 34.1694 13.0189 33.3209 14.7216 33.3209H15.4513V30.8069C15.4513 29.529 16.5089 28.4815 17.7991 28.4815C19.0894 28.4815 20.147 29.529 20.147 30.8069V33.3209H24.1129V30.8069C24.1129 29.529 25.1705 28.4815 26.4713 28.4815C27.7721 28.4815 28.8192 29.529 28.8192 30.8069V33.5304C28.8192 33.6352 28.798 33.7295 28.7874 33.8237C30.6594 34.2846 32.1611 35.0598 33.2716 36.1701C35.1541 38.0766 36.1165 40.9991 36.1165 44.9377V46.9489C36.1165 52.1235 34.3715 55.4336 30.9237 56.8478V56.9839C34.9108 58.3247 36.8991 61.8443 36.8991 67.5113V71.8479H36.8885Z" fill="black"/>
</g>
<defs>
<clipPath id="clip0_108_9">
<rect width="48" height="116" fill="white"/>
</clipPath>
</defs>
</svg>
