<svg width="48" height="116" viewBox="0 0 48 116" fill="none" xmlns="http://www.w3.org/2000/svg">
<g clip-path="url(#clip0_108_12)">
<rect x="11.1255" y="20.1736" width="30.3356" height="73.9689" fill="white"/>
<path d="M23.7568 61.1111H20.1621V76.6036H24.7824C26.1674 76.6036 27.2035 76.216 27.8802 75.4723C28.5568 74.7286 28.9057 73.4297 28.9057 71.5965V67.197C28.9057 64.903 28.5145 63.3213 27.7004 62.4414C26.8863 61.5615 25.5648 61.1006 23.7568 61.1006V61.1111Z" fill="url(#paint0_radial_108_12)"/>
<path d="M26.8863 52.6578C27.6687 51.8512 28.0599 50.479 28.0599 48.5725V45.7547C28.0599 42.3085 26.7066 40.5801 24.0106 40.5382H20.141V53.8833H23.3022C24.8987 53.8833 26.1145 53.4643 26.8969 52.6473L26.8863 52.6578Z" fill="url(#paint1_radial_108_12)"/>
<path d="M24 0C10.7524 0 0 10.6426 0 23.7782V92.2218C0 105.347 10.7418 116 24 116C37.2476 116 48 105.357 48 92.2218V23.7782C48 10.6531 37.2581 0 24 0ZM36.8775 71.8479C36.8775 75.7551 35.8414 78.7195 33.7903 80.7622C32.5004 82.0401 30.8405 82.9095 28.8106 83.3914V85.1826C28.8106 86.4605 27.7533 87.508 26.4634 87.508C25.1736 87.508 24.1057 86.4605 24.1057 85.1826V83.8208H20.141V85.1826C20.141 86.4605 19.0837 87.508 17.7938 87.508C16.504 87.508 15.4467 86.4605 15.4467 85.1826V83.8208H14.7172C13.015 83.8208 12.1586 82.9724 12.1586 81.2859V35.8559C12.1586 34.1694 13.015 33.3209 14.7172 33.3209H15.4467V30.8069C15.4467 29.529 16.504 28.4815 17.7938 28.4815C19.0837 28.4815 20.141 29.529 20.141 30.8069V33.3209H24.1057V30.8069C24.1057 29.529 25.163 28.4815 26.4634 28.4815C27.7639 28.4815 28.8106 29.529 28.8106 30.8069V33.5304C28.8106 33.6352 28.7894 33.7295 28.7789 33.8237C30.6502 34.2846 32.1516 35.0598 33.2617 36.1701C35.1436 38.0766 36.1057 40.9991 36.1057 44.9377V46.9489C36.1057 52.1235 34.3612 55.4336 30.9145 56.8478V56.9839C34.9004 58.3247 36.8881 61.8443 36.8881 67.5113V71.8479H36.8775Z" fill="url(#paint2_radial_108_12)"/>
</g>
<defs>
<radialGradient id="paint0_radial_108_12" cx="0" cy="0" r="1" gradientUnits="userSpaceOnUse" gradientTransform="translate(13.4954 15.251) rotate(85.8135) scale(72.9836 30.1993)">
<stop stop-color="#FF9900"/>
<stop offset="1" stop-color="#FF5C00"/>
</radialGradient>
<radialGradient id="paint1_radial_108_12" cx="0" cy="0" r="1" gradientUnits="userSpaceOnUse" gradientTransform="translate(13.4954 15.251) rotate(85.8135) scale(72.9836 30.1993)">
<stop stop-color="#FF9900"/>
<stop offset="1" stop-color="#FF5C00"/>
</radialGradient>
<radialGradient id="paint2_radial_108_12" cx="0" cy="0" r="1" gradientUnits="userSpaceOnUse" gradientTransform="translate(13.4954 15.251) rotate(85.8135) scale(72.9836 30.1993)">
<stop stop-color="#FF9900"/>
<stop offset="1" stop-color="#FF5C00"/>
</radialGradient>
<clipPath id="clip0_108_12">
<rect width="48" height="116" fill="white"/>
</clipPath>
</defs>
</svg>
